<svg width="225" height="183" viewBox="0 0 225 183" fill="none" xmlns="http://www.w3.org/2000/svg">
<g clip-path="url(#clip0_60_79)">
<path d="M179.623 33.3339C178.454 46.2482 175.125 59.8655 169.902 73.0044C163.444 89.2525 154.621 103.564 144.386 114.391L143.818 113.894C154.004 103.119 162.787 88.8711 169.218 72.6903C175.03 58.068 178.487 42.8512 179.219 28.6919L179.945 28.8137C179.868 30.3092 179.761 31.8159 179.623 33.3339Z" fill="#F2F2F2"/>
<path d="M184.278 108.337C169.903 131.272 152.462 147.659 135.169 154.479L134.819 153.836C151.993 147.063 169.331 130.76 183.641 107.93L184.278 108.337Z" fill="#F2F2F2"/>
<path d="M179.274 49.4127C178.105 62.3269 174.776 75.9443 169.553 89.0832C163.095 105.331 154.272 119.642 144.037 130.47L143.469 129.973C153.655 119.198 162.438 104.95 168.869 88.769C174.681 74.1467 178.138 58.93 178.87 44.7706L179.596 44.8925C179.519 46.3879 179.412 47.8946 179.274 49.4127Z" fill="#F2F2F2"/>
<path d="M17.8909 82.5673H8.45881C8.2573 82.5678 8.0583 82.5224 7.87675 82.4347C7.6952 82.347 7.53581 82.2193 7.41053 82.061C7.28677 81.9067 7.19945 81.7264 7.15514 81.5334C7.11082 81.3405 7.11065 81.14 7.15465 80.947C8.05296 76.9722 7.99652 72.8401 6.99 68.8914C6.92633 68.6314 6.94173 68.3583 7.0342 68.1072C7.12667 67.856 7.29198 67.6384 7.50885 67.4823C12.3588 63.9843 16.1784 64.0858 18.8614 67.7845C18.9824 67.953 19.0627 68.1474 19.0961 68.3524C19.813 72.6742 19.8527 77.0818 19.2137 81.4159C19.1693 81.7358 19.0108 82.0287 18.7676 82.2404C18.5244 82.4521 18.2129 82.5682 17.8909 82.5673Z" fill="#E6E6E6"/>
<path d="M14.9667 73.0955H11.722C11.5426 73.0955 11.3705 73.024 11.2437 72.8968C11.1168 72.7695 11.0455 72.597 11.0455 72.4171C11.0455 72.2371 11.1168 72.0646 11.2437 71.9373C11.3705 71.8101 11.5426 71.7386 11.722 71.7386H14.9667C15.1459 71.739 15.3176 71.8107 15.4441 71.9378C15.5707 72.065 15.6418 72.2374 15.6418 72.4171C15.6418 72.5967 15.5707 72.7691 15.4441 72.8963C15.3176 73.0234 15.1459 73.0951 14.9667 73.0955Z" fill="#EDF2F4"/>
<path d="M14.9667 75.4747H11.722C11.5426 75.4747 11.3705 75.4033 11.2437 75.276C11.1168 75.1488 11.0455 74.9763 11.0455 74.7963C11.0455 74.6164 11.1168 74.4438 11.2437 74.3166C11.3705 74.1894 11.5426 74.1179 11.722 74.1179H14.9667C15.1459 74.1183 15.3176 74.1899 15.4441 74.3171C15.5707 74.4443 15.6418 74.6166 15.6418 74.7963C15.6418 74.976 15.5707 75.1483 15.4441 75.2755C15.3176 75.4027 15.1459 75.4744 14.9667 75.4747Z" fill="#EDF2F4"/>
<path d="M14.9667 77.8539H11.722C11.5426 77.8539 11.3705 77.7824 11.2437 77.6552C11.1168 77.528 11.0455 77.3554 11.0455 77.1755C11.0455 76.9956 11.1168 76.823 11.2437 76.6958C11.3705 76.5685 11.5426 76.4971 11.722 76.4971H14.9667C15.1459 76.4974 15.3176 76.5691 15.4441 76.6963C15.5707 76.8235 15.6418 76.9958 15.6418 77.1755C15.6418 77.3552 15.5707 77.5275 15.4441 77.6547C15.3176 77.7819 15.1459 77.8535 14.9667 77.8539Z" fill="#EDF2F4"/>
<path d="M189.309 124.799H179.877C179.676 124.799 179.477 124.754 179.295 124.666C179.114 124.578 178.954 124.451 178.829 124.292C178.705 124.138 178.618 123.958 178.574 123.765C178.529 123.572 178.529 123.371 178.573 123.178C179.471 119.203 179.415 115.071 178.408 111.123C178.345 110.863 178.36 110.59 178.453 110.338C178.545 110.087 178.71 109.87 178.927 109.714C183.777 106.216 187.597 106.317 190.28 110.016C190.401 110.184 190.481 110.379 190.515 110.584C191.231 114.906 191.271 119.313 190.632 123.647C190.588 123.967 190.429 124.26 190.186 124.472C189.943 124.683 189.631 124.8 189.309 124.799Z" fill="#E6E6E6"/>
<path d="M186.385 115.327H183.14C182.961 115.326 182.79 115.255 182.663 115.127C182.536 115 182.465 114.828 182.465 114.648C182.465 114.469 182.536 114.296 182.663 114.169C182.79 114.042 182.961 113.97 183.14 113.97H186.385C186.564 113.97 186.737 114.041 186.863 114.169C186.99 114.296 187.062 114.468 187.062 114.648C187.062 114.828 186.99 115.001 186.863 115.128C186.737 115.255 186.564 115.327 186.385 115.327Z" fill="#EDF2F4"/>
<path d="M186.385 117.706H183.14C182.961 117.706 182.79 117.634 182.663 117.507C182.536 117.38 182.465 117.207 182.465 117.028C182.465 116.848 182.536 116.676 182.663 116.548C182.79 116.421 182.961 116.349 183.14 116.349H186.385C186.564 116.349 186.737 116.421 186.863 116.548C186.99 116.675 187.062 116.848 187.062 117.028C187.062 117.207 186.99 117.38 186.863 117.507C186.737 117.634 186.564 117.706 186.385 117.706Z" fill="#EDF2F4"/>
<path d="M186.385 120.085H183.14C182.961 120.085 182.79 120.013 182.663 119.886C182.536 119.759 182.465 119.586 182.465 119.407C182.465 119.227 182.536 119.055 182.663 118.927C182.79 118.8 182.961 118.729 183.14 118.728H186.385C186.564 118.728 186.737 118.8 186.863 118.927C186.99 119.054 187.062 119.227 187.062 119.407C187.062 119.587 186.99 119.759 186.863 119.886C186.737 120.014 186.564 120.085 186.385 120.085Z" fill="#EDF2F4"/>
<path d="M225 182.646C225 182.693 224.991 182.739 224.973 182.782C224.956 182.825 224.93 182.864 224.897 182.897C224.864 182.93 224.825 182.956 224.782 182.973C224.739 182.991 224.693 183 224.647 183H0.352921C0.259321 183 0.169557 182.963 0.103372 182.896C0.0371866 182.83 0 182.74 0 182.646C0 182.552 0.0371866 182.462 0.103372 182.396C0.169557 182.33 0.259321 182.292 0.352921 182.292H224.647C224.693 182.292 224.739 182.301 224.782 182.319C224.825 182.337 224.864 182.363 224.897 182.396C224.93 182.428 224.956 182.468 224.973 182.511C224.991 182.554 225 182.6 225 182.646Z" fill="#CCCCCC"/>
<path d="M59.1671 160.977L58.5788 152.772C54.7254 150.841 50.4599 149.881 46.1528 149.978C52.2123 154.675 51.7269 164.062 55.9234 170.487C57.2476 172.48 59.0021 174.15 61.0571 175.371C63.1121 176.592 65.4148 177.334 67.7945 177.542L72.8374 180.451C73.4143 176.628 73.1577 172.724 72.0854 169.01C71.0131 165.295 69.1505 161.858 66.6259 158.935C65.1935 157.309 63.5626 155.871 61.7717 154.654C60.6694 157.827 59.1671 160.977 59.1671 160.977Z" fill="#F2F2F2"/>
<path d="M165.833 162.167L166.421 153.962C170.275 152.03 174.54 151.071 178.847 151.168C172.788 155.864 173.273 165.252 169.077 171.676C167.752 173.67 165.998 175.339 163.943 176.561C161.888 177.782 159.585 178.524 157.206 178.731L152.163 181.641C151.586 177.817 151.842 173.914 152.915 170.199C153.987 166.485 155.85 163.048 158.374 160.125C159.807 158.499 161.437 157.061 163.228 155.843C164.331 159.017 165.833 162.167 165.833 162.167Z" fill="#F2F2F2"/>
<path d="M109.831 69.5752C112.943 69.5752 115.466 67.0454 115.466 63.9246C115.466 60.8038 112.943 58.2739 109.831 58.2739C106.719 58.2739 104.196 60.8038 104.196 63.9246C104.196 67.0454 106.719 69.5752 109.831 69.5752Z" fill="#D9D9D9"/>
<path d="M112.724 61.5696C112.639 61.4885 112.526 61.4432 112.409 61.4432C112.292 61.4432 112.179 61.4885 112.094 61.5696C110.899 62.5258 109.825 63.6258 108.897 64.8448C108.669 64.4028 108.441 63.9607 108.213 63.5186C107.95 63.0084 107.182 63.4591 107.445 63.9689C107.778 64.6155 108.112 65.2621 108.445 65.9087C108.485 65.9747 108.541 66.0293 108.609 66.0671C108.676 66.1049 108.752 66.1248 108.829 66.1248C108.906 66.1248 108.982 66.1049 109.049 66.0671C109.116 66.0293 109.173 65.9747 109.213 65.9087C110.202 64.512 111.384 63.2634 112.724 62.2005C112.806 62.1165 112.853 62.0031 112.853 61.885C112.853 61.7669 112.806 61.6536 112.724 61.5696Z" fill="#EDF2F4"/>
<path d="M84.6177 79.9477L76.1205 66.5659L85.9601 61.2815L88.5426 71.4912L106.739 81.3516C107.457 81.0923 108.235 81.0483 108.978 81.2248C109.721 81.4013 110.397 81.7908 110.923 82.3458C111.449 82.9007 111.803 83.5972 111.941 84.3502C112.079 85.1032 111.995 85.8802 111.701 86.5865C111.406 87.2929 110.913 87.898 110.281 88.3281C109.65 88.7582 108.907 88.9946 108.143 89.0087C107.38 89.0228 106.629 88.8138 105.982 88.4073C105.335 88.0007 104.82 87.4142 104.5 86.7192L84.6177 79.9477Z" fill="#A0616A"/>
<path d="M69.9124 50.5156C67.2425 54.4466 76.7305 68.7354 76.7305 68.7354C77.1928 67.7362 81.6112 78.9559 82.3513 78.2932C84.4546 76.4095 87.7471 71.1625 89.5773 70.9286C90.6239 70.7949 87.1499 63.3512 87.1499 63.3512C87.1499 63.3512 85.5621 58.9558 83.4077 53.341C82.8279 51.7423 81.8543 50.3167 80.5773 49.1969C79.3003 48.077 77.7616 47.2994 76.1043 46.9363C76.1043 46.9363 72.5823 46.5847 69.9124 50.5156Z" fill="#3F3D56"/>
<path d="M70.0428 178.588L74.0782 178.588L75.9979 162.978L70.0419 162.979L70.0428 178.588Z" fill="#A0616A"/>
<path d="M69.0133 177.267L70.1492 177.267L74.5838 175.458L76.9607 177.266H76.961C78.3042 177.266 79.5924 177.801 80.5422 178.754C81.492 179.706 82.0256 180.998 82.0257 182.345V182.51L69.0135 182.511L69.0133 177.267Z" fill="#2F2E41"/>
<path d="M88.7909 178.588L92.8263 178.588L94.7463 162.978L88.7903 162.979L88.7909 178.588Z" fill="#A0616A"/>
<path d="M87.7615 177.267L88.8973 177.267L93.332 175.458L95.7089 177.266H95.7092C97.0524 177.266 98.3406 177.801 99.2904 178.754C100.24 179.706 100.774 180.998 100.774 182.345V182.51L87.7617 182.511L87.7615 177.267Z" fill="#2F2E41"/>
<path d="M90.5376 93.2512L64.2889 93.9093C59.3037 96.6246 59.228 102.501 60.8614 109.479C60.8614 109.479 60.31 113.626 61.4129 114.732C62.5157 115.838 63.0671 115.838 62.5157 117.774C61.9643 119.709 64.8777 122.87 64.5238 123.225C64.17 123.58 63.3428 125.515 63.3428 125.515L66.0999 141.275C66.0999 141.275 68.0299 168.646 68.5813 169.199C69.1327 169.752 69.6841 169.199 69.1327 170.582C68.5813 171.964 68.0299 171.411 68.5813 171.964C69.0698 172.492 69.5299 173.046 69.9599 173.623H76.6257C76.6257 173.623 77.1283 170.858 77.1283 170.582C77.1283 170.305 77.6797 168.646 77.6797 168.37C77.6797 168.093 77.1924 167.605 77.1924 167.605C77.0239 167.043 76.9102 166.465 76.8526 165.881C76.8526 165.329 75.1983 144.039 75.1983 144.039L78.5068 116.391L86.5024 143.486C86.5024 143.486 86.5024 167.264 87.0538 167.817C87.6053 168.37 87.6052 168.093 87.3295 169.199C87.0538 170.305 85.951 170.029 86.7781 170.858C87.6052 171.688 87.881 170.305 87.6053 171.688L87.3296 173.07L95.6008 173.189C95.6008 173.189 96.7037 170.858 96.1523 170.029C95.6008 169.199 95.6339 169.426 96.3067 168.068C96.9794 166.711 97.2551 166.434 96.9794 166.158C96.7037 165.881 96.7037 164.411 96.7037 164.411L95.3251 137.957C95.3251 137.957 95.0494 110.032 95.0494 109.203C95.0286 108.776 95.107 108.35 95.2785 107.959V106.833L94.2223 102.843L90.5376 93.2512Z" fill="#2F2E41"/>
<path d="M74.7696 38.5181C79.2739 38.5181 82.9253 34.8565 82.9253 30.3396C82.9253 25.8228 79.2739 22.1611 74.7696 22.1611C70.2654 22.1611 66.614 25.8228 66.614 30.3396C66.614 34.8565 70.2654 38.5181 74.7696 38.5181Z" fill="#A0616A"/>
<path d="M78.8475 43.9236C80.6045 44.9711 81.6556 46.8957 82.2589 48.8542C83.376 52.48 84.0483 56.2288 84.2612 60.0178L84.8985 71.3611L92.791 95.5144C85.9508 101.318 60.2395 96.8335 60.2395 96.8335C60.2395 96.8335 59.4502 96.5697 60.2395 95.7782C61.0288 94.9867 61.7971 95.6879 61.0079 94.8965C60.2186 94.105 60.7627 94.9867 61.0258 94.1953C61.2889 93.4038 61.0258 93.9315 60.7627 93.6676C60.4996 93.4038 62.7993 91.0294 62.7993 91.0294L60.6947 77.1652L58.0638 49.2C61.2209 45.2427 67.57 42.9099 67.57 42.9099L69.2106 39.9486L77.4133 40.6067L78.8475 43.9236Z" fill="#3F3D56"/>
<path d="M81.4927 25.9946C82.1265 26.4687 82.5962 27.1302 82.8354 27.886C82.9273 26.6509 82.9331 25.4108 82.8529 24.1748C82.7567 23.3063 82.147 23.1109 81.4409 22.8846C80.8033 22.68 80.0822 22.449 79.8882 21.6059C77.3245 19.1049 72.8617 19.231 69.8075 20.1034C68.1269 20.5834 67.1599 21.2002 67.0733 21.5615L67.0554 21.6359L66.9872 21.6701C65.6917 22.3197 65.4395 24.3708 65.4562 25.9771C65.4878 29.0034 66.5298 32.4405 67.1168 32.7198C67.1478 32.7345 67.1557 32.7288 67.1692 32.7175C68.053 32.0092 69.1314 32.7713 69.6053 33.1857C69.8848 31.3048 70.7848 29.572 72.1615 28.2642C73.5383 26.9564 75.3123 26.149 77.2003 25.9708C77.8169 25.9111 78.4286 25.8082 79.0309 25.663C79.3364 25.5838 79.6505 25.5424 79.966 25.5399C80.5093 25.5317 81.042 25.6903 81.4927 25.9946Z" fill="#2F2E41"/>
<path d="M132.122 99.7681L147.81 83.7921L151.944 71.0147L145.292 68.3168C141.997 71.6498 138.605 81.8531 138.605 81.8531L127.897 96.2647C127.812 96.2966 127.727 96.3303 127.643 96.3701C127.15 96.6035 126.725 96.9605 126.41 97.4066C126.095 97.8527 125.899 98.3728 125.843 98.9166C125.787 99.4604 125.872 100.009 126.089 100.511C126.306 101.012 126.649 101.449 127.084 101.779C127.518 102.109 128.031 102.32 128.571 102.394C129.111 102.467 129.661 102.399 130.168 102.197C130.674 101.995 131.12 101.665 131.463 101.24C131.805 100.814 132.032 100.307 132.122 99.7681Z" fill="#FFB8B8"/>
<path d="M143.478 69.7784L151.889 72.2186L151.921 72.2125C155.013 71.6105 157.459 66.4577 158.966 62.2411C159.462 60.8503 159.412 59.3225 158.828 57.9668C158.244 56.611 157.168 55.5283 155.818 54.9376C154.819 54.5085 153.72 54.3682 152.646 54.5324C151.572 54.6967 150.565 55.159 149.739 55.867L145.545 59.4885L143.478 69.7784Z" fill="#D9D9D9"/>
<path d="M136.281 178.113L131.757 178.113L129.605 160.615L136.282 160.616L136.281 178.113Z" fill="#FFB8B8"/>
<path d="M137.435 176.632L136.162 176.632L131.19 174.605L128.526 176.632H128.526C127.02 176.632 125.576 177.232 124.511 178.299C123.446 179.367 122.848 180.815 122.848 182.325V182.51L137.435 182.511L137.435 176.632Z" fill="#2F2E41"/>
<path d="M156.354 178.113L151.83 178.113L149.678 160.615L156.355 160.616L156.354 178.113Z" fill="#FFB8B8"/>
<path d="M157.508 176.632L156.234 176.632L151.263 174.605L148.599 176.632H148.598C147.093 176.632 145.649 177.232 144.584 178.299C143.519 179.367 142.921 180.815 142.921 182.325V182.51L157.507 182.511L157.508 176.632Z" fill="#2F2E41"/>
<path d="M163.252 102.744C163.252 102.744 163.78 109.1 162.459 115.192C161.139 121.284 161.139 138.44 161.139 138.44L158.233 171.872L149.518 171.077L147.141 115.192L138.689 133.997L139.481 136.646L138.426 137.308C138.426 137.308 139.217 142.472 138.689 142.472C138.161 142.472 136.84 143.267 136.84 143.267L137.896 170.547L128.916 170.282L125.747 131.878L129.181 109.895L129.445 105.657L130.633 105.706L131.238 103.936L132.35 100.89L163.252 102.744Z" fill="#2F2E41"/>
<path d="M163.708 104.079L163.755 104.013C166.269 100.483 162.488 92.0017 161.918 90.7722L164.32 89.9906L163.779 85.38L163.523 83.3245L165.359 81.4836L165.364 81.4377L166.42 72.1677L167.956 66.0106C168.535 63.683 168.486 61.2429 167.813 58.9408C167.141 56.6386 165.87 54.5574 164.13 52.9106L160.58 49.5535L156.265 43.1508H149.306L146.92 47.6701C144.607 48.2063 142.554 49.5392 141.121 51.4367C139.687 53.3343 138.962 55.6762 139.073 58.0544L139.613 69.9074L137.496 84.6655L137.495 87.3363L135.113 89.9914L135.633 92.5997L133.82 93.3789L133.019 97.1252C132.688 97.5636 130.501 100.488 130.501 101.287C130.501 101.407 130.59 101.523 130.779 101.652C132.269 102.664 140.507 104.727 144.152 103.264C148.036 101.707 163.473 104.043 163.628 104.066L163.708 104.079Z" fill="#D9D9D9"/>
<path d="M151.886 41.0839C156.976 41.0839 161.102 36.9462 161.102 31.8422C161.102 26.7382 156.976 22.6006 151.886 22.6006C146.797 22.6006 142.671 26.7382 142.671 31.8422C142.671 36.9462 146.797 41.0839 151.886 41.0839Z" fill="#FFB8B8"/>
<path d="M151.003 41.2336C152.431 41.2189 153.854 41.0821 155.258 40.8245C156.648 40.5034 159.715 38.1254 160.551 36.7205C161.172 35.6767 161.544 34.0622 161.748 32.8917C162.022 31.3426 161.969 29.7529 161.592 28.2256C161.215 26.6983 160.523 25.2675 159.559 24.0257C159.188 23.5055 158.683 23.0956 158.098 22.8394C158.047 22.8207 157.994 22.8042 157.94 22.7904C157.092 22.5901 156.324 22.1404 155.733 21.4989C155.619 21.3691 155.495 21.2477 155.363 21.1357C154.7 20.6036 153.921 20.2364 153.09 20.064C151.747 19.7405 149.826 20.1458 147.38 21.2697C146.151 21.8343 144.787 21.6768 143.736 21.4764C143.677 21.4666 143.617 21.4724 143.561 21.4933C143.505 21.5142 143.455 21.5494 143.417 21.5954C142.983 22.0256 142.403 22.2752 141.793 22.2939C141.42 22.32 141.041 22.849 140.585 23.5378C140.481 23.6941 140.36 23.8766 140.272 23.9879L140.255 23.7788L140.05 24.0179C139.727 24.3937 139.504 24.8453 139.402 25.3307C139.3 25.816 139.323 26.3193 139.467 26.7937C139.611 27.2681 139.873 27.6982 140.228 28.0438C140.583 28.3895 141.019 28.6395 141.496 28.7706C141.874 28.8612 142.261 28.9127 142.65 28.9245C142.885 28.9397 143.129 28.9553 143.363 28.9898C144.116 29.1241 144.82 29.4517 145.409 29.9407C145.997 30.4296 146.449 31.0632 146.72 31.7795C146.784 31.945 146.885 32.0936 147.016 32.2137C147.146 32.3339 147.302 32.4223 147.472 32.4723C147.642 32.5223 147.821 32.5325 147.996 32.5021C148.17 32.4716 148.335 32.4014 148.478 32.2968C148.716 32.1009 148.998 31.9655 149.299 31.9024C149.601 31.8393 149.913 31.8502 150.209 31.9342C150.467 32.0693 150.671 32.2891 150.786 32.5567C150.925 32.8547 151.15 33.1043 151.431 33.2736C152.391 33.7386 152.512 35.9058 152.218 37.7225C151.935 39.4737 151.32 40.7512 150.721 40.829C150.261 40.8889 150.209 40.9232 150.177 41.0059L150.15 41.0801L150.203 41.1473C150.461 41.2334 150.734 41.2629 151.003 41.2336Z" fill="#2F2E41"/>
<path d="M143.358 70.7668L138.928 65.1067C134.415 66.3527 126.409 73.5091 126.409 73.5091L109.967 80.6645C109.418 80.572 108.855 80.6261 108.333 80.8214C107.812 81.0167 107.351 81.3463 106.997 81.7769C106.643 82.2075 106.409 82.7241 106.317 83.2745C106.226 83.825 106.28 84.3899 106.476 84.9124C106.671 85.4349 107 85.8966 107.43 86.251C107.86 86.6054 108.375 86.84 108.924 86.9311C109.473 87.0223 110.037 86.9668 110.557 86.7703C111.078 86.5737 111.538 86.2431 111.891 85.8116L133.43 79.7857L143.358 70.7668Z" fill="#FFB8B8"/>
<path d="M142.296 72.0608L149.286 64.2472L149.674 58.7108C149.746 57.6236 149.513 56.5378 149.003 55.5762C148.492 54.6145 147.723 53.8153 146.783 53.2688C145.504 52.5367 143.995 52.3189 142.562 52.6596C141.129 53.0003 139.878 53.874 139.062 55.1041C136.593 58.8367 133.936 63.8834 135.303 66.7287L135.317 66.7575L142.296 72.0608Z" fill="#D9D9D9"/>
<path d="M77.8735 101.429L59.7072 92.0995C58.415 91.4358 57.987 89.6756 58.7531 88.1756L70.5979 64.983C71.364 63.483 73.0385 62.8026 74.3307 63.4662L92.497 72.7961C93.7892 73.4597 94.2172 75.22 93.4511 76.72L81.6063 99.9126C80.8402 101.413 79.1657 102.093 77.8735 101.429Z" fill="#E6E6E6"/>
<path d="M74.7696 97.1402L62.4272 90.8014C61.217 90.1798 60.816 88.5313 61.5335 87.1265L71.374 67.8584C72.0915 66.4536 73.6597 65.8165 74.8699 66.438L89.7771 74.094C90.9873 74.7156 91.3881 76.3641 90.6706 77.7689L85.3248 88.2363C82.129 94.4938 80.1602 99.9088 74.7696 97.1402Z" fill="#EDF2F4"/>
<path d="M80.8721 86.618L69.94 81.0034C69.8064 80.9079 69.7114 80.7674 69.6725 80.6075C69.6337 80.4476 69.6534 80.279 69.7282 80.1325C69.8031 79.986 69.9279 79.8714 70.0801 79.8096C70.2322 79.7478 70.4014 79.7429 70.5568 79.7959L81.4888 85.4104C81.6225 85.5059 81.7174 85.6464 81.7563 85.8063C81.7952 85.9662 81.7754 86.1348 81.7006 86.2813C81.6258 86.4278 81.5009 86.5424 81.3488 86.6042C81.1967 86.666 81.0275 86.6709 80.8721 86.618Z" fill="#D9D9D9"/>
<path d="M71.2163 84.6706L68.7215 83.3894C68.5879 83.2938 68.4929 83.1533 68.454 82.9934C68.4152 82.8335 68.4349 82.6649 68.5097 82.5184C68.5846 82.3719 68.7094 82.2573 68.8616 82.1955C69.0137 82.1336 69.1829 82.1288 69.3383 82.1817L71.8331 83.463C71.9668 83.5585 72.0617 83.6991 72.1006 83.859C72.1395 84.0189 72.1197 84.1875 72.0449 84.334C71.9701 84.4805 71.8452 84.5951 71.6931 84.6569C71.541 84.7187 71.3717 84.7236 71.2163 84.6706Z" fill="#D9D9D9"/>
<path d="M74.4164 89.3259L67.503 85.7753C67.3694 85.6798 67.2744 85.5393 67.2355 85.3794C67.1966 85.2195 67.2164 85.0509 67.2912 84.9044C67.3661 84.7579 67.4909 84.6433 67.643 84.5814C67.7952 84.5196 67.9644 84.5148 68.1198 84.5677L75.0332 88.1183C75.1669 88.2138 75.2618 88.3544 75.3007 88.5143C75.3396 88.6742 75.3198 88.8428 75.245 88.9893C75.1702 89.1358 75.0453 89.2504 74.8932 89.3122C74.7411 89.374 74.5718 89.3789 74.4164 89.3259Z" fill="#D9D9D9"/>
<path d="M85.1981 78.1474L74.2661 72.5329C74.1324 72.4374 74.0375 72.2968 73.9986 72.1369C73.9597 71.977 73.9795 71.8084 74.0543 71.6619C74.1291 71.5154 74.254 71.4008 74.4061 71.339C74.5582 71.2772 74.7274 71.2723 74.8828 71.3253L85.8149 76.9398C85.9485 77.0353 86.0435 77.1758 86.0824 77.3357C86.1213 77.4956 86.1015 77.6642 86.0267 77.8107C85.9519 77.9572 85.827 78.0718 85.6749 78.1337C85.5228 78.1955 85.3535 78.2003 85.1981 78.1474Z" fill="#D9D9D9"/>
<path d="M75.5424 76.2001L73.0476 74.9188C72.9139 74.8233 72.819 74.6827 72.7801 74.5228C72.7412 74.3629 72.761 74.1943 72.8358 74.0478C72.9106 73.9013 73.0355 73.7867 73.1876 73.7249C73.3397 73.6631 73.5089 73.6582 73.6643 73.7111L76.1592 74.9924C76.2928 75.0879 76.3878 75.2285 76.4266 75.3884C76.4655 75.5483 76.4457 75.7169 76.3709 75.8634C76.2961 76.0099 76.1712 76.1245 76.0191 76.1863C75.867 76.2481 75.6978 76.253 75.5424 76.2001Z" fill="#D9D9D9"/>
<path d="M78.7425 80.8553L71.8291 77.3046C71.6954 77.2091 71.6005 77.0686 71.5616 76.9087C71.5227 76.7488 71.5425 76.5802 71.6173 76.4337C71.6921 76.2872 71.817 76.1725 71.9691 76.1107C72.1212 76.0489 72.2904 76.044 72.4458 76.097L79.3592 79.6476C79.4929 79.7431 79.5879 79.8837 79.6267 80.0436C79.6656 80.2035 79.6459 80.3721 79.571 80.5186C79.4962 80.6651 79.3713 80.7797 79.2192 80.8415C79.0671 80.9033 78.8979 80.9082 78.7425 80.8553Z" fill="#D9D9D9"/>
<path d="M62.8199 81.238L58.7159 65.9166L69.683 63.8347L69.0932 74.3512L83.503 89.2301C84.2658 89.1989 85.0213 89.3909 85.6772 89.7827C86.3332 90.1745 86.8612 90.7493 87.197 91.4369C87.5329 92.1245 87.6619 92.8952 87.5685 93.6551C87.4751 94.415 87.1632 95.1312 86.6709 95.7164C86.1785 96.3016 85.527 96.7305 84.7958 96.9508C84.0646 97.1711 83.2853 97.1734 82.5529 96.9572C81.8204 96.741 81.1665 96.3158 80.6709 95.7334C80.1753 95.151 79.8594 94.4366 79.7616 93.6773L62.8199 81.238Z" fill="#A0616A"/>
<path d="M57.5937 48.7381C53.8711 51.6851 58.6491 68.1697 58.6491 68.1697C59.3888 67.3556 60.2485 79.3876 61.1527 78.9779C63.7225 77.8135 68.4327 73.7983 70.2485 74.1256C71.287 74.3128 70.199 66.167 70.199 66.167C70.199 66.167 69.9989 61.4964 69.6228 55.4921C69.5479 53.7926 69.0454 52.1398 68.1621 50.6875C67.2788 49.2351 66.0435 48.0305 64.571 47.1857C64.571 47.1857 61.3163 45.791 57.5937 48.7381Z" fill="#3F3D56"/>
<path d="M119.534 115.245L109.621 110.551C109.409 110.451 109.222 110.304 109.075 110.122C108.928 109.939 108.823 109.726 108.77 109.497C108.716 109.273 108.714 109.04 108.763 108.815C108.811 108.59 108.911 108.38 109.052 108.199C111.924 104.518 113.896 100.215 114.81 95.6323C114.879 95.2815 115.067 94.9655 115.342 94.7382C115.618 94.511 115.963 94.3865 116.32 94.3861C121.376 94.4034 125.154 96.2546 127.55 99.8878C127.677 100.077 127.76 100.291 127.796 100.516C127.831 100.741 127.817 100.97 127.755 101.189C126.367 105.984 124.256 110.539 121.494 114.693C121.289 115.007 120.978 115.236 120.618 115.338C120.257 115.439 119.872 115.406 119.534 115.245Z" fill="#E6E6E6"/>
<path d="M122.451 108.661L114.871 105.072C114.682 104.982 114.537 104.822 114.466 104.625C114.396 104.428 114.406 104.211 114.495 104.022C114.585 103.833 114.745 103.687 114.941 103.616C115.137 103.546 115.354 103.556 115.542 103.646L123.122 107.235C123.215 107.279 123.299 107.341 123.369 107.418C123.438 107.495 123.492 107.584 123.526 107.682C123.561 107.779 123.577 107.883 123.572 107.986C123.567 108.09 123.541 108.191 123.497 108.285C123.453 108.378 123.391 108.462 123.315 108.532C123.238 108.602 123.149 108.655 123.052 108.69C122.954 108.725 122.851 108.741 122.748 108.736C122.645 108.731 122.544 108.705 122.451 108.661Z" fill="#EDF2F4"/>
<path d="M123.628 106.16L116.048 102.571C115.86 102.482 115.714 102.321 115.644 102.124C115.573 101.927 115.584 101.711 115.673 101.521C115.762 101.332 115.922 101.186 116.119 101.116C116.315 101.045 116.531 101.056 116.72 101.145L124.3 104.734C124.488 104.824 124.634 104.984 124.704 105.181C124.774 105.378 124.764 105.595 124.675 105.784C124.586 105.973 124.425 106.119 124.229 106.19C124.033 106.26 123.817 106.25 123.628 106.16Z" fill="#EDF2F4"/>
<path d="M113.5 27.663L112.794 27.7405C109.648 15.3434 103.551 6.75487 95.1596 2.90316C84.4926 -1.99305 71.3024 1.29485 58.0188 12.1613C44.6676 23.0833 32.8483 40.3352 24.7383 60.74L24.0537 60.4258C32.1993 39.9319 44.0792 22.5966 57.5052 11.6139C70.9986 0.575761 84.458 -2.73624 95.404 2.28817C104.036 6.25025 110.293 15.0248 113.5 27.663Z" fill="#F2F2F2"/>
<path d="M35.6574 43.8085C33.8123 47.7065 32.0572 51.7448 30.441 55.8111C21.1403 79.2115 16.4272 103.109 16.8123 124.923L16.0854 124.845C15.6999 102.951 20.4266 78.9702 29.7564 55.4969C31.3772 51.4191 33.1373 47.3694 34.9878 43.4604L35.6574 43.8085Z" fill="#F2F2F2"/>
<path d="M35.3086 59.8873C33.4634 63.7852 31.7083 67.8235 30.0921 71.8899C20.7915 95.2902 16.0783 119.188 16.4634 141.001L15.7366 140.924C15.351 119.029 20.0777 95.049 29.4075 71.5757C31.0284 67.4978 32.7884 63.4481 34.6389 59.5392L35.3086 59.8873Z" fill="#F2F2F2"/>
<path d="M15.7715 65.7348C16.5751 64.5236 16.0995 62.7899 14.7092 61.8624C13.319 60.9349 11.5406 61.1648 10.737 62.376C9.93351 63.5871 10.4091 65.3209 11.7993 66.2484C13.1896 67.1759 14.968 66.946 15.7715 65.7348Z" fill="#CCCCCC"/>
<path d="M186.876 109.474C187.68 108.263 187.204 106.529 185.814 105.601C184.424 104.674 182.645 104.904 181.842 106.115C181.038 107.326 181.514 109.06 182.904 109.987C184.294 110.915 186.073 110.685 186.876 109.474Z" fill="#CCCCCC"/>
</g>
<defs>
<clipPath id="clip0_60_79">
<rect width="225" height="183" fill="white"/>
</clipPath>
</defs>
</svg>
