<svg width="32" height="30" viewBox="0 0 32 30" fill="none" xmlns="http://www.w3.org/2000/svg">
<path d="M2.45012 16.6491C1.16213 14.4779 0.711067 11.9111 1.18163 9.43086C1.65219 6.95058 3.01201 4.72738 5.00574 3.17875C6.99947 1.63012 9.48996 0.862572 12.0096 1.02024C14.5291 1.17791 16.9045 2.24995 18.6896 4.03506C20.4747 5.82016 21.5468 8.19553 21.7045 10.7151C21.8622 13.2347 21.0946 15.7252 19.546 17.719C17.9974 19.7127 15.7742 21.0725 13.2939 21.5431C10.8136 22.0137 8.24688 21.5626 6.07563 20.2746L2.4952 21.2975C2.34706 21.3398 2.1903 21.3418 2.04117 21.3031C1.89203 21.2645 1.75594 21.1867 1.647 21.0777C1.53807 20.9688 1.46024 20.8327 1.4216 20.6836C1.38295 20.5344 1.38489 20.3777 1.42722 20.2295L2.45012 16.6491Z" stroke="#EDF2F4" stroke-width="2" stroke-linecap="round" stroke-linejoin="round"/>
<path d="M10.7993 21.7094C11.3089 23.1562 12.1331 24.4719 13.2123 25.5618C14.2916 26.6517 15.5992 27.4887 17.0408 28.0125C18.4825 28.5363 20.0224 28.7338 21.5495 28.5909C23.0767 28.448 24.5532 27.9682 25.8727 27.186L29.4531 28.2089C29.6012 28.2512 29.758 28.2531 29.9071 28.2145C30.0563 28.1758 30.1924 28.098 30.3013 27.9891C30.4102 27.8801 30.4881 27.744 30.5267 27.5949C30.5653 27.4458 30.5634 27.289 30.5211 27.1409L29.4981 23.5604C30.407 22.0275 30.9056 20.2863 30.9457 18.5046C30.9857 16.7229 30.5658 14.961 29.7267 13.3888C28.8875 11.8167 27.6573 10.4873 26.1547 9.529C24.6522 8.57071 22.928 8.01583 21.1486 7.91791" stroke="#EDF2F4" stroke-width="2" stroke-linecap="round" stroke-linejoin="round"/>
</svg>
