<svg width="189" height="125" viewBox="0 0 189 125" fill="none" xmlns="http://www.w3.org/2000/svg">
<g clip-path="url(#clip0_125_674)">
<path d="M97.2538 124.36C94.2658 124.886 91.242 125.061 88.2255 124.882C80.9521 124.443 73.799 121.913 67.6859 117.158C64.9755 115.049 62.39 112.458 60.9871 108.978C59.0829 104.251 59.7488 98.2681 62.468 94.1515C63.4598 92.6667 64.6799 91.4222 66.0624 90.4849C66.2673 90.3465 66.4766 90.2133 66.6882 90.0855C68.9919 88.7004 71.5795 88.1339 74.1442 88.4533C78.5046 89.0231 82.5288 92.2077 84.8538 96.6572C86.9249 100.625 87.6465 105.306 88.0719 109.997C88.152 110.881 88.2211 111.768 88.2878 112.65C87.9173 115.203 87.3346 117.706 86.5485 120.121C86.5085 120.239 86.4758 120.36 86.4506 120.483C86.896 121.639 87.3198 122.805 87.7222 123.982C88.1002 124.227 88.5236 124.356 88.9538 124.355H97.236L97.2538 124.36Z" fill="#F2F2F2"/>
<path d="M87.5506 124.587C87.4957 124.616 87.4365 124.632 87.3764 124.633C87.3163 124.635 87.2565 124.622 87.2005 124.596C87.1446 124.57 87.0936 124.531 87.0504 124.48C87.0073 124.43 86.973 124.37 86.9494 124.304C86.9137 124.203 86.8804 124.102 86.8447 124.001C86.524 123.069 86.1878 122.146 85.8359 121.232C81.3311 109.434 74.6119 99.0376 66.2004 90.8498C66.1522 90.8093 66.1139 90.7541 66.0897 90.6899C66.0654 90.6257 66.056 90.555 66.0624 90.485C66.0746 90.4047 66.1018 90.3288 66.142 90.2629C66.1822 90.197 66.2344 90.1428 66.2945 90.1044C66.3547 90.066 66.4214 90.0444 66.4896 90.0411C66.5577 90.0378 66.6256 90.053 66.6882 90.0855C66.7217 90.1037 66.7531 90.127 66.7817 90.1548C70.3805 93.6594 73.682 97.5793 76.6383 101.857C79.5953 106.132 82.199 110.738 84.4128 115.613C85.0163 116.945 85.5894 118.295 86.132 119.663C86.239 119.935 86.3459 120.209 86.4505 120.483C86.8959 121.639 87.3198 122.805 87.7221 123.982C87.7289 124.001 87.7355 124.022 87.7423 124.041C87.7627 124.091 87.774 124.146 87.7753 124.202C87.7766 124.258 87.7679 124.314 87.7498 124.365C87.7316 124.417 87.7045 124.464 87.6701 124.502C87.6358 124.54 87.5951 124.569 87.5506 124.587Z" fill="#EDF2F4"/>
<path d="M58.014 89.4678C62.8108 89.4678 66.6993 84.8184 66.6993 79.0831C66.6993 73.3479 62.8108 68.6985 58.014 68.6985C53.2173 68.6985 49.3287 73.3479 49.3287 79.0831C49.3287 84.8184 53.2173 89.4678 58.014 89.4678Z" fill="#EDF2F4"/>
<path d="M57.1531 83.0446C56.9577 83.0451 56.7675 82.9695 56.6111 82.8294L56.6014 82.8207L54.5603 80.9522C54.4657 80.8656 54.3864 80.7576 54.3267 80.6343C54.267 80.511 54.2282 80.3749 54.2126 80.2337C54.1969 80.0925 54.2047 79.9491 54.2354 79.8114C54.2662 79.6738 54.3193 79.5448 54.3917 79.4318C54.4642 79.3187 54.5545 79.2238 54.6577 79.1525C54.7608 79.0813 54.8746 79.035 54.9927 79.0163C55.1108 78.9976 55.2308 79.007 55.3459 79.0438C55.461 79.0806 55.5689 79.1442 55.6634 79.2309L56.9855 80.443L60.1097 75.5712C60.1822 75.4582 60.2726 75.3634 60.3757 75.2922C60.4788 75.2209 60.5926 75.1747 60.7107 75.1561C60.8287 75.1374 60.9487 75.1468 61.0637 75.1836C61.1788 75.2204 61.2866 75.2839 61.3811 75.3706L61.3617 75.4021L61.3816 75.371C61.5722 75.5462 61.697 75.8046 61.7284 76.0896C61.7599 76.3746 61.6955 76.6629 61.5495 76.8912L57.8746 82.6215C57.7896 82.7535 57.6803 82.8604 57.5552 82.9338C57.4301 83.0072 57.2925 83.0451 57.1531 83.0446Z" fill="#EDF2F4"/>
<path d="M188.735 125H0.265131C0.194938 125 0.127691 124.966 0.0781283 124.907C0.028566 124.847 0.000732422 124.767 0.000732422 124.683C0.000732422 124.599 0.028566 124.519 0.0781283 124.459C0.127691 124.4 0.194938 124.366 0.265131 124.366H188.735C188.805 124.366 188.872 124.4 188.922 124.459C188.971 124.519 188.999 124.599 188.999 124.683C188.999 124.767 188.971 124.847 188.922 124.907C188.872 124.966 188.805 125 188.735 125Z" fill="#3F3D56"/>
<path d="M36.867 36.1984C40.4265 36.1984 43.312 32.7484 43.312 28.4925C43.312 24.2366 40.4265 20.7866 36.867 20.7866C33.3076 20.7866 30.4221 24.2366 30.4221 28.4925C30.4221 32.7484 33.3076 36.1984 36.867 36.1984Z" fill="#2F2E41"/>
<path d="M31.8365 24.3377C32.8779 23.0924 33.089 21.3258 32.3079 20.3919C31.5268 19.458 30.0493 19.7103 29.0078 20.9556C27.9663 22.2008 27.7553 23.9674 28.5364 24.9013C29.3175 25.8353 30.795 25.5829 31.8365 24.3377Z" fill="#2F2E41"/>
<path d="M43.5844 21.8906C44.0183 20.6759 43.272 19.1305 41.9176 18.4387C40.5631 17.7469 39.1133 18.1708 38.6794 19.3854C38.2455 20.6 38.9917 22.1454 40.3462 22.8372C41.7006 23.529 43.1504 23.1052 43.5844 21.8906Z" fill="#2F2E41"/>
<path d="M54.8135 72.982C54.9764 72.6119 55.0694 72.2037 55.086 71.7859C55.1026 71.3682 55.0424 70.9512 54.9096 70.5644C54.7768 70.1775 54.5747 69.8301 54.3175 69.5467C54.0604 69.2633 53.7543 69.0508 53.421 68.9241L44.1085 45.3698L39.8488 48.9413L50.3421 70.9714C50.2012 71.655 50.2749 72.3767 50.5493 72.9996C50.8237 73.6226 51.2797 74.1035 51.8309 74.3514C52.382 74.5992 52.9901 74.5967 53.5398 74.3443C54.0895 74.092 54.5427 73.6072 54.8135 72.982Z" fill="#FFB8B8"/>
<path d="M46.2442 49.2995L41.2983 51.9438C41.1576 52.0191 41.005 52.0571 40.8508 52.0555C40.6967 52.0538 40.5446 52.0125 40.4051 51.9342C40.2655 51.856 40.1417 51.7427 40.042 51.6021C39.9424 51.4615 39.8692 51.2968 39.8276 51.1194L38.3691 44.901C38.0512 44.038 38.0326 43.0595 38.3172 42.18C38.6019 41.3006 39.1665 40.592 39.8875 40.2096C40.6084 39.8271 41.4267 39.8021 42.163 40.14C42.8994 40.4779 43.4936 41.1511 43.8154 42.012L46.7108 47.4392C46.7937 47.5946 46.8475 47.7696 46.8688 47.9521C46.89 48.1347 46.878 48.3206 46.8337 48.4971C46.7895 48.6736 46.7139 48.8367 46.6121 48.9752C46.5104 49.1136 46.3849 49.2243 46.2442 49.2995Z" fill="#CCCCCC"/>
<path d="M23.4023 75.3173C23.7429 75.2227 24.0621 75.0399 24.3374 74.7818C24.6126 74.5238 24.8371 74.1967 24.9952 73.8237C25.1533 73.4506 25.241 73.0407 25.2522 72.6227C25.2634 72.2048 25.1979 71.7889 25.0602 71.4045L33.8796 47.5805L28.8344 46.0612L21.7516 69.9571C21.2269 70.2766 20.8184 70.8151 20.6035 71.4706C20.3886 72.1261 20.3823 72.8531 20.5858 73.5138C20.7892 74.1745 21.1883 74.723 21.7074 75.0554C22.2265 75.3878 22.8295 75.481 23.4023 75.3173Z" fill="#FFB8B8"/>
<path d="M20.9982 118.5L23.5637 119.617L28.3876 108.317L24.601 106.669L20.9982 118.5Z" fill="#FFB8B8"/>
<path d="M27.644 124.619L19.5811 121.109L20.7153 117.385L25.6631 119.539C26.4893 119.898 27.1621 120.636 27.5337 121.588C27.9052 122.541 27.9449 123.632 27.644 124.619Z" fill="#2F2E41"/>
<path d="M27.0665 111.997C26.909 111.998 26.7536 111.956 26.6113 111.875L23.6629 110.205C23.4212 110.07 23.2307 109.831 23.129 109.536C23.0272 109.241 23.0216 108.91 23.1132 108.611L31.4341 81.0598C31.503 80.8316 31.6246 80.6315 31.7848 80.4827C31.945 80.3338 32.1373 80.2424 32.3392 80.2189C32.5412 80.1954 32.7445 80.2409 32.9257 80.3501C33.1069 80.4593 33.2585 80.6277 33.3628 80.8357L37.7639 89.606C37.8618 89.8014 37.9145 90.0244 37.9165 90.2522C37.9186 90.48 37.8699 90.7044 37.7755 90.9022L28.0018 111.353C27.9071 111.549 27.7708 111.712 27.6065 111.825C27.4423 111.938 27.256 111.998 27.0665 111.997Z" fill="#2F2E41"/>
<path d="M37.0714 36.872C40.0923 36.872 42.5412 33.944 42.5412 30.3321C42.5412 26.7202 40.0923 23.7921 37.0714 23.7921C34.0506 23.7921 31.6017 26.7202 31.6017 30.3321C31.6017 33.944 34.0506 36.872 37.0714 36.872Z" fill="#FFB8B8"/>
<path d="M44.8097 60.0667L35.1249 56.8822L29.9739 44.5648C29.7265 43.973 29.6096 43.3155 29.6345 42.6545C29.6594 41.9936 29.8251 41.3513 30.116 40.7885C30.4069 40.2257 30.8133 39.7612 31.2966 39.4391C31.7799 39.1169 32.3241 38.9478 32.8774 38.9478H40.5827C41.3825 38.9472 42.1542 39.3001 42.7496 39.9387C44.8165 42.1526 49.1591 48.5353 44.8516 59.9554L44.8097 60.0667Z" fill="#CCCCCC"/>
<path d="M32.6858 51.8413L27.7789 49.0951C27.6393 49.0169 27.5154 48.9037 27.4157 48.7632C27.316 48.6226 27.2428 48.458 27.2011 48.2806C27.1593 48.1032 27.1501 47.9171 27.1739 47.735C27.1978 47.5529 27.2542 47.3791 27.3393 47.2254L30.3213 41.8406C30.6598 40.9889 31.2669 40.3324 32.0095 40.015C32.7522 39.6977 33.5698 39.7453 34.2831 40.1476C34.9964 40.5499 35.5472 41.2739 35.8147 42.1609C36.0822 43.048 36.0447 44.0257 35.7102 44.8797L34.1682 51.0474C34.124 51.2239 34.0485 51.3871 33.9469 51.5256C33.8452 51.6641 33.7197 51.7748 33.579 51.8502C33.4384 51.9255 33.2857 51.9637 33.1316 51.9622C32.9775 51.9607 32.8254 51.9194 32.6858 51.8413Z" fill="#CCCCCC"/>
<path d="M38.6224 121.588H41.3524L42.6515 108.997L38.6217 108.997L38.6224 121.588Z" fill="#FFB8B8"/>
<path d="M46.6182 124.619L38.0374 124.619L38.0372 120.656L43.3027 120.655C44.182 120.655 45.0253 121.073 45.647 121.816C46.2688 122.559 46.6181 123.568 46.6182 124.619Z" fill="#2F2E41"/>
<path d="M39.6533 116.79C39.4078 116.79 39.1697 116.69 38.9791 116.505C38.7886 116.32 38.6572 116.062 38.6071 115.774C37.8223 111.353 33.7464 88.7072 30.5651 77.0425C27.3284 65.1745 32.8408 59.7689 33.9787 58.8058C34.0998 58.7035 34.1961 58.5645 34.2577 58.4031L35.0844 56.2287C35.1701 56.0042 35.3079 55.8139 35.4816 55.6804C35.6552 55.547 35.8572 55.476 36.0636 55.476H36.0703C42.2677 55.5203 44.3512 57.8561 44.9592 58.8584C45.0489 59.0077 45.1104 59.1785 45.1394 59.3591C45.1684 59.5396 45.1642 59.7255 45.1271 59.9039L41.2058 79.2472C41.1815 79.3672 41.176 79.4914 41.1896 79.6138L45.0909 114.735C45.1097 114.904 45.1001 115.076 45.0628 115.24C45.0255 115.404 44.9612 115.558 44.8737 115.692C44.7862 115.827 44.6771 115.939 44.553 116.022C44.4288 116.106 44.292 116.159 44.1505 116.178L39.7792 116.781C39.7374 116.787 39.6954 116.79 39.6533 116.79Z" fill="#2F2E41"/>
<path d="M31.3241 26.2185C32.574 27.2485 34.0576 27.7967 35.5756 27.7895C35.0341 28.2384 34.4176 28.5416 33.7687 28.6783C35.787 29.1959 37.873 29.2099 39.8961 28.7194C40.3457 28.6332 40.7797 28.455 41.1788 28.1927C41.3776 28.0599 41.5509 27.8785 41.6873 27.6604C41.8237 27.4423 41.9202 27.1923 41.9705 26.9266C42.1049 26.0084 41.5065 25.1741 40.8846 24.6119C39.9325 23.7642 38.8346 23.1802 37.6705 22.902C36.5064 22.6239 35.3051 22.6586 34.1536 23.0037C33.4017 23.2361 32.6485 23.6287 32.1601 24.3507C31.6717 25.0727 31.5271 26.1857 31.9924 26.9292L31.3241 26.2185Z" fill="#2F2E41"/>
<path d="M131.728 54.586C133.327 54.586 134.623 53.0362 134.623 51.1245C134.623 49.2127 133.327 47.6629 131.728 47.6629C130.129 47.6629 128.833 49.2127 128.833 51.1245C128.833 53.0362 130.129 54.586 131.728 54.586Z" fill="#EDF2F4"/>
<path d="M131.441 52.445C131.376 52.4451 131.312 52.4199 131.26 52.3732L131.257 52.3703L130.577 51.7475C130.545 51.7186 130.518 51.6827 130.498 51.6415C130.478 51.6004 130.465 51.555 130.46 51.5079C130.455 51.4608 130.457 51.4129 130.468 51.367C130.478 51.321 130.496 51.278 130.52 51.2402C130.544 51.2025 130.574 51.1708 130.609 51.1471C130.643 51.1233 130.681 51.1079 130.72 51.1017C130.76 51.0955 130.8 51.0987 130.838 51.111C130.877 51.1234 130.913 51.1447 130.944 51.1737L131.385 51.5777L132.426 49.9538C132.45 49.9162 132.481 49.8845 132.515 49.8608C132.549 49.8371 132.587 49.8216 132.627 49.8154C132.666 49.8092 132.706 49.8123 132.744 49.8246C132.783 49.8369 132.819 49.8581 132.85 49.8869C132.914 49.9453 132.955 50.0316 132.966 50.1266C132.976 50.2216 132.955 50.3177 132.906 50.3938L131.681 52.3039C131.653 52.3479 131.617 52.3835 131.575 52.408C131.533 52.4325 131.487 52.4451 131.441 52.445Z" fill="#EDF2F4"/>
<path d="M131.728 64.7044C133.327 64.7044 134.623 63.1546 134.623 61.2428C134.623 59.3311 133.327 57.7813 131.728 57.7813C130.129 57.7813 128.833 59.3311 128.833 61.2428C128.833 63.1546 130.129 64.7044 131.728 64.7044Z" fill="#EDF2F4"/>
<path d="M131.441 62.5633C131.376 62.5635 131.312 62.5383 131.26 62.4916L131.257 62.4887L130.577 61.8658C130.545 61.837 130.518 61.801 130.498 61.7599C130.478 61.7188 130.465 61.6734 130.46 61.6263C130.455 61.5792 130.457 61.5313 130.468 61.4853C130.478 61.4394 130.496 61.3963 130.52 61.3586C130.544 61.3209 130.574 61.2892 130.609 61.2654C130.643 61.2417 130.681 61.2262 130.72 61.2201C130.76 61.2139 130.8 61.2171 130.838 61.2294C130.877 61.2418 130.913 61.2631 130.944 61.2921L131.385 61.6961L132.426 60.0722C132.45 60.0345 132.481 60.0029 132.515 59.9792C132.549 59.9554 132.587 59.94 132.627 59.9338C132.666 59.9276 132.706 59.9307 132.744 59.943C132.783 59.9552 132.819 59.9764 132.85 60.0053C132.914 60.0637 132.955 60.15 132.966 60.245C132.976 60.34 132.955 60.4361 132.906 60.5122L131.681 62.4223C131.653 62.4663 131.617 62.5019 131.575 62.5264C131.533 62.5508 131.487 62.5635 131.441 62.5633Z" fill="#EDF2F4"/>
<path d="M133.287 76.4204C134.885 76.4204 136.182 74.8706 136.182 72.9589C136.182 71.0471 134.885 69.4973 133.287 69.4973C131.688 69.4973 130.391 71.0471 130.391 72.9589C130.391 74.8706 131.688 76.4204 133.287 76.4204Z" fill="#EDF2F4"/>
<path d="M133 74.2794C132.935 74.2795 132.871 74.2543 132.819 74.2076L132.816 74.2047L132.135 73.5819C132.104 73.5531 132.077 73.5171 132.057 73.476C132.037 73.4348 132.024 73.3894 132.019 73.3423C132.014 73.2952 132.016 73.2473 132.027 73.2014C132.037 73.1554 132.055 73.1124 132.079 73.0746C132.103 73.0369 132.133 73.0052 132.167 72.9815C132.202 72.9577 132.24 72.9423 132.279 72.9361C132.319 72.9299 132.359 72.9331 132.397 72.9454C132.436 72.9578 132.472 72.9791 132.503 73.0081L132.944 73.4121L133.985 71.7882C134.009 71.7506 134.039 71.719 134.074 71.6952C134.108 71.6715 134.146 71.656 134.185 71.6498C134.225 71.6436 134.265 71.6467 134.303 71.659C134.342 71.6713 134.377 71.6925 134.409 71.7213C134.473 71.7797 134.514 71.866 134.525 71.961C134.535 72.056 134.514 72.1521 134.465 72.2282L133.24 74.1383C133.212 74.1823 133.175 74.2179 133.134 74.2424C133.092 74.2669 133.046 74.2795 133 74.2794Z" fill="#EDF2F4"/>
<path d="M161.203 101.86C161.173 101.86 161.155 101.859 161.148 101.859L157.554 101.859V101.225H161.161C161.244 101.229 162.948 101.287 164.518 99.0087C166.858 95.614 168.779 87.2103 164.646 66.4531C159.088 38.5422 163.724 13.8845 165.975 4.57865C166.085 4.11826 166.105 3.63333 166.033 3.16219C165.96 2.69105 165.796 2.2466 165.555 1.86397C165.314 1.48133 165.002 1.17099 164.643 0.957465C164.284 0.743942 163.889 0.633087 163.488 0.633656H109.81C109.402 0.63431 109 0.750005 108.636 0.971353C108.272 1.1927 107.957 1.51347 107.717 1.90761C106.763 3.47596 105.455 6.48888 104.636 11.9368L104.114 11.8248C104.951 6.25854 106.302 3.15696 107.288 1.53509C107.578 1.06016 107.957 0.673651 108.395 0.406928C108.834 0.140205 109.318 0.000788863 109.81 1.72455e-06H163.488C163.971 -0.0005539 164.448 0.133158 164.88 0.390574C165.312 0.647991 165.688 1.02206 165.979 1.48322C166.269 1.94439 166.466 2.48001 166.554 3.04778C166.641 3.61556 166.617 4.19992 166.484 4.7547C164.244 14.0122 159.633 38.542 165.162 66.3065C169.353 87.3555 167.338 95.9413 164.91 99.4374C163.308 101.743 161.543 101.86 161.203 101.86Z" fill="#E6E6E6"/>
<path d="M151.532 113.424C151.502 113.424 151.483 113.423 151.476 113.423L147.882 113.423V112.79H151.489C151.573 112.793 153.277 112.851 154.847 110.573C157.186 107.178 159.108 98.7744 154.974 78.0172C149.416 50.1063 154.052 25.4485 156.303 16.1427C156.414 15.6823 156.434 15.1974 156.361 14.7263C156.288 14.2551 156.125 13.8107 155.883 13.4281C155.642 13.0454 155.33 12.7351 154.971 12.5216C154.613 12.308 154.217 12.1972 153.817 12.1977H100.138C99.7301 12.1984 99.3279 12.3141 98.9642 12.5354C98.6005 12.7568 98.2856 13.0776 98.045 13.4717C97.0914 15.04 95.7828 18.053 94.964 23.5009L94.4424 23.3889C95.279 17.8226 96.6302 14.721 97.6163 13.0992C97.9062 12.6242 98.2856 12.2377 98.7238 11.971C99.1619 11.7043 99.6466 11.5649 100.138 11.5641H153.817C154.299 11.5635 154.776 11.6972 155.208 11.9547C155.64 12.2121 156.017 12.5861 156.307 13.0473C156.598 13.5085 156.794 14.0441 156.882 14.6119C156.97 15.1797 156.946 15.764 156.812 16.3188C154.573 25.5763 149.961 50.1061 155.49 77.8706C159.681 98.9196 157.666 107.505 155.238 111.001C153.636 113.307 151.871 113.424 151.532 113.424Z" fill="#CCCCCC"/>
<path d="M145.818 89.4358C140.288 61.6715 144.9 37.1398 147.141 27.8841C147.274 27.3293 147.298 26.745 147.21 26.1774C147.122 25.6097 146.926 25.0742 146.635 24.6131C146.345 24.1519 145.969 23.7778 145.536 23.5202C145.104 23.2625 144.628 23.1284 144.145 23.1285H90.4659C89.9744 23.1291 89.49 23.2682 89.0519 23.5347C88.6139 23.8012 88.2346 24.1875 87.9449 24.6622C85.778 28.225 81.2817 40.0395 86.3036 72.7299C88.9893 90.2187 88.9493 102.142 88.0719 109.997C87.5796 114.42 86.8203 117.552 86.132 119.663L86.0586 119.887C85.9137 120.314 85.8381 120.77 85.8359 121.232C85.8309 121.752 85.9182 122.268 86.092 122.745C86.2659 123.223 86.5225 123.651 86.8447 124.001C87.0549 124.236 87.2927 124.434 87.5507 124.587C87.7648 124.717 87.9914 124.816 88.2255 124.882C88.4639 124.952 88.7084 124.987 88.9537 124.986H141.805C141.812 124.986 141.829 124.989 141.861 124.989C142.199 124.989 143.965 124.871 145.566 122.566C147.994 119.069 150.009 110.485 145.818 89.4358ZM145.174 122.137C143.604 124.416 141.901 124.358 141.818 124.355H88.9537C88.5305 124.355 88.1137 124.231 87.7399 123.993C87.366 123.756 87.0464 123.413 86.8091 122.994C86.6003 122.632 86.46 122.22 86.3981 121.786C86.3362 121.352 86.3541 120.908 86.4505 120.483C86.4758 120.36 86.5085 120.239 86.5485 120.121C87.3346 117.706 87.9172 115.203 88.2878 112.65C89.5439 104.462 89.7777 91.827 86.8247 72.6154C81.8407 40.1673 86.248 28.5312 88.3724 25.035C88.6135 24.6414 88.9285 24.3212 89.2922 24.1001C89.6558 23.879 90.0579 23.7632 90.4659 23.7622H144.145C144.546 23.7619 144.941 23.8728 145.299 24.0864C145.658 24.2999 145.97 24.6101 146.211 24.9925C146.452 25.3749 146.615 25.8191 146.688 26.29C146.761 26.7608 146.741 27.2455 146.631 27.7057C144.379 37.012 139.745 61.6715 145.303 89.5823C149.437 110.338 147.515 118.742 145.174 122.137Z" fill="#3F3D56"/>
<path d="M120.316 53.3612H92.6602C92.098 53.3612 91.5588 53.0942 91.1613 52.6189C90.7637 52.1436 90.5404 51.4989 90.5404 50.8267C90.5404 50.1544 90.7637 49.5098 91.1613 49.0344C91.5588 48.5591 92.098 48.2921 92.6602 48.2921H120.316C120.879 48.2921 121.418 48.5591 121.815 49.0344C122.213 49.5098 122.436 50.1544 122.436 50.8267C122.436 51.4989 122.213 52.1436 121.815 52.6189C121.418 53.0942 120.879 53.3612 120.316 53.3612Z" fill="#CCCCCC"/>
<path d="M120.316 64.2784H92.6602C92.098 64.2784 91.5588 64.0114 91.1613 63.5361C90.7637 63.0607 90.5404 62.416 90.5404 61.7438C90.5404 61.0716 90.7637 60.4269 91.1613 59.9516C91.5588 59.4763 92.098 59.2092 92.6602 59.2092H120.316C120.879 59.2092 121.418 59.4763 121.815 59.9516C122.213 60.4269 122.436 61.0716 122.436 61.7438C122.436 62.416 122.213 63.0607 121.815 63.5361C121.418 64.0114 120.879 64.2784 120.316 64.2784Z" fill="#CCCCCC"/>
<path d="M122.544 75.4619H94.8873C94.3251 75.4619 93.7859 75.1949 93.3883 74.7196C92.9908 74.2442 92.7675 73.5995 92.7675 72.9273C92.7675 72.2551 92.9908 71.6104 93.3883 71.1351C93.7859 70.6598 94.3251 70.3927 94.8873 70.3927H122.544C123.106 70.3927 123.645 70.6598 124.042 71.1351C124.44 71.6104 124.663 72.2551 124.663 72.9273C124.663 73.5995 124.44 74.2442 124.042 74.7196C123.645 75.1949 123.106 75.4619 122.544 75.4619Z" fill="#CCCCCC"/>
<path d="M124.102 87.1779H96.4461C95.8839 87.1779 95.3447 86.9109 94.9472 86.4356C94.5496 85.9602 94.3263 85.3156 94.3263 84.6433C94.3263 83.9711 94.5496 83.3264 94.9472 82.8511C95.3447 82.3758 95.8839 82.1087 96.4461 82.1087H124.102C124.665 82.1087 125.204 82.3758 125.601 82.8511C125.999 83.3264 126.222 83.9711 126.222 84.6433C126.222 85.3156 125.999 85.9602 125.601 86.4356C125.204 86.9109 124.665 87.1779 124.102 87.1779Z" fill="#CCCCCC"/>
<path d="M124.114 33.6811H104.241C103.962 33.6814 103.686 33.6161 103.429 33.4889C103.171 33.3616 102.937 33.175 102.74 32.9396C102.543 32.7042 102.387 32.4247 102.28 32.117C102.174 31.8093 102.119 31.4795 102.119 31.1464C102.119 30.8134 102.174 30.4836 102.28 30.1759C102.387 29.8682 102.543 29.5887 102.74 29.3533C102.937 29.1179 103.171 28.9313 103.429 28.804C103.686 28.6768 103.962 28.6115 104.241 28.6118H124.114C124.676 28.6118 125.216 28.8789 125.613 29.3542C126.011 29.8295 126.234 30.4742 126.234 31.1464C126.234 31.8187 126.011 32.4634 125.613 32.9387C125.216 33.414 124.676 33.6811 124.114 33.6811Z" fill="#EDF2F4"/>
<path d="M135.068 88.1049C136.667 88.1049 137.963 86.5551 137.963 84.6433C137.963 82.7316 136.667 81.1818 135.068 81.1818C133.469 81.1818 132.173 82.7316 132.173 84.6433C132.173 86.5551 133.469 88.1049 135.068 88.1049Z" fill="#CCCCCC"/>
<path d="M125.439 98.6277H97.7823C97.2201 98.6277 96.6809 98.3606 96.2834 97.8853C95.8858 97.41 95.6625 96.7653 95.6625 96.0931C95.6625 95.4209 95.8858 94.7762 96.2834 94.3008C96.6809 93.8255 97.2201 93.5585 97.7823 93.5585H125.439C126.001 93.5585 126.54 93.8255 126.937 94.3008C127.335 94.7762 127.558 95.4209 127.558 96.0931C127.558 96.7653 127.335 97.41 126.937 97.8853C126.54 98.3606 126.001 98.6277 125.439 98.6277Z" fill="#CCCCCC"/>
<path d="M136.404 99.5546C138.003 99.5546 139.299 98.0048 139.299 96.0931C139.299 94.1813 138.003 92.6315 136.404 92.6315C134.805 92.6315 133.509 94.1813 133.509 96.0931C133.509 98.0048 134.805 99.5546 136.404 99.5546Z" fill="#CCCCCC"/>
</g>
<defs>
<clipPath id="clip0_125_674">
<rect width="189" height="125" fill="white"/>
</clipPath>
</defs>
</svg>
