<svg width="263" height="175" viewBox="0 0 263 175" fill="none" xmlns="http://www.w3.org/2000/svg">
<g clip-path="url(#clip0_125_1308)">
<path d="M94.3382 100.714C103.351 84.8393 120.544 72.6501 138.744 73.8243C125.319 88.4413 117.491 107.342 116.644 127.181C116.345 134.834 116.809 143.376 111.734 149.106C108.576 152.672 103.75 154.399 99.0046 154.761C94.259 155.123 89.5145 154.265 84.8324 153.41L83.6966 153.759C83.2642 135.503 85.3251 116.589 94.3382 100.714Z" fill="#F0F0F0"/>
<path d="M138.771 74.2066C125.312 80.6936 113.836 91.5277 106.792 104.741C105.269 107.597 103.972 110.628 103.406 113.832C102.84 117.038 103.236 120.089 104.329 123.134C105.329 125.917 106.673 128.649 106.98 131.627C107.303 134.766 106.149 137.701 104.073 140.031C101.532 142.881 98.1199 144.648 94.7231 146.259C90.9517 148.048 87.006 149.846 84.3348 153.185C84.0111 153.589 83.4031 153.063 83.7263 152.659C88.3738 146.85 96.3292 145.758 101.846 141.079C104.42 138.895 106.353 135.922 106.231 132.438C106.124 129.391 104.74 126.574 103.703 123.764C102.615 120.814 102.072 117.848 102.462 114.703C102.862 111.485 104.043 108.398 105.486 105.515C108.742 99.0126 113.196 93.0432 118.3 87.8831C124.165 81.9517 131.001 77.0686 138.51 73.445C138.975 73.221 139.233 73.984 138.771 74.2066Z" fill="#EDF2F4"/>
<path d="M108.855 100.325C106.792 98.8142 105.332 96.6186 104.737 94.1299C104.141 91.6412 104.448 89.0216 105.604 86.7388C105.839 86.2777 106.566 86.6222 106.33 87.0839C105.25 89.2077 104.964 91.6479 105.524 93.9642C106.083 96.2805 107.451 98.3203 109.381 99.7155C109.799 100.019 109.272 100.627 108.855 100.325Z" fill="#EDF2F4"/>
<path d="M103.637 121.789C108.807 121.033 113.502 118.353 116.786 114.285C117.111 113.881 117.719 114.408 117.395 114.811C113.969 119.038 109.077 121.817 103.695 122.592C103.182 122.666 103.126 121.863 103.637 121.789Z" fill="#EDF2F4"/>
<path d="M124.562 82.9419C125.239 83.6929 126.091 84.2639 127.043 84.6036C127.994 84.9432 129.015 85.0409 130.014 84.8879C130.526 84.8079 130.581 85.6111 130.073 85.6906C128.969 85.8545 127.841 85.7452 126.789 85.3723C125.737 84.9993 124.792 84.3741 124.037 83.5512C123.959 83.4796 123.912 83.381 123.904 83.2756C123.896 83.1702 123.929 83.0658 123.995 82.9836C124.065 82.9033 124.164 82.8539 124.27 82.8461C124.376 82.8383 124.481 82.8727 124.562 82.9419Z" fill="#EDF2F4"/>
<path d="M174.956 123.903C174.638 123.962 174.319 124.022 173.998 124.087C169.725 124.903 165.525 126.065 161.439 127.563C161.121 127.674 160.801 127.791 160.487 127.91C150.683 131.623 141.652 137.125 133.854 144.138C130.753 146.932 127.87 149.958 125.228 153.189C121.579 157.652 117.978 162.782 113.21 165.692C112.716 166.002 112.204 166.28 111.675 166.526L84.21 155.119C84.1606 155.062 84.1083 155.011 84.0586 154.953L82.9412 154.548C83.0658 154.372 83.1989 154.192 83.3235 154.016C83.3954 153.913 83.4733 153.813 83.5452 153.711C83.5951 153.643 83.6453 153.576 83.6864 153.512C83.7029 153.489 83.7197 153.467 83.7336 153.451C83.7748 153.387 83.8197 153.332 83.8583 153.274C84.5992 152.266 85.3485 151.261 86.1061 150.259C86.1087 150.253 86.1088 150.253 86.1175 150.249C91.91 142.632 98.3885 135.432 105.752 129.445C105.974 129.265 106.198 129.079 106.432 128.904C109.766 126.224 113.314 123.821 117.039 121.72C119.083 120.576 121.183 119.536 123.331 118.605C128.887 116.209 134.785 114.703 140.809 114.142C152.817 113.025 165.048 115.766 174.258 123.319C174.493 123.513 174.723 123.704 174.956 123.903Z" fill="#F0F0F0"/>
<path d="M174.749 124.227C160.103 121.293 144.425 123.026 130.855 129.329C127.921 130.692 125.064 132.33 122.685 134.547C120.306 136.765 118.787 139.44 117.829 142.53C116.953 145.355 116.384 148.347 114.838 150.91C113.209 153.611 110.522 155.259 107.464 155.867C103.721 156.612 99.9344 155.965 96.2535 155.204C92.1665 154.358 87.9348 153.416 83.7943 154.471C83.2926 154.599 83.1238 153.812 83.6247 153.685C90.8284 151.848 97.8369 155.772 105.055 155.361C108.424 155.17 111.755 153.961 113.752 151.106C115.499 148.609 116.088 145.525 116.95 142.656C117.855 139.645 119.205 136.949 121.408 134.673C123.662 132.345 126.461 130.592 129.348 129.16C135.856 125.931 143.003 123.85 150.181 122.806C158.43 121.606 166.824 121.828 174.999 123.462C175.505 123.563 175.252 124.327 174.749 124.227Z" fill="#EDF2F4"/>
<path d="M135.158 127.047C134.419 124.597 134.574 121.964 135.595 119.618C136.616 117.272 138.436 115.366 140.731 114.239C141.196 114.013 141.569 114.726 141.104 114.953C138.965 115.998 137.269 117.774 136.323 119.96C135.376 122.147 135.242 124.6 135.944 126.877C136.096 127.372 135.309 127.539 135.158 127.047Z" fill="#EDF2F4"/>
<path d="M118.084 141.039C122.667 143.552 128.027 144.243 133.096 142.974C133.598 142.848 133.767 143.635 133.266 143.761C127.989 145.071 122.412 144.341 117.649 141.716C117.195 141.465 117.633 140.79 118.084 141.039Z" fill="#EDF2F4"/>
<path d="M158.152 122.636C158.241 123.644 158.578 124.614 159.133 125.459C159.689 126.303 160.445 126.997 161.335 127.477C161.791 127.721 161.353 128.396 160.899 128.153C159.919 127.618 159.084 126.851 158.469 125.919C157.853 124.987 157.474 123.919 157.366 122.806C157.347 122.702 157.369 122.595 157.426 122.506C157.483 122.417 157.572 122.354 157.674 122.328C157.778 122.306 157.887 122.326 157.976 122.384C158.066 122.442 158.129 122.532 158.152 122.636Z" fill="#EDF2F4"/>
<path d="M122.636 142.722C118.79 124.1 113.982 117.892 113.982 117.892L112.145 116.466L109.936 114.748L109.947 114.527L109.423 114.349L109.3 114.253L109.098 114.098L109.066 114.133L108.997 114.204L99.0018 110.802L86.3208 106.489L80.4487 98.847C79.4924 97.6023 78.2612 96.5964 76.8515 95.908C75.4419 95.2195 73.8922 94.8673 72.3238 94.8789L53.5702 95.0179C51.0345 95.0367 48.5976 96.0045 46.7384 97.7311L34.412 109.179L15.205 118.364L15.1726 118.331L14.9709 118.475L12.0033 119.896L12.1257 120.534L10.289 121.862C10.289 121.862 5.48092 127.638 1.63448 144.965C0.655987 149.374 0.174338 158.832 0.000488554 170.486C-0.00824389 171.075 0.100165 171.66 0.31941 172.208C0.538655 172.755 0.864362 173.253 1.27759 173.673C1.69083 174.093 2.18334 174.427 2.72649 174.655C3.26964 174.882 3.8526 175 4.44147 175H107.03L119.834 175C120.422 175 121.005 174.882 121.548 174.655C122.091 174.427 122.583 174.094 122.996 173.674C123.409 173.255 123.735 172.757 123.955 172.211C124.174 171.664 124.283 171.079 124.275 170.49C124.105 157.809 123.624 147.503 122.636 142.722Z" fill="#3F3D56"/>
<path d="M135.799 16.2393C131.808 16.2393 127.98 17.8268 125.158 20.6526C122.335 23.4783 120.75 27.3109 120.75 31.3072C120.75 35.3035 122.335 39.136 125.158 41.9618C127.98 44.7876 131.808 46.3751 135.799 46.3751H247.951C251.942 46.3751 255.77 44.7876 258.592 41.9618C261.414 39.136 263 35.3035 263 31.3072C263 27.3109 261.414 23.4783 258.592 20.6526C255.77 17.8268 251.942 16.2393 247.951 16.2393H135.799Z" fill="#E5E5E5"/>
<path d="M135.799 19.2888C132.615 19.2888 129.562 20.555 127.311 22.8089C125.06 25.0628 123.795 28.1198 123.795 31.3073C123.795 34.4948 125.06 37.5517 127.311 39.8056C129.562 42.0595 132.615 43.3258 135.799 43.3258H247.951C251.134 43.3258 254.188 42.0595 256.439 39.8056C258.69 37.5517 259.954 34.4948 259.954 31.3073C259.954 28.1198 258.69 25.0628 256.439 22.8089C254.188 20.555 251.134 19.2888 247.951 19.2888H135.799Z" fill="#EDF2F4"/>
<path d="M65.8921 87.8249C79.4612 87.8249 90.4612 76.8112 90.4612 63.2252C90.4612 49.6391 79.4612 38.6255 65.8921 38.6255C52.323 38.6255 41.3231 49.6391 41.3231 63.2252C41.3231 76.8112 52.323 87.8249 65.8921 87.8249Z" fill="#9E616A"/>
<path d="M59.6069 86.6204C59.5019 86.389 59.3972 86.1568 59.2928 85.9238C59.3331 85.9251 59.3729 85.9309 59.4131 85.932L59.6069 86.6204Z" fill="#2F2E41"/>
<path d="M40.6398 39.7442C41.8824 38.7517 43.3348 37.8385 44.9235 37.8898C46.5122 37.941 48.1233 39.3778 47.7942 40.9348C50.7124 35.7615 55.3573 31.7826 60.9135 29.6965C66.4698 27.6105 72.5823 27.5506 78.1783 29.5274C82.127 30.9222 85.9993 33.7128 86.9063 37.8057C87.1392 38.8563 87.1892 40.0083 87.8444 40.8615C88.6705 41.9372 90.251 42.1805 91.5525 41.8021C91.5655 41.7983 91.5785 41.7945 91.5915 41.7906C91.8113 41.7154 92.0487 41.7081 92.2728 41.7694C92.4969 41.8308 92.6974 41.958 92.8485 42.1347C92.9996 42.3115 93.0942 42.5295 93.1202 42.7607C93.1461 42.9918 93.1022 43.2255 92.9941 43.4314L91.8769 45.5177C93.2853 45.832 94.7487 45.8008 96.1424 45.4269C96.374 45.366 96.6186 45.3785 96.8428 45.4624C97.067 45.5463 97.2598 45.6976 97.3947 45.8956C97.5297 46.0935 97.6001 46.3285 97.5964 46.5681C97.5927 46.8077 97.515 47.0403 97.3741 47.234C93.69 52.2984 87.5352 55.5686 81.2542 55.5302C76.7902 55.503 72.2801 53.9625 67.9356 54.9904C66.2549 55.388 64.6843 56.1573 63.3393 57.242C61.9943 58.3266 60.9088 59.6989 60.1626 61.2584C59.4164 62.8178 59.0283 64.5247 59.0269 66.2539C59.0254 67.9831 59.4107 69.6906 60.1543 71.2513C58.8196 69.7896 56.2396 70.1357 54.8743 71.5688C53.5091 73.0019 53.1557 75.1409 53.2933 77.1167C53.5036 80.1384 54.6861 82.9858 55.9326 85.7571C45.4813 85.4276 35.596 78.087 32.2686 68.1586C28.9272 58.1886 32.4291 46.3023 40.6398 39.7442Z" fill="#2F2E41"/>
<path opacity="0.2" d="M24.1823 137.1L31.0733 174.639L35.2081 175L24.1823 137.1Z" fill="black"/>
<path opacity="0.2" d="M100.089 134.269L93.1975 174.612L89.0627 175L100.089 134.269Z" fill="black"/>
<path d="M46.5174 27.1103C45.1962 27.6627 43.8175 27.0573 43.2393 25.6709C42.6523 24.2633 43.2005 22.8344 44.543 22.2732C45.8855 21.7119 47.2397 22.3187 47.8362 23.749C48.4237 25.1579 47.8814 26.5401 46.5174 27.1103ZM43.9865 19.5025L42.9359 19.9418C42.6734 20.0502 42.3799 20.056 42.1134 19.9581C41.8468 19.8603 41.6267 19.6658 41.4965 19.4132L41.4445 19.3114C40.3142 17.2703 40.1847 14.7895 41.0619 11.942C41.8745 9.38762 42.212 7.59114 41.5332 5.96362C40.7485 4.08191 39.0727 3.49246 36.9358 4.34634C36.107 4.69286 35.8432 4.68734 35.191 5.33517C35.0491 5.4778 34.88 5.59037 34.6937 5.66615C34.5075 5.74194 34.3079 5.77939 34.1068 5.77628C33.9125 5.77399 33.7206 5.73254 33.5426 5.6544C33.3646 5.57625 33.2042 5.46302 33.0708 5.32145C32.8139 5.04863 32.67 4.68836 32.6681 4.31341C32.6662 3.93846 32.8065 3.57675 33.0606 3.30135C34.1569 2.1523 35.4792 1.24326 36.944 0.631588C41.5354 -1.28802 43.8468 1.546 44.9045 4.08218C45.939 6.56286 45.3571 8.86451 44.422 11.8454C43.6384 14.3223 43.6841 16.1577 44.5742 17.9826C44.6384 18.1205 44.6742 18.2701 44.6793 18.4222C44.6844 18.5744 44.6587 18.726 44.6038 18.868C44.5489 19.0099 44.466 19.1393 44.3599 19.2484C44.2538 19.3574 44.1267 19.4439 43.9865 19.5025Z" fill="#D9D9D9"/>
<path d="M160.572 38.4938H138.258C138.187 38.4943 138.117 38.4807 138.051 38.4539C137.985 38.427 137.926 38.3875 137.875 38.3375C137.825 38.2874 137.785 38.228 137.758 38.1624C137.731 38.0969 137.717 38.0266 137.717 37.9556C137.717 37.8846 137.731 37.8144 137.758 37.7488C137.785 37.6833 137.825 37.6238 137.875 37.5738C137.926 37.5238 137.985 37.4842 138.051 37.4574C138.117 37.4306 138.187 37.417 138.258 37.4175H160.572C160.714 37.4185 160.849 37.4756 160.949 37.5764C161.049 37.6772 161.106 37.8135 161.106 37.9556C161.106 38.0977 161.049 38.234 160.949 38.3349C160.849 38.4357 160.714 38.4928 160.572 38.4938Z" fill="#D9D9D9"/>
<path d="M188.879 38.673H166.564C166.494 38.6735 166.423 38.6599 166.358 38.6331C166.292 38.6062 166.232 38.5667 166.182 38.5167C166.132 38.4666 166.092 38.4072 166.065 38.3416C166.037 38.2761 166.023 38.2058 166.023 38.1348C166.023 38.0639 166.037 37.9936 166.065 37.928C166.092 37.8625 166.132 37.803 166.182 37.753C166.232 37.703 166.292 37.6634 166.358 37.6366C166.423 37.6098 166.494 37.5962 166.564 37.5967H188.879C188.949 37.5962 189.02 37.6098 189.085 37.6366C189.151 37.6634 189.211 37.703 189.261 37.753C189.311 37.803 189.351 37.8625 189.378 37.928C189.406 37.9936 189.42 38.0639 189.42 38.1348C189.42 38.2058 189.406 38.2761 189.378 38.3416C189.351 38.4072 189.311 38.4666 189.261 38.5167C189.211 38.5667 189.151 38.6062 189.085 38.6331C189.02 38.6599 188.949 38.6735 188.879 38.673Z" fill="#D9D9D9"/>
<path d="M217.185 38.8524H194.871C194.729 38.8514 194.594 38.7943 194.494 38.6935C194.394 38.5927 194.337 38.4564 194.337 38.3143C194.337 38.1722 194.394 38.0359 194.494 37.935C194.594 37.8342 194.729 37.7771 194.871 37.7761H217.185C217.256 37.7757 217.326 37.7892 217.392 37.816C217.458 37.8429 217.517 37.8824 217.568 37.9325C217.618 37.9825 217.658 38.042 217.685 38.1075C217.712 38.173 217.726 38.2433 217.726 38.3143C217.726 38.3853 217.712 38.4555 217.685 38.5211C217.658 38.5866 217.618 38.6461 217.568 38.6961C217.517 38.7461 217.458 38.7857 217.392 38.8125C217.326 38.8393 217.256 38.8529 217.185 38.8524Z" fill="#D9D9D9"/>
<path d="M245.492 39.0318H223.178C223.036 39.0309 222.9 38.9738 222.8 38.8729C222.7 38.7721 222.644 38.6358 222.644 38.4937C222.644 38.3516 222.7 38.2153 222.8 38.1145C222.9 38.0137 223.036 37.9565 223.178 37.9556H245.492C245.634 37.9565 245.77 38.0137 245.87 38.1145C245.97 38.2153 246.026 38.3516 246.026 38.4937C246.026 38.6358 245.97 38.7721 245.87 38.8729C245.77 38.9738 245.634 39.0309 245.492 39.0318Z" fill="#D9D9D9"/>
<path d="M149.366 33.5412C151.656 33.5412 153.513 31.6821 153.513 29.3887C153.513 27.0954 151.656 25.2363 149.366 25.2363C147.075 25.2363 145.219 27.0954 145.219 29.3887C145.219 31.6821 147.075 33.5412 149.366 33.5412Z" fill="#D9D9D9"/>
<path d="M177.843 33.5412C180.134 33.5412 181.991 31.6821 181.991 29.3887C181.991 27.0954 180.134 25.2363 177.843 25.2363C175.553 25.2363 173.696 27.0954 173.696 29.3887C173.696 31.6821 175.553 33.5412 177.843 33.5412Z" fill="#D9D9D9"/>
<path d="M206.321 33.5412C208.612 33.5412 210.468 31.6821 210.468 29.3887C210.468 27.0954 208.612 25.2363 206.321 25.2363C204.031 25.2363 202.174 27.0954 202.174 29.3887C202.174 31.6821 204.031 33.5412 206.321 33.5412Z" fill="#D9D9D9"/>
<path d="M234.799 33.5412C237.089 33.5412 238.946 31.6821 238.946 29.3887C238.946 27.0954 237.089 25.2363 234.799 25.2363C232.508 25.2363 230.652 27.0954 230.652 29.3887C230.652 31.6821 232.508 33.5412 234.799 33.5412Z" fill="#D9D9D9"/>
</g>
<defs>
<clipPath id="clip0_125_1308">
<rect width="263" height="175" fill="white"/>
</clipPath>
</defs>
</svg>
