<svg width="235" height="148" viewBox="0 0 235 148" fill="none" xmlns="http://www.w3.org/2000/svg">
<g clip-path="url(#clip0_11_257)">
<path d="M149.454 46.3029C149.897 41.5427 151.121 36.8874 153.078 32.5228C153.623 31.3082 154.223 30.1204 154.878 28.9592C154.911 28.8985 154.919 28.8274 154.9 28.761C154.881 28.6946 154.838 28.638 154.778 28.6031C154.718 28.5683 154.647 28.558 154.58 28.5744C154.513 28.5907 154.455 28.6325 154.418 28.6908C152.036 32.9199 150.367 37.5107 149.478 42.2795C149.231 43.6113 149.045 44.9524 148.921 46.3029C148.889 46.6436 149.422 46.6414 149.454 46.3029Z" fill="#E6E6E6"/>
<path d="M156.17 29.8121C158.035 29.8121 159.547 28.3041 159.547 26.4439C159.547 24.5838 158.035 23.0758 156.17 23.0758C154.304 23.0758 152.792 24.5838 152.792 26.4439C152.792 28.3041 154.304 29.8121 156.17 29.8121Z" fill="#E6E6E6"/>
<path d="M149.799 46.3924C150.087 43.3042 150.881 40.2841 152.15 37.4526C152.504 36.6646 152.893 35.894 153.318 35.1407C153.34 35.1013 153.345 35.0552 153.333 35.0121C153.321 34.969 153.292 34.9323 153.253 34.9097C153.215 34.8871 153.169 34.8804 153.125 34.891C153.081 34.9016 153.044 34.9287 153.02 34.9665C151.474 37.7102 150.392 40.6884 149.815 43.7822C149.655 44.6462 149.534 45.5162 149.453 46.3924C149.433 46.6133 149.779 46.612 149.799 46.3924Z" fill="#E6E6E6"/>
<path d="M154.156 35.694C155.367 35.694 156.348 34.7157 156.348 33.5089C156.348 32.3021 155.367 31.3239 154.156 31.3239C152.946 31.3239 151.965 32.3021 151.965 33.5089C151.965 34.7157 152.946 35.694 154.156 35.694Z" fill="#E6E6E6"/>
<path d="M149.363 46.1862C147.685 43.5748 146.448 40.7064 145.702 37.6954C145.495 36.8572 145.327 36.0108 145.197 35.1562C145.19 35.112 145.165 35.0725 145.129 35.046C145.093 35.0194 145.048 35.0079 145.004 35.0139C144.959 35.0198 144.919 35.0428 144.891 35.0779C144.863 35.113 144.85 35.1576 144.854 35.2021C145.328 38.3132 146.312 41.3255 147.765 44.1185C148.172 44.8981 148.613 45.658 149.09 46.3984C149.21 46.5852 149.482 46.3718 149.363 46.1862Z" fill="#E6E6E6"/>
<path d="M144.852 35.5407C146.062 35.5407 147.043 34.5624 147.043 33.3556C147.043 32.1488 146.062 31.1705 144.852 31.1705C143.641 31.1705 142.66 32.1488 142.66 33.3556C142.66 34.5624 143.641 35.5407 144.852 35.5407Z" fill="#E6E6E6"/>
<path d="M142.636 48.1194V43.8263C142.636 43.3994 142.806 42.9902 143.109 42.6884C143.412 42.3866 143.822 42.2168 144.25 42.2163H154.296C154.724 42.2168 155.134 42.3866 155.437 42.6884C155.74 42.9902 155.91 43.3994 155.911 43.8263V48.1194C155.91 48.5463 155.74 48.9555 155.437 49.2573C155.134 49.5591 154.724 49.7289 154.296 49.7294H144.25C143.822 49.7289 143.412 49.5591 143.109 49.2573C142.806 48.9555 142.636 48.5463 142.636 48.1194Z" fill="#F2F2F2"/>
<path d="M153.937 20.7504H149.632C149.204 20.7499 148.793 20.5801 148.491 20.2783C148.188 19.9765 148.018 19.5673 148.017 19.1404V1.60994C148.018 1.18311 148.188 0.773896 148.491 0.472078C148.793 0.170259 149.204 0.000481036 149.632 0H153.937C154.365 0.000481036 154.776 0.170259 155.078 0.472078C155.381 0.773896 155.551 1.18311 155.552 1.60994V19.1404C155.551 19.5673 155.381 19.9765 155.078 20.2783C154.776 20.5801 154.365 20.7499 153.937 20.7504Z" fill="#F2F2F2"/>
<path d="M155.372 3.3988H148.197V4.82986H155.372V3.3988Z" fill="#CCCCCC"/>
<path d="M155.372 14.4895H148.197V15.9206H155.372V14.4895Z" fill="#CCCCCC"/>
<path d="M164.701 20.7504H160.395C159.967 20.7499 159.557 20.5801 159.254 20.2783C158.951 19.9765 158.781 19.5673 158.781 19.1404V1.60994C158.781 1.18311 158.951 0.773896 159.254 0.472078C159.557 0.170259 159.967 0.000481036 160.395 0H164.701C165.129 0.000481036 165.539 0.170259 165.842 0.472078C166.144 0.773896 166.315 1.18311 166.315 1.60994V19.1404C166.315 19.5673 166.144 19.9765 165.842 20.2783C165.539 20.5801 165.129 20.7499 164.701 20.7504Z" fill="#F2F2F2"/>
<path d="M166.136 3.3988H158.96V4.82986H166.136V3.3988Z" fill="#CCCCCC"/>
<path d="M166.136 14.4895H158.96V15.9206H166.136V14.4895Z" fill="#CCCCCC"/>
<path d="M175.464 20.7504H171.159C170.731 20.7499 170.32 20.5801 170.017 20.2783C169.715 19.9765 169.545 19.5673 169.544 19.1404V1.60994C169.545 1.18311 169.715 0.773896 170.017 0.472078C170.32 0.170259 170.731 0.000481036 171.159 0H175.464C175.892 0.000481036 176.302 0.170259 176.605 0.472078C176.908 0.773896 177.078 1.18311 177.078 1.60994V19.1404C177.078 19.5673 176.908 19.9765 176.605 20.2783C176.302 20.5801 175.892 20.7499 175.464 20.7504Z" fill="#F2F2F2"/>
<path d="M176.899 3.3988H169.724V4.82986H176.899V3.3988Z" fill="#CCCCCC"/>
<path d="M176.899 14.4895H169.724V15.9206H176.899V14.4895Z" fill="#CCCCCC"/>
<path d="M181.204 49.7294H176.899C176.471 49.7289 176.061 49.5591 175.758 49.2573C175.455 48.9555 175.285 48.5463 175.285 48.1194V30.5889C175.285 30.1621 175.455 29.7529 175.758 29.4511C176.061 29.1493 176.471 28.9795 176.899 28.979H181.204C181.632 28.9795 182.043 29.1493 182.345 29.4511C182.648 29.7529 182.818 30.1621 182.819 30.5889V48.1194C182.818 48.5463 182.648 48.9555 182.345 49.2573C182.043 49.5591 181.632 49.7289 181.204 49.7294Z" fill="#F2F2F2"/>
<path d="M182.639 32.3777H175.464V33.8087H182.639V32.3777Z" fill="#CCCCCC"/>
<path d="M182.639 43.4684H175.464V44.8994H182.639V43.4684Z" fill="#CCCCCC"/>
<path d="M191.968 49.7294H187.662C187.234 49.7289 186.824 49.5591 186.521 49.2573C186.219 48.9555 186.048 48.5463 186.048 48.1194V30.5889C186.048 30.1621 186.219 29.7529 186.521 29.4511C186.824 29.1493 187.234 28.9795 187.662 28.979H191.968C192.396 28.9795 192.806 29.1493 193.109 29.4511C193.411 29.7529 193.582 30.1621 193.582 30.5889V48.1194C193.582 48.5463 193.411 48.9555 193.109 49.2573C192.806 49.5591 192.396 49.7289 191.968 49.7294Z" fill="#F2F2F2"/>
<path d="M193.403 32.3777H186.227V33.8087H193.403V32.3777Z" fill="#CCCCCC"/>
<path d="M193.403 43.4684H186.227V44.8994H193.403V43.4684Z" fill="#CCCCCC"/>
<path d="M202.731 49.7294H198.426C197.998 49.7289 197.587 49.5591 197.285 49.2573C196.982 48.9555 196.812 48.5463 196.811 48.1194V30.5889C196.812 30.1621 196.982 29.7529 197.285 29.4511C197.587 29.1493 197.998 28.9795 198.426 28.979H202.731C203.159 28.9795 203.57 29.1493 203.872 29.4511C204.175 29.7529 204.345 30.1621 204.346 30.5889V48.1194C204.345 48.5463 204.175 48.9555 203.872 49.2573C203.57 49.5591 203.159 49.7289 202.731 49.7294Z" fill="#F2F2F2"/>
<path d="M204.166 32.3777H196.991V33.8087H204.166V32.3777Z" fill="#CCCCCC"/>
<path d="M204.166 43.4684H196.991V44.8994H204.166V43.4684Z" fill="#CCCCCC"/>
<path d="M152.861 78.7082H148.556C148.127 78.7078 147.717 78.538 147.414 78.2362C147.112 77.9344 146.942 77.5251 146.941 77.0983V59.5678C146.942 59.141 147.112 58.7318 147.414 58.43C147.717 58.1281 148.127 57.9584 148.556 57.9579H152.861C153.289 57.9584 153.699 58.1281 154.002 58.43C154.305 58.7318 154.475 59.141 154.475 59.5678V77.0983C154.475 77.5251 154.305 77.9344 154.002 78.2362C153.699 78.538 153.289 78.7078 152.861 78.7082Z" fill="#F2F2F2"/>
<path d="M154.296 61.3567H147.12V62.7877H154.296V61.3567Z" fill="#CCCCCC"/>
<path d="M154.296 72.4474H147.12V73.8784H154.296V72.4474Z" fill="#CCCCCC"/>
<path d="M163.624 78.7082H159.319C158.891 78.7078 158.48 78.538 158.178 78.2362C157.875 77.9344 157.705 77.5251 157.704 77.0983V59.5678C157.705 59.141 157.875 58.7318 158.178 58.43C158.48 58.1281 158.891 57.9584 159.319 57.9579H163.624C164.052 57.9584 164.463 58.1281 164.765 58.43C165.068 58.7318 165.238 59.141 165.239 59.5678V77.0983C165.238 77.5251 165.068 77.9344 164.765 78.2362C164.463 78.538 164.052 78.7078 163.624 78.7082Z" fill="#F2F2F2"/>
<path d="M165.059 61.3567H157.884V62.7877H165.059V61.3567Z" fill="#CCCCCC"/>
<path d="M165.059 72.4474H157.884V73.8784H165.059V72.4474Z" fill="#CCCCCC"/>
<path d="M174.388 78.7082H170.082C169.654 78.7078 169.244 78.538 168.941 78.2362C168.638 77.9344 168.468 77.5251 168.468 77.0983V59.5678C168.468 59.141 168.638 58.7318 168.941 58.43C169.244 58.1281 169.654 57.9584 170.082 57.9579H174.388C174.816 57.9584 175.226 58.1281 175.529 58.43C175.831 58.7318 176.002 59.141 176.002 59.5678V77.0983C176.002 77.5251 175.831 77.9344 175.529 78.2362C175.226 78.538 174.816 78.7078 174.388 78.7082Z" fill="#F2F2F2"/>
<path d="M175.823 61.3567H168.647V62.7877H175.823V61.3567Z" fill="#CCCCCC"/>
<path d="M175.823 72.4474H168.647V73.8784H175.823V72.4474Z" fill="#CCCCCC"/>
<path d="M186.227 20.7504H181.922C181.494 20.7499 181.084 20.5801 180.781 20.2783C180.478 19.9765 180.308 19.5673 180.307 19.1404V1.60994C180.308 1.18311 180.478 0.773896 180.781 0.472078C181.084 0.170259 181.494 0.000481036 181.922 0H186.227C186.655 0.000481036 187.066 0.170259 187.368 0.472078C187.671 0.773896 187.841 1.18311 187.842 1.60994V19.1404C187.841 19.5673 187.671 19.9765 187.368 20.2783C187.066 20.5801 186.655 20.7499 186.227 20.7504Z" fill="#F2F2F2"/>
<path d="M187.662 3.3988H180.487V4.82986H187.662V3.3988Z" fill="#CCCCCC"/>
<path d="M187.662 14.4895H180.487V15.9206H187.662V14.4895Z" fill="#CCCCCC"/>
<path d="M196.991 20.7504H192.685C192.257 20.7499 191.847 20.5801 191.544 20.2783C191.242 19.9765 191.071 19.5673 191.071 19.1404V1.60994C191.071 1.18311 191.242 0.773896 191.544 0.472078C191.847 0.170259 192.257 0.000481036 192.685 0H196.991C197.419 0.000481036 197.829 0.170259 198.132 0.472078C198.434 0.773896 198.605 1.18311 198.605 1.60994V19.1404C198.605 19.5673 198.434 19.9765 198.132 20.2783C197.829 20.5801 197.419 20.7499 196.991 20.7504Z" fill="#F2F2F2"/>
<path d="M198.426 3.3988H191.25V4.82986H198.426V3.3988Z" fill="#CCCCCC"/>
<path d="M198.426 14.4895H191.25V15.9206H198.426V14.4895Z" fill="#CCCCCC"/>
<path d="M207.754 20.7504H203.449C203.021 20.7499 202.61 20.5801 202.308 20.2783C202.005 19.9765 201.835 19.5673 201.834 19.1404V1.60994C201.835 1.18311 202.005 0.773896 202.308 0.472078C202.61 0.170259 203.021 0.000481036 203.449 0H207.754C208.182 0.000481036 208.592 0.170259 208.895 0.472078C209.198 0.773896 209.368 1.18311 209.369 1.60994V19.1404C209.368 19.5673 209.198 19.9765 208.895 20.2783C208.592 20.5801 208.182 20.7499 207.754 20.7504Z" fill="#F2F2F2"/>
<path d="M209.189 3.3988H202.014V4.82986H209.189V3.3988Z" fill="#CCCCCC"/>
<path d="M209.189 14.4895H202.014V15.9206H209.189V14.4895Z" fill="#CCCCCC"/>
<path d="M218.517 20.7504H214.212C213.784 20.7499 213.374 20.5801 213.071 20.2783C212.768 19.9765 212.598 19.5673 212.598 19.1404V1.60994C212.598 1.18311 212.768 0.773896 213.071 0.472078C213.374 0.170259 213.784 0.000481036 214.212 0H218.517C218.945 0.000481036 219.356 0.170259 219.658 0.472078C219.961 0.773896 220.131 1.18311 220.132 1.60994V19.1404C220.131 19.5673 219.961 19.9765 219.658 20.2783C219.356 20.5801 218.945 20.7499 218.517 20.7504Z" fill="#F2F2F2"/>
<path d="M219.953 3.3988H212.777V4.82986H219.953V3.3988Z" fill="#CCCCCC"/>
<path d="M219.953 14.4895H212.777V15.9206H219.953V14.4895Z" fill="#CCCCCC"/>
<path d="M234.641 21.2871H132.389C132.294 21.2871 132.203 21.2494 132.136 21.1823C132.068 21.1152 132.031 21.0242 132.031 20.9293C132.031 20.8344 132.068 20.7434 132.136 20.6763C132.203 20.6092 132.294 20.5715 132.389 20.5715H234.641C234.736 20.5715 234.828 20.6092 234.895 20.6763C234.962 20.7434 235 20.8344 235 20.9293C235 21.0242 234.962 21.1152 234.895 21.1823C234.828 21.2494 234.736 21.2871 234.641 21.2871Z" fill="#CCCCCC"/>
<path d="M234.641 50.2659H132.389C132.294 50.2659 132.203 50.2282 132.136 50.1612C132.068 50.0941 132.031 50.0031 132.031 49.9082C132.031 49.8133 132.068 49.7223 132.136 49.6552C132.203 49.5881 132.294 49.5504 132.389 49.5504H234.641C234.736 49.5504 234.828 49.5881 234.895 49.6552C234.962 49.7223 235 49.8133 235 49.9082C235 50.0031 234.962 50.0941 234.895 50.1612C234.828 50.2282 234.736 50.2659 234.641 50.2659Z" fill="#CCCCCC"/>
<path d="M234.641 79.2449H132.389C132.294 79.2449 132.203 79.2073 132.136 79.1402C132.068 79.0731 132.031 78.9821 132.031 78.8872C132.031 78.7923 132.068 78.7013 132.136 78.6342C132.203 78.5671 132.294 78.5294 132.389 78.5294H234.641C234.736 78.5294 234.828 78.5671 234.895 78.6342C234.962 78.7013 235 78.7923 235 78.8872C235 78.9821 234.962 79.0731 234.895 79.1402C234.828 79.2073 234.736 79.2449 234.641 79.2449Z" fill="#CCCCCC"/>
<path d="M208.652 75.2818C209.096 70.5216 210.32 65.8663 212.276 61.5017C212.821 60.2871 213.422 59.0992 214.077 57.9381C214.109 57.8774 214.117 57.8063 214.099 57.7399C214.08 57.6734 214.036 57.6168 213.976 57.582C213.917 57.5472 213.846 57.5369 213.778 57.5532C213.711 57.5696 213.653 57.6113 213.616 57.6697C211.234 61.8988 209.565 66.4896 208.676 71.2584C208.429 72.5902 208.243 73.9313 208.119 75.2818C208.087 75.6225 208.621 75.6203 208.652 75.2818Z" fill="#E6E6E6"/>
<path d="M215.368 58.7911C217.234 58.7911 218.746 57.2831 218.746 55.423C218.746 53.5628 217.234 52.0548 215.368 52.0548C213.503 52.0548 211.991 53.5628 211.991 55.423C211.991 57.2831 213.503 58.7911 215.368 58.7911Z" fill="#E6E6E6"/>
<path d="M208.998 75.3714C209.285 72.2832 210.08 69.2631 211.349 66.4316C211.703 65.6436 212.092 64.873 212.517 64.1197C212.538 64.0803 212.543 64.0342 212.531 63.9911C212.519 63.948 212.491 63.9113 212.452 63.8887C212.413 63.8661 212.367 63.8594 212.323 63.87C212.28 63.8806 212.242 63.9077 212.218 63.9456C210.673 66.6892 209.59 69.6674 209.014 72.7612C208.853 73.6252 208.733 74.4952 208.652 75.3714C208.631 75.5924 208.977 75.591 208.998 75.3714Z" fill="#E6E6E6"/>
<path d="M213.355 64.673C214.565 64.673 215.546 63.6947 215.546 62.4879C215.546 61.2811 214.565 60.3029 213.355 60.3029C212.145 60.3029 211.164 61.2811 211.164 62.4879C211.164 63.6947 212.145 64.673 213.355 64.673Z" fill="#E6E6E6"/>
<path d="M208.561 75.165C206.883 72.5537 205.646 69.6853 204.901 66.6743C204.694 65.8361 204.525 64.9896 204.396 64.1351C204.388 64.0909 204.364 64.0514 204.328 64.0249C204.292 63.9983 204.246 63.9868 204.202 63.9927C204.157 63.9987 204.117 64.0217 204.089 64.0568C204.061 64.0919 204.048 64.1364 204.053 64.181C204.527 67.2921 205.51 70.3044 206.964 73.0974C207.37 73.877 207.812 74.6369 208.288 75.3773C208.408 75.5641 208.681 75.3507 208.561 75.165Z" fill="#E6E6E6"/>
<path d="M204.05 64.5196C205.26 64.5196 206.241 63.5413 206.241 62.3345C206.241 61.1277 205.26 60.1494 204.05 60.1494C202.84 60.1494 201.859 61.1277 201.859 62.3345C201.859 63.5413 202.84 64.5196 204.05 64.5196Z" fill="#E6E6E6"/>
<path d="M201.834 77.0983V72.8051C201.835 72.3783 202.005 71.9691 202.308 71.6673C202.61 71.3654 203.021 71.1957 203.449 71.1952H213.495C213.923 71.1957 214.333 71.3654 214.636 71.6673C214.938 71.9691 215.109 72.3783 215.109 72.8051V77.0983C215.109 77.5251 214.938 77.9344 214.636 78.2362C214.333 78.538 213.923 78.7078 213.495 78.7083H203.449C203.021 78.7078 202.61 78.538 202.308 78.2362C202.005 77.9344 201.835 77.5251 201.834 77.0983Z" fill="#F2F2F2"/>
<path d="M137.053 130.048H0.358779C0.263625 130.048 0.172373 130.01 0.105089 129.943C0.037805 129.876 0 129.785 0 129.69C0 129.595 0.037805 129.504 0.105089 129.437C0.172373 129.37 0.263625 129.332 0.358779 129.332H137.053C137.149 129.332 137.24 129.37 137.307 129.437C137.374 129.504 137.412 129.595 137.412 129.69C137.412 129.785 137.374 129.876 137.307 129.943C137.24 130.01 137.149 130.048 137.053 130.048Z" fill="#3F3D56"/>
<path d="M71.4181 83.1804C76.7681 83.1804 81.1051 78.8556 81.1051 73.5207C81.1051 68.1859 76.7681 63.8611 71.4181 63.8611C66.0681 63.8611 61.7311 68.1859 61.7311 73.5207C61.7311 78.8556 66.0681 83.1804 71.4181 83.1804Z" fill="#2F2E41"/>
<path d="M62.214 135.531L61.9575 131.152L78.772 128.081L79.1509 134.544L62.214 135.531Z" fill="#FFB8B8"/>
<path d="M63.0286 127.951L63.5236 136.396L58.1916 136.707L57.3849 122.945C58.0851 122.905 58.7866 123.002 59.4491 123.231C60.1117 123.461 60.7225 123.818 61.2465 124.283C61.7706 124.748 62.1977 125.311 62.5035 125.94C62.8092 126.57 62.9877 127.253 63.0286 127.951Z" fill="#2F2E41"/>
<path d="M69.5274 135.491L66.7343 138.879L52.2985 129.749L56.4205 124.748L69.5274 135.491Z" fill="#FFB8B8"/>
<path d="M63.7684 140.504L69.1548 133.969L73.281 137.351L64.5031 148C63.9613 147.556 63.5125 147.01 63.1823 146.393C62.8521 145.776 62.647 145.1 62.5788 144.404C62.5106 143.707 62.5805 143.005 62.7846 142.336C62.9888 141.666 63.323 141.044 63.7684 140.504Z" fill="#2F2E41"/>
<path d="M61.4899 119.733L59.5813 128.705C59.5373 128.912 59.5398 129.126 59.5885 129.331C59.6371 129.537 59.7308 129.729 59.8628 129.894C59.9948 130.059 60.1618 130.193 60.3518 130.287C60.5419 130.38 60.7503 130.43 60.962 130.433L79.7254 130.735C79.9369 130.738 80.1465 130.695 80.3393 130.608C80.5321 130.522 80.7032 130.393 80.8405 130.233C80.9777 130.072 81.0777 129.884 81.1333 129.68C81.1888 129.476 81.1985 129.263 81.1618 129.055L79.5205 119.781C79.4619 119.45 79.2881 119.15 79.0297 118.934C78.7712 118.718 78.4446 118.599 78.1073 118.599H62.8938C62.5649 118.599 62.246 118.712 61.9904 118.918C61.7348 119.125 61.5581 119.412 61.4899 119.733Z" fill="#2F2E41"/>
<path d="M64.6014 122.892C64.6014 122.892 46.3037 111.444 42.7159 117.526C40.922 120.567 41.8189 123.518 43.1644 125.71C44.4129 127.705 46.2052 129.304 48.3317 130.322L63.1663 137.561L68.5479 131.836L64.9602 128.616L64.6014 122.892Z" fill="#2F2E41"/>
<path d="M73.9296 121.103C73.9296 121.103 97.609 114.306 92.9449 127.185C88.2808 140.065 70.7006 135.056 70.7006 135.056L68.9067 129.69L75.006 125.397L73.9296 121.103Z" fill="#2F2E41"/>
<path d="M71.5396 84.5135C76.4064 84.5135 80.3516 80.5794 80.3516 75.7264C80.3516 70.8734 76.4064 66.9393 71.5396 66.9393C66.6729 66.9393 62.7277 70.8734 62.7277 75.7264C62.7277 80.5794 66.6729 84.5135 71.5396 84.5135Z" fill="#FFB8B8"/>
<path d="M72.0014 122.523C68.3397 122.468 64.6968 121.989 61.1458 121.097L61.0408 121.068L56.1236 98.5132C55.6812 96.5312 55.982 94.4563 56.9691 92.6803C57.9562 90.9043 59.5612 89.5503 61.4812 88.8738C67.4117 86.752 73.8756 86.6233 79.8864 88.5073C81.9032 89.1554 83.601 90.538 84.6407 92.3792C85.6805 94.2203 85.9859 96.3848 85.4959 98.4405L80.0036 121.05L79.9263 121.086C77.6438 122.164 74.7896 122.523 72.0014 122.523Z" fill="#CCCCCC"/>
<path d="M65.3962 124.275C65.5748 123.781 65.86 123.331 66.2318 122.958C66.6035 122.585 67.0528 122.297 67.548 122.116C68.0431 121.935 68.5721 121.864 69.0976 121.909C69.6231 121.954 70.1324 122.113 70.5897 122.375L80.2718 113.995L81.1479 120.58L71.8192 127.529C71.3265 128.266 70.5799 128.797 69.721 129.021C68.862 129.246 67.9502 129.148 67.1585 128.747C66.3668 128.346 65.7501 127.669 65.4253 126.845C65.1005 126.021 65.0901 125.107 65.3962 124.275Z" fill="#FFB8B8"/>
<path d="M74.6304 126.103C74.4728 126.103 74.3162 126.08 74.1652 126.035C73.9203 125.964 73.6959 125.836 73.511 125.66C73.3261 125.485 73.186 125.268 73.1024 125.028L71.9337 121.726C71.8243 121.421 71.8104 121.09 71.8939 120.777C71.9773 120.463 72.1541 120.183 72.401 119.972L85.5928 112.075L80.3926 88.9413L80.5249 88.9095C80.5787 88.8962 85.9067 87.687 88.09 93.4926C89.6189 97.5587 95.2769 106.4 94.8777 112.374C94.8019 113.569 94.3243 114.704 93.5222 115.595C92.7201 116.486 91.6402 117.082 90.4568 117.285L75.6077 125.769C75.328 125.985 74.9843 126.103 74.6304 126.103Z" fill="#CCCCCC"/>
<path d="M76.1099 123.491C75.9313 122.996 75.6461 122.546 75.2743 122.173C74.9026 121.8 74.4533 121.513 73.9581 121.331C73.463 121.15 72.934 121.079 72.4085 121.124C71.883 121.169 71.3737 121.328 70.9165 121.59L61.2343 113.21L60.3583 119.796L69.6869 126.744C70.1796 127.481 70.9262 128.012 71.7852 128.236C72.6441 128.461 73.5559 128.363 74.3476 127.962C75.1393 127.561 75.756 126.885 76.0808 126.06C76.4056 125.236 76.416 124.322 76.1099 123.491Z" fill="#FFB8B8"/>
<path d="M67.8472 126.103C67.4933 126.103 67.1496 125.985 66.8699 125.769L50.9444 118.001C49.7611 117.797 48.6811 117.202 47.879 116.311C47.0769 115.419 46.5993 114.285 46.5235 113.09C46.1243 107.115 52.8586 97.5587 54.3876 93.4927C56.5707 87.687 61.8988 88.8959 61.9526 88.9095L62.0849 88.9413L55.8084 112.79L70.0766 119.972C70.3234 120.183 70.5002 120.463 70.5837 120.777C70.6671 121.09 70.6532 121.421 70.5438 121.726L69.3751 125.028C69.2915 125.268 69.1514 125.485 68.9665 125.66C68.7816 125.836 68.5573 125.964 68.3123 126.035C68.1614 126.08 68.0047 126.103 67.8472 126.103Z" fill="#CCCCCC"/>
<path d="M86.8456 129.69H54.9143C54.2484 129.689 53.6101 129.425 53.1393 128.955C52.6685 128.486 52.4036 127.849 52.4028 127.185V109.655C52.4036 108.991 52.6685 108.354 53.1393 107.885C53.6101 107.415 54.2484 107.151 54.9143 107.151H86.8456C87.5114 107.151 88.1498 107.415 88.6206 107.885C89.0914 108.354 89.3563 108.991 89.357 109.655V127.185C89.3563 127.849 89.0914 128.486 88.6206 128.955C88.1498 129.425 87.5114 129.689 86.8456 129.69Z" fill="#D9D9D9"/>
<path d="M70.88 120.567C72.0689 120.567 73.0326 119.606 73.0326 118.42C73.0326 117.235 72.0689 116.274 70.88 116.274C69.6911 116.274 68.7273 117.235 68.7273 118.42C68.7273 119.606 69.6911 120.567 70.88 120.567Z" fill="#EDF2F4"/>
<path d="M62.6394 75.3687C62.1171 74.0478 62.974 72.4736 64.2452 71.8337C65.5163 71.1938 67.0503 71.3155 68.41 71.7372C69.5526 72.0916 70.6235 72.6409 71.7383 73.0747C72.8373 73.5603 74.0379 73.7735 75.2374 73.6961C76.4265 73.5622 77.61 72.8973 78.0966 71.8071C78.6009 70.6771 78.2579 69.298 77.4812 68.3336C76.6548 67.4013 75.5853 66.7158 74.3915 66.3535C71.7697 65.4324 68.7414 65.4055 66.3074 66.7443C63.8734 68.0832 62.2193 70.9338 62.7224 73.6599" fill="#2F2E41"/>
<path d="M11.7186 125.868C12.1619 121.108 13.3861 116.453 15.3425 112.088C15.8877 110.874 16.4879 109.686 17.1429 108.525C17.1757 108.464 17.1837 108.393 17.165 108.326C17.1463 108.26 17.1024 108.203 17.0427 108.168C16.9829 108.134 16.912 108.123 16.8448 108.14C16.7775 108.156 16.7193 108.198 16.6824 108.256C14.3003 112.485 12.6316 117.076 11.7428 121.845C11.4955 123.177 11.3097 124.518 11.1853 125.868C11.1537 126.209 11.6872 126.207 11.7186 125.868Z" fill="#E6E6E6"/>
<path d="M18.4346 109.378C20.3 109.378 21.8123 107.87 21.8123 106.009C21.8123 104.149 20.3 102.641 18.4346 102.641C16.5691 102.641 15.0569 104.149 15.0569 106.009C15.0569 107.87 16.5691 109.378 18.4346 109.378Z" fill="#D9D9D9"/>
<path d="M12.0641 125.958C12.3517 122.87 13.1459 119.849 14.4151 117.018C14.7688 116.23 15.1582 115.459 15.5831 114.706C15.6044 114.667 15.6095 114.621 15.5974 114.578C15.5853 114.534 15.5568 114.498 15.5181 114.475C15.4793 114.453 15.4333 114.446 15.3897 114.456C15.3461 114.467 15.3083 114.494 15.2844 114.532C13.739 117.276 12.6564 120.254 12.0798 123.348C11.9194 124.212 11.7989 125.082 11.7182 125.958C11.6977 126.179 12.0438 126.177 12.0641 125.958Z" fill="#E6E6E6"/>
<path d="M16.4211 115.259C17.6313 115.259 18.6124 114.281 18.6124 113.074C18.6124 111.868 17.6313 110.889 16.4211 110.889C15.2109 110.889 14.2299 111.868 14.2299 113.074C14.2299 114.281 15.2109 115.259 16.4211 115.259Z" fill="#D9D9D9"/>
<path d="M11.6274 125.751C9.94936 123.14 8.71276 120.272 7.96701 117.261C7.7599 116.422 7.59156 115.576 7.46199 114.722C7.4545 114.677 7.43012 114.638 7.39397 114.611C7.35783 114.585 7.31274 114.573 7.26825 114.579C7.22375 114.585 7.18332 114.608 7.15548 114.643C7.12764 114.678 7.11456 114.723 7.11902 114.767C7.59283 117.879 8.5762 120.891 10.0298 123.684C10.4362 124.463 10.8778 125.223 11.3546 125.964C11.4748 126.15 11.7468 125.937 11.6274 125.751Z" fill="#E6E6E6"/>
<path d="M7.11631 115.106C8.32651 115.106 9.30757 114.128 9.30757 112.921C9.30757 111.714 8.32651 110.736 7.11631 110.736C5.90611 110.736 4.92505 111.714 4.92505 112.921C4.92505 114.128 5.90611 115.106 7.11631 115.106Z" fill="#D9D9D9"/>
<path d="M4.90039 127.685V123.392C4.90087 122.965 5.07113 122.556 5.37381 122.254C5.67648 121.952 6.08685 121.782 6.51489 121.782H16.5607C16.9887 121.782 17.3991 121.952 17.7018 122.254C18.0045 122.556 18.1747 122.965 18.1752 123.392V127.685C18.1747 128.112 18.0045 128.521 17.7018 128.823C17.3991 129.124 16.9887 129.294 16.5607 129.295H6.51489C6.08685 129.294 5.67648 129.124 5.37381 128.823C5.07113 128.521 4.90087 128.112 4.90039 127.685Z" fill="#F2F2F2"/>
<path d="M112.803 132.695C112.803 135.048 110.89 136.118 108.531 136.118C106.171 136.118 104.258 135.048 104.258 132.695C104.258 130.342 105.207 127.597 108.531 128.543C111.854 127.123 112.803 130.342 112.803 132.695Z" fill="#FF6584"/>
<path d="M108.322 129.646C108.156 129.646 107.996 129.586 107.871 129.477C107.746 129.367 107.665 129.216 107.644 129.052C107.502 127.878 106.723 125.579 106.394 124.645L106.394 124.645C106.361 124.552 106.35 124.452 106.364 124.355C106.378 124.257 106.415 124.164 106.473 124.084C106.528 124.013 106.598 123.954 106.677 123.911C106.757 123.868 106.845 123.842 106.935 123.836C107.025 123.829 107.116 123.842 107.201 123.873C107.286 123.904 107.364 123.952 107.428 124.015C107.486 124.076 107.531 124.148 107.56 124.226C107.589 124.305 107.601 124.389 107.596 124.472C107.532 125.671 108.408 127.608 108.936 128.656C108.986 128.755 109.011 128.864 109.009 128.975C109.008 129.085 108.979 129.194 108.925 129.291C108.872 129.388 108.796 129.47 108.704 129.532C108.611 129.593 108.505 129.631 108.395 129.642C108.371 129.644 108.347 129.646 108.322 129.646Z" fill="#3F3D56"/>
<path d="M111.484 127.001C112.967 125.791 111.804 123.314 109.947 123.789C109.697 123.849 109.467 123.971 109.279 124.145C108.14 125.218 107.963 127.962 107.963 127.962C107.963 127.962 109.974 128.234 111.484 127.001Z" fill="#3F3D56"/>
</g>
<defs>
<clipPath id="clip0_11_257">
<rect width="235" height="148" fill="white"/>
</clipPath>
</defs>
</svg>
