<svg width="366" height="277" viewBox="0 0 366 277" fill="none" xmlns="http://www.w3.org/2000/svg">
<g clip-path="url(#clip0_125_1883)">
<path d="M150.86 191.922C150.86 201.482 143.449 209.232 134.307 209.232C125.165 209.232 117.754 201.482 117.754 191.922C117.754 191.705 117.757 191.49 117.766 191.275C117.934 181.717 125.482 174.114 134.622 174.292C143.763 174.471 151.034 182.364 150.863 191.922H150.86Z" fill="#D9D9D9"/>
<path d="M128.478 199.61L123.71 193.242L124.839 192.393L128.723 197.581L144.015 185.049L144.909 186.143L128.478 199.61Z" fill="#EDF2F4"/>
<path d="M366 276.007H0V277H366V276.007Z" fill="#E6E6E6"/>
<path d="M240.981 97.3203C241.324 97.4771 241.653 97.6611 241.966 97.8706L273.277 84.4841L274.394 76.222L286.906 76.145L286.166 95.0958L244.839 106.045C244.752 106.333 244.647 106.615 244.526 106.89C243.929 108.167 242.968 109.239 241.764 109.97C240.56 110.702 239.168 111.061 237.761 111.003C236.354 110.945 234.996 110.471 233.857 109.642C232.718 108.813 231.849 107.665 231.359 106.343C230.869 105.02 230.78 103.583 231.103 102.21C231.426 100.837 232.147 99.5903 233.175 98.6265C234.203 97.6627 235.492 97.0247 236.881 96.7926C238.27 96.5604 239.696 96.7446 240.981 97.3218L240.981 97.3203Z" fill="#A0616A"/>
<path d="M291.455 269.039H282.897L278.825 235.971H291.456L291.455 269.039Z" fill="#A0616A"/>
<path d="M276.784 266.59H293.289V276.997H266.391C266.391 274.236 267.486 271.588 269.435 269.636C271.384 267.683 274.027 266.586 276.784 266.586V266.59Z" fill="#2F2E41"/>
<path d="M324.741 266.617L316.224 267.456L308.936 234.947L321.507 233.71L324.741 266.617Z" fill="#A0616A"/>
<path d="M309.895 265.622L326.318 264.001L327.337 274.359L300.574 277C300.303 274.253 301.134 271.511 302.882 269.377C304.63 267.243 307.153 265.892 309.895 265.622Z" fill="#2F2E41"/>
<path d="M293.838 41.1471C303.307 41.1471 310.984 33.4574 310.984 23.9717C310.984 14.486 303.307 6.79639 293.838 6.79639C284.368 6.79639 276.692 14.486 276.692 23.9717C276.692 33.4574 284.368 41.1471 293.838 41.1471Z" fill="#A0616A"/>
<path d="M280.984 262.352C280.248 262.353 279.536 262.094 278.972 261.621C278.408 261.148 278.029 260.49 277.902 259.764C273.475 235.136 258.992 154.589 258.645 152.357C258.637 152.305 258.634 152.253 258.634 152.202V146.195C258.633 145.976 258.701 145.763 258.829 145.585L260.741 142.903C260.832 142.774 260.952 142.668 261.09 142.592C261.229 142.516 261.382 142.473 261.54 142.466C272.447 141.954 308.162 140.453 309.887 142.612C311.62 144.78 311.004 151.359 310.864 152.655L310.871 152.79L326.918 255.585C327.044 256.405 326.842 257.242 326.356 257.914C325.871 258.586 325.141 259.04 324.324 259.176L314.302 260.83C313.555 260.95 312.791 260.798 312.147 260.401C311.503 260.004 311.023 259.389 310.794 258.667C307.694 248.745 297.3 215.368 293.698 202.452C293.678 202.367 293.628 202.292 293.556 202.243C293.484 202.194 293.396 202.173 293.31 202.186C293.224 202.198 293.145 202.243 293.09 202.311C293.035 202.378 293.008 202.464 293.013 202.552C293.193 214.863 293.628 246.274 293.781 257.123L293.797 258.292C293.804 259.083 293.514 259.847 292.985 260.435C292.456 261.022 291.726 261.389 290.94 261.464L281.276 262.341C281.179 262.349 281.081 262.353 280.984 262.352Z" fill="#2F2E41"/>
<path d="M282.956 47.901C279.964 49.683 278.173 52.9568 277.146 56.2942C275.244 62.4628 274.099 68.8404 273.736 75.2863L272.65 94.5858L259.208 145.754C270.859 155.628 277.578 153.384 293.262 145.307C308.945 137.23 310.736 148 310.736 148L313.872 104.462L318.352 56.8877C317.346 55.6746 316.208 54.5783 314.958 53.6193C310.817 50.3928 305.999 48.1499 300.866 47.0596C295.734 45.9694 290.422 46.0603 285.329 47.3254L282.956 47.901Z" fill="#D9D9D9"/>
<path d="M278.59 107.654C278.952 107.789 279.302 107.953 279.637 108.143L310.598 92.6188L311.111 84.2092L323.882 83.3271L324.567 102.497L283.193 116.205C282.856 117.657 282.085 118.972 280.983 119.975C279.881 120.977 278.5 121.62 277.025 121.818C275.549 122.015 274.049 121.758 272.723 121.08C271.397 120.402 270.308 119.336 269.602 118.024C268.896 116.711 268.605 115.214 268.769 113.732C268.933 112.25 269.543 110.853 270.519 109.727C271.495 108.601 272.79 107.799 274.232 107.428C275.674 107.057 277.194 107.135 278.591 107.651L278.59 107.654Z" fill="#A0616A"/>
<path d="M318.129 57.1017C325.746 59.7945 327.089 88.9716 327.089 88.9716C318.127 84.0345 307.374 92.1134 307.374 92.1134C307.374 92.1134 305.134 84.4825 302.445 74.6087C301.633 71.8313 301.536 68.8932 302.163 66.068C302.789 63.2428 304.119 60.6223 306.029 58.4505C306.029 58.4505 310.512 54.4074 318.129 57.1017Z" fill="#D9D9D9"/>
<path d="M309.209 28.5125C307.072 26.8006 304.158 29.9111 304.158 29.9111L302.449 14.5073C302.449 14.5073 291.768 15.7891 284.931 14.0792C278.093 12.3692 277.027 20.2872 277.027 20.2872C276.674 17.0895 276.603 13.867 276.813 10.6568C277.24 6.80485 282.794 2.9529 292.621 0.384772C302.448 -2.18336 307.575 8.94487 307.575 8.94487C314.415 12.3662 311.347 30.2265 309.209 28.5125Z" fill="#2F2E41"/>
<path d="M79.886 22.623C79.4779 22.6238 79.0868 22.7867 78.7985 23.076C78.5102 23.3653 78.3483 23.7574 78.3483 24.1662C78.3483 24.575 78.5102 24.9671 78.7985 25.2564C79.0868 25.5457 79.4779 25.7086 79.886 25.7093H192.36C192.768 25.7086 193.159 25.5457 193.447 25.2564C193.735 24.9671 193.897 24.575 193.897 24.1662C193.897 23.7574 193.735 23.3653 193.447 23.076C193.159 22.7867 192.768 22.6238 192.36 22.623H79.886Z" fill="#CCCCCC"/>
<path d="M79.8859 31.8818C79.4777 31.8815 79.0861 32.0436 78.7971 32.3323C78.5081 32.621 78.3452 33.0128 78.3444 33.4217C78.3435 33.8306 78.5047 34.2231 78.7925 34.5131C79.0803 34.803 79.4713 34.9667 79.8794 34.9681H150.986C151.189 34.9681 151.389 34.9282 151.576 34.8506C151.763 34.7731 151.933 34.6594 152.076 34.5161C152.219 34.3728 152.332 34.2027 152.41 34.0155C152.487 33.8283 152.527 33.6276 152.527 33.425C152.527 33.2223 152.487 33.0217 152.41 32.8344C152.332 32.6472 152.219 32.4771 152.076 32.3338C151.933 32.1905 151.763 32.0768 151.576 31.9993C151.389 31.9217 151.189 31.8818 150.986 31.8818H79.8859Z" fill="#CCCCCC"/>
<path d="M190.95 10.8264C190.95 14.5683 188.049 17.6016 184.471 17.6016C180.893 17.6016 177.992 14.5683 177.992 10.8264C177.992 10.7416 177.993 10.6574 177.997 10.5733C178.062 6.83218 181.017 3.85614 184.594 3.92601C188.172 3.99588 191.018 7.08533 190.951 10.8264H190.95Z" fill="#D9D9D9"/>
<path d="M182.189 13.8354L180.323 11.343L180.765 11.0107L182.285 13.0413L188.271 8.13623L188.621 8.56465L182.189 13.8354Z" fill="#EDF2F4"/>
<path d="M79.886 79.2397C79.4779 79.2405 79.0868 79.4034 78.7985 79.6927C78.5102 79.982 78.3483 80.3741 78.3483 80.7829C78.3483 81.1917 78.5102 81.5838 78.7985 81.8731C79.0868 82.1624 79.4779 82.3253 79.886 82.326H192.36C192.768 82.3253 193.159 82.1624 193.447 81.8731C193.735 81.5838 193.897 81.1917 193.897 80.7829C193.897 80.3741 193.735 79.982 193.447 79.6927C193.159 79.4034 192.768 79.2405 192.36 79.2397H79.886Z" fill="#CCCCCC"/>
<path d="M79.8859 88.499C79.4777 88.4987 79.0861 88.6607 78.7971 88.9495C78.5081 89.2382 78.3452 89.63 78.3444 90.0389C78.3435 90.4478 78.5047 90.8403 78.7925 91.1303C79.0803 91.4202 79.4713 91.5839 79.8794 91.5853H150.986C151.395 91.5853 151.787 91.4227 152.076 91.1333C152.365 90.8439 152.527 90.4514 152.527 90.0422C152.527 89.6329 152.365 89.2404 152.076 88.951C151.787 88.6616 151.395 88.499 150.986 88.499H79.8859Z" fill="#CCCCCC"/>
<path d="M190.454 67.4436C190.454 71.1855 187.553 74.2188 183.975 74.2188C180.397 74.2188 177.496 71.1855 177.496 67.4436C177.496 67.3588 177.497 67.2746 177.501 67.1905C177.566 63.4494 180.521 60.4733 184.098 60.5432C187.676 60.6131 190.522 63.7025 190.455 67.4436H190.454Z" fill="#D9D9D9"/>
<path d="M181.693 70.4526L179.827 67.9601L180.269 67.6279L181.79 69.6584L187.775 64.7534L188.125 65.1818L181.693 70.4526Z" fill="#EDF2F4"/>
<path d="M79.886 135.857C79.4779 135.858 79.0868 136.021 78.7985 136.31C78.5102 136.599 78.3483 136.991 78.3483 137.4C78.3483 137.809 78.5102 138.201 78.7985 138.49C79.0868 138.78 79.4779 138.942 79.886 138.943H192.36C192.768 138.942 193.159 138.78 193.447 138.49C193.735 138.201 193.897 137.809 193.897 137.4C193.897 136.991 193.735 136.599 193.447 136.31C193.159 136.021 192.768 135.858 192.36 135.857H79.886Z" fill="#CCCCCC"/>
<path d="M79.8859 145.116C79.4777 145.115 79.0861 145.277 78.7971 145.566C78.5081 145.855 78.3452 146.247 78.3444 146.656C78.3435 147.065 78.5047 147.457 78.7925 147.747C79.0803 148.037 79.4713 148.201 79.8794 148.202H150.986C151.395 148.202 151.787 148.039 152.076 147.75C152.365 147.461 152.527 147.068 152.527 146.659C152.527 146.25 152.365 145.857 152.076 145.568C151.787 145.278 151.395 145.116 150.986 145.116H79.8859Z" fill="#CCCCCC"/>
<path d="M190.454 124.061C190.454 127.803 187.553 130.836 183.975 130.836C180.397 130.836 177.496 127.803 177.496 124.061C177.496 123.976 177.497 123.892 177.501 123.808C177.566 120.067 180.521 117.091 184.098 117.16C187.676 117.23 190.522 120.32 190.455 124.061H190.454Z" fill="#D9D9D9"/>
<path d="M181.693 127.07L179.827 124.577L180.269 124.245L181.79 126.276L187.775 121.371L188.125 121.799L181.693 127.07Z" fill="#EDF2F4"/>
</g>
<defs>
<clipPath id="clip0_125_1883">
<rect width="366" height="277" fill="white"/>
</clipPath>
</defs>
</svg>
