<svg width="25" height="27" viewBox="0 0 25 27" fill="none" xmlns="http://www.w3.org/2000/svg">
<path d="M10.5429 24.2985H5.21936C3.49438 24.2922 2.09579 22.8987 2.08312 21.1738V10.5846C2.0865 10.0072 2.34489 9.46072 2.78906 9.0917L3.72646 8.39733C4.06869 8.03271 4.10349 7.47634 3.80936 7.07192C3.51524 6.6675 2.97521 6.52918 2.52289 6.74241L1.56234 7.45993C0.593407 8.20964 0.0184131 9.35963 0 10.5846V21.1854C0.00636452 24.0653 2.33943 26.3983 5.21936 26.4047H10.5429C11.1181 26.4047 11.5844 25.9384 11.5844 25.3632C11.5844 24.7879 11.1181 24.3216 10.5429 24.3216V24.2985Z" fill="#FFBE0B"/>
<path d="M25.0091 10.5607C24.9969 9.34475 24.4406 8.19818 23.4931 7.43606L15.4962 1.0594C13.7389 -0.353135 11.2356 -0.353135 9.47831 1.0594L6.94386 2.89949C6.46769 3.24144 6.35888 3.90465 6.70083 4.38082C7.04277 4.85699 7.70599 4.96579 8.18215 4.62385L10.7513 2.70275C11.7597 1.87256 13.2148 1.87256 14.2232 2.70275L22.22 9.0794C22.6803 9.44425 22.9522 9.99661 22.9607 10.5839V21.1846C22.9607 22.9103 21.5617 24.3093 19.836 24.3093H17.4636C17.2207 24.3093 17.0238 24.1124 17.0238 23.8695V19.0899C17.0238 17.5669 15.7925 16.3304 14.2695 16.324H10.7976C10.0641 16.324 9.36053 16.6154 8.84182 17.1341C8.32311 17.6528 8.03171 18.3564 8.03171 19.0899V20.9184C8.03171 21.4937 8.49803 21.96 9.07326 21.96C9.6485 21.96 10.1148 21.4937 10.1148 20.9184V19.0899C10.1117 18.9099 10.1811 18.7362 10.3073 18.6078C10.4335 18.4794 10.606 18.4071 10.786 18.4071H14.2579C14.6286 18.4071 14.9291 18.7077 14.9291 19.0784V23.8695C14.9355 25.2647 16.0684 26.3924 17.4636 26.3924H19.7782C22.6607 26.3924 24.9975 24.0556 24.9975 21.173L25.0091 10.5607Z" fill="#FFBE0B"/>
</svg>
