<svg width="186" height="170" viewBox="0 0 186 170" fill="none" xmlns="http://www.w3.org/2000/svg">
<g clip-path="url(#clip0_7_13)">
<path d="M84.401 18.415C82.8914 16.775 82.4755 14.6298 83.472 13.6236C84.4685 12.6174 86.4997 13.1313 88.0097 14.7721C88.6214 15.4188 89.0764 16.2096 89.3366 17.0783L95.6491 24.1115L92.9876 26.7193L86.5534 19.8887C85.7339 19.5846 84.9958 19.0792 84.401 18.415Z" fill="#FFB6B6"/>
<path d="M91.2278 19.362L90.0292 17.5455L86.3763 20.4565L88.3629 21.4967L91.2278 19.362Z" fill="#EDF2F4"/>
<path d="M126.266 42.7289L124.414 32.5084L106.133 30.697L90.91 18.4081L87.2534 21.1108L99.862 39.737L126.266 42.7289Z" fill="#2F2E41"/>
<path d="M114.235 26.1127C113.049 25.5635 111.42 26.701 110.596 28.6534C110.257 29.4291 110.1 30.2787 110.138 31.131L109.172 33.4941L109.155 33.4963L104.721 41.5475L98.374 31.8341C97.4032 30.3484 95.6254 29.6926 93.9801 30.2135C91.2855 31.0665 90.2879 34.5176 92.0781 36.7931L102.56 50.1171C103.66 51.5147 105.773 51.2387 106.512 49.6012L112.694 34.3993L113.451 32.6649C114.078 32.1209 114.572 31.4275 114.891 30.6426C115.715 28.6896 115.421 26.6619 114.235 26.1127Z" fill="#FFB6B6"/>
<path d="M185.408 161.529C185.408 161.773 185.221 161.97 184.988 161.97H0.420523C0.187303 161.97 0 161.773 0 161.529C0 161.285 0.187303 161.089 0.420523 161.089H184.988C185.221 161.089 185.408 161.285 185.408 161.529Z" fill="#3F3D56"/>
<path d="M114.667 26.8677L114.852 18.9147L119.27 16.3681L122.905 22.2887L114.667 26.8677Z" fill="#FFB6B6"/>
<path d="M123.25 21.4453L113.363 26.1447L112.897 32.2902L124.86 25.5422L123.25 21.4453Z" fill="#EDF2F4"/>
<path d="M128.378 48.8985L128.375 48.9133C127.657 53.4035 126.699 56.6314 126.699 56.6314L126.996 63.8054L127.622 78.8048L123.731 79.1638L117.6 79.7265L117.006 79.782L112.942 80.1559L106.684 80.7296L104.843 52.7742C104.843 52.7742 107.122 46.6442 109.299 40.8066C110.769 36.8679 112.193 33.0589 112.833 31.3598C112.896 31.1932 112.953 31.0488 112.999 30.9267C113.745 28.9648 117.459 26.529 120.335 24.8855C122.289 23.7638 123.862 23.005 123.862 23.005L125.431 26.033L125.551 26.2662C127.905 29.272 128.869 33.4549 129.092 37.7563C129.11 38.0673 129.12 38.3782 129.131 38.6892C129.233 42.265 128.859 45.8705 128.378 48.8985Z" fill="#2F2E41"/>
<path d="M117.8 158.995L113.687 158.954L111.878 142.316L117.949 142.375L117.8 158.995Z" fill="#FFB6B6"/>
<path d="M103.708 158.76C103.578 158.984 103.504 159.713 103.502 159.976C103.495 160.783 104.114 161.444 104.885 161.452L117.623 161.576C118.149 161.581 118.58 161.139 118.584 160.588L118.589 160.032C118.589 160.032 119.234 158.369 117.955 156.298C117.955 156.298 116.329 157.894 113.942 155.346L113.243 153.991L108.065 157.881L105.211 158.221C104.586 158.295 104.034 158.197 103.708 158.76Z" fill="#2F2E41"/>
<path d="M138.855 153.689L135.12 155.494L126.696 141.261L132.209 138.597L138.855 153.689Z" fill="#FFB6B6"/>
<path d="M126.02 159.785C125.994 160.047 126.224 160.738 126.329 160.977C126.652 161.71 127.482 162.031 128.182 161.692L139.749 156.102C140.226 155.871 140.435 155.278 140.215 154.778L139.992 154.273C139.992 154.273 139.897 152.481 137.896 151.181C137.896 151.181 137.076 153.352 133.879 152.118L132.694 151.205L129.6 157.04L127.158 158.625C126.624 158.972 126.085 159.13 126.02 159.785Z" fill="#2F2E41"/>
<path d="M107.763 77.5429L108.186 114.945L111.69 153.996H118.189L123.48 102.93C123.48 102.93 131.127 90.5803 126.666 79.566V74.1035L107.763 77.5429Z" fill="#2F2E41"/>
<path d="M118.7 112.943L136.862 146.653L131.764 151.994L117.426 130.299L118.7 112.943Z" fill="#2F2E41"/>
<path d="M99.4377 28.7957L92.0756 26.1447C92.0756 26.1447 85.8638 33.8567 89.0847 43.2556L90.005 54.5826C90.005 54.5826 77.3513 65.6685 76.431 79.8875C75.5107 94.1064 45.602 131.702 45.602 131.702C45.602 131.702 34.5588 132.425 33.8686 136.763C33.1784 141.101 37.7797 146.644 36.8595 151.464C35.9392 156.284 43.4481 170.262 59.3644 169.298C75.2807 168.334 124.515 158.935 125.205 148.09C125.895 137.245 100.588 56.5106 100.588 56.5106L104.269 45.6656C104.269 45.6656 106.8 41.3276 103.119 36.7487C99.4377 32.1697 99.4377 28.7957 99.4377 28.7957Z" fill="#E6E6E6"/>
<path d="M91.7209 26.6282L91.9072 26.1447L93.226 21.5657L99.8979 23.9757L99.4378 28.7957L91.7209 26.6282Z" fill="#FFB6B6"/>
<path d="M116.733 21.6875C121.202 21.6875 124.825 17.8925 124.825 13.211C124.825 8.52956 121.202 4.7345 116.733 4.7345C112.264 4.7345 108.641 8.52956 108.641 13.211C108.641 17.8925 112.264 21.6875 116.733 21.6875Z" fill="#FFB6B6"/>
<path d="M115.552 16.8451L112.148 13.3813L113.09 10.6874C113.09 10.6874 106.362 13.3036 108.032 7.79309C109.701 2.28259 118.218 2.83889 119.982 4.18338C121.746 5.52788 127.461 8.64073 125.995 13.0054C124.528 17.3701 121.746 21.2977 121.746 21.2977L119.545 19.9598C119.545 19.9598 119.476 14.9328 118.388 15.1779C117.301 15.4229 115.552 16.8451 115.552 16.8451Z" fill="#2F2E41"/>
<path d="M99.63 24.9969C103.754 24.9969 107.097 21.4947 107.097 17.1746C107.097 12.8544 103.754 9.35226 99.63 9.35226C95.5058 9.35226 92.1625 12.8544 92.1625 17.1746C92.1625 21.4947 95.5058 24.9969 99.63 24.9969Z" fill="#FFB6B6"/>
<path d="M99.034 6.65804C99.25 6.79017 99.5395 6.59026 99.6088 6.33842C99.678 6.08658 99.5973 5.81919 99.5173 5.57088L99.1144 4.32081C98.8286 3.43424 98.5254 2.51668 97.9065 1.84188C96.9724 0.823383 95.4879 0.564281 94.1516 0.751991C92.4355 0.993048 90.7423 1.96646 89.9444 3.57611C89.1464 5.18577 89.4861 7.43182 90.928 8.43608C88.873 10.9033 88.1567 13.6529 88.2698 16.9249C88.3829 20.197 91.787 23.2084 94.0068 25.5134C94.5026 25.1987 94.9532 23.7234 94.6806 23.1875C94.408 22.6516 94.7986 22.0307 94.461 21.5371C94.1234 21.0434 93.8409 21.8294 94.1822 21.3386C94.3976 21.0289 93.557 20.3163 93.8771 20.131C95.4257 19.2343 95.9407 17.2124 96.9133 15.6641C98.0864 13.7966 100.094 12.5319 102.219 12.3221C103.389 12.2065 104.626 12.4158 105.585 13.1276C106.544 13.8394 107.165 15.1114 106.943 16.3206C107.519 15.7078 107.806 14.8097 107.698 13.9571C107.589 13.1045 107.089 12.3161 106.38 11.8822C106.811 10.3889 106.442 8.67122 105.441 7.51568C104.44 6.36013 100.382 6.55694 98.921 6.86106" fill="#2F2E41"/>
<path d="M98.8072 12.3674C96.8725 12.5861 95.4756 14.3416 94.296 15.9628C93.6162 16.8972 92.904 17.9292 92.9211 19.1039C92.9383 20.2916 93.6964 21.3103 94.0587 22.4359C94.6509 24.2757 94.0737 26.4646 92.6641 27.7252C94.057 28.0021 95.5627 26.908 95.8032 25.4444C96.0831 23.7406 94.8501 22.0962 94.9962 20.3741C95.1248 18.8569 96.2662 17.6892 97.2365 16.5548C98.2068 15.4204 99.1182 13.9151 98.6718 12.4655" fill="#2F2E41"/>
<path d="M171.921 121.667C170.804 121.793 169.586 121.982 168.289 122.258C162.794 123.43 162.679 127.339 162.728 128.236L162.69 128.211C162.138 129.14 161.792 130.08 161.582 130.967L161.331 118.985C161.493 118.63 161.642 118.227 161.765 117.814C162.176 119.141 162.851 120.395 163.432 120.312C164.188 120.204 164.518 117.874 164.377 116.218C165.338 117.515 166.956 118.902 167.566 118.474C168.054 118.132 167.764 116.725 167.232 115.446C168.341 116.147 169.57 116.607 169.951 116.162C170.471 115.555 169.225 113.485 168.075 112.33C169.614 112.48 171.571 112.223 171.7 111.49C171.805 110.885 170.64 110.122 169.394 109.631C170.646 109.286 171.817 108.683 171.778 108.087C171.732 107.378 169.993 106.904 168.494 106.832C169.625 105.904 170.664 104.623 170.346 104.043C170.054 103.51 168.695 103.717 167.44 104.186C168.183 103.074 168.704 101.821 168.307 101.393C167.812 100.859 166.055 101.78 164.856 102.799C165.089 101.212 164.971 99.2085 164.291 99.0272C163.723 98.8756 162.917 100.041 162.364 101.311C162.12 99.9783 161.626 98.7134 161.055 98.7134C160.243 98.7134 159.584 101.28 159.584 102.952C159.584 103.047 159.586 103.136 159.59 103.221C159.509 103.122 159.415 103.018 159.309 102.91C158.164 101.745 155.947 100.452 155.381 101.062C154.983 101.491 155.505 102.744 156.247 103.856C154.993 103.386 153.633 103.18 153.341 103.713C152.948 104.429 154.627 106.216 155.991 107.083C155.909 107.073 155.823 107.064 155.731 107.058C154.139 106.944 151.649 107.458 151.594 108.307C151.555 108.903 152.726 109.506 153.979 109.852C152.732 110.343 151.567 111.105 151.673 111.71C151.801 112.444 153.758 112.701 155.297 112.55C154.147 113.706 152.901 115.776 153.421 116.382C153.802 116.827 155.031 116.367 156.14 115.667C155.608 116.946 155.319 118.352 155.806 118.694C156.451 119.146 158.218 117.574 159.15 116.222C159.055 117.876 159.433 120.149 160.183 120.239C160.497 120.276 160.829 119.926 161.129 119.387L160.28 132.265C160.081 133.765 161.351 134.743 161.464 135.361L161.648 144.082C161.441 143.461 161.162 142.825 160.787 142.195L160.75 142.219C160.798 141.323 160.684 137.414 155.188 136.241C153.892 135.965 152.673 135.776 151.556 135.65C150.238 135.501 149.723 137.392 150.914 138.003C152.639 138.887 154.262 140.001 155.108 141.321C157.27 144.695 160.258 142.744 160.683 142.442C161.157 143.269 161.468 144.103 161.665 144.896L161.762 149.527C161.738 149.637 161.722 149.698 161.72 149.703L161.766 149.717L162.001 160.925L164.186 160.907L163.404 149.45C163.536 148.832 163.94 146.726 163.404 144.54L162.623 135.538C162.621 135.531 162.668 135.775 162.623 135.538L161.604 132.001C161.752 130.907 162.096 129.676 162.795 128.458C163.219 128.761 166.207 130.711 168.369 127.338C169.215 126.018 170.838 124.904 172.563 124.019C173.754 123.409 173.24 121.518 171.921 121.667ZM161.944 148.185L161.903 146.225C161.986 146.966 161.982 147.635 161.944 148.185Z" fill="#F2F2F2"/>
<path d="M27.3884 121.667C26.2714 121.793 25.0528 121.982 23.7566 122.258C18.2607 123.43 18.1466 127.339 18.1948 128.236L18.1575 128.211C17.6048 129.14 17.2587 130.08 17.0495 130.967L16.7979 118.985C16.9606 118.63 17.1087 118.227 17.2321 117.814C17.6435 119.141 18.3179 120.395 18.8992 120.312C19.6552 120.204 19.9847 117.874 19.8437 116.218C20.805 117.515 22.4227 118.902 23.033 118.474C23.5207 118.132 23.2315 116.725 22.6991 115.446C23.8085 116.147 25.0371 116.607 25.4184 116.162C25.9386 115.555 24.692 113.485 23.5422 112.33C25.0812 112.48 27.0385 112.223 27.1668 111.49C27.2726 110.885 26.1077 110.122 24.8608 109.631C26.1132 109.286 27.2843 108.683 27.2454 108.087C27.1993 107.378 25.4606 106.904 23.9607 106.832C25.092 105.904 26.1316 104.623 25.8137 104.043C25.5214 103.51 24.1618 103.717 22.9074 104.186C23.6498 103.074 24.1717 101.821 23.7742 101.393C23.2791 100.859 21.5219 101.78 20.3227 102.799C20.5561 101.212 20.4381 99.2085 19.7585 99.0272C19.1899 98.8756 18.3841 100.041 17.8316 101.311C17.5874 99.9783 17.0931 98.7134 16.5226 98.7134C15.7099 98.7134 15.0511 101.28 15.0511 102.952C15.0511 103.047 15.0535 103.136 15.0576 103.221C14.976 103.122 14.8825 103.018 14.7759 102.91C13.6307 101.745 11.4139 100.452 10.8477 101.062C10.4502 101.491 10.9721 102.744 11.7144 103.856C10.4601 103.386 9.10047 103.18 8.80821 103.713C8.41551 104.429 10.0941 106.216 11.4585 107.083C11.3765 107.073 11.2903 107.064 11.1986 107.058C9.60594 106.944 7.11644 107.458 7.06111 108.307C7.02227 108.903 8.19337 109.506 9.44572 109.852C8.19888 110.343 7.034 111.105 7.13973 111.71C7.26805 112.444 9.22534 112.701 10.7643 112.55C9.61458 113.706 8.36791 115.776 8.88818 116.382C9.26945 116.827 10.4981 116.367 11.6075 115.667C11.075 116.946 10.7859 118.352 11.2735 118.694C11.918 119.146 13.6855 117.574 14.6174 116.222C14.5225 117.876 14.9004 120.149 15.6503 120.239C15.9639 120.276 16.2962 119.926 16.5961 119.387L15.7467 132.265C15.5482 133.765 16.8181 134.743 16.9316 135.361L17.1148 144.082C16.9081 143.461 16.6296 142.825 16.2542 142.195L16.2169 142.219C16.265 141.323 16.1509 137.414 10.655 136.241C9.35882 135.965 8.14026 135.776 7.02325 135.65C5.70473 135.501 5.19041 137.392 6.38153 138.003C8.10654 138.887 9.72921 140.001 10.575 141.321C12.7373 144.695 15.7251 142.744 16.1498 142.442C16.6243 143.269 16.9354 144.103 17.1319 144.896L17.2292 149.527C17.2054 149.637 17.1889 149.698 17.1876 149.703L17.2332 149.717L17.4687 160.925L19.6527 160.907L18.8715 149.45C19.0028 148.832 19.4067 146.726 18.8715 144.54L18.0903 135.538C18.0884 135.531 18.1347 135.775 18.0903 135.538L17.0713 132.001C17.2195 130.907 17.5634 129.676 18.2618 128.458C18.6866 128.761 21.6743 130.711 23.8367 127.338C24.6824 126.018 26.3051 124.904 28.0301 124.019C29.2212 123.409 28.7069 121.518 27.3884 121.667ZM17.4113 148.185L17.3701 146.225C17.4531 146.966 17.4489 147.635 17.4113 148.185Z" fill="#F2F2F2"/>
<path d="M89.9689 55.0924L100.787 55.0558C101.469 55.0535 101.471 53.9429 100.787 53.9453L89.9689 53.9819C89.2869 53.9842 89.2856 55.0947 89.9689 55.0924Z" fill="#EDF2F4"/>
<path d="M119.489 77.5373C118.879 76.7435 118.097 76.1142 117.207 75.7022L116.617 74.9729L116.647 74.9428L105.176 55.1147L98.9596 35.7505C98.2403 33.51 95.8925 32.3389 93.7787 33.1663C91.664 33.994 90.6247 36.4923 91.4856 38.6782L98.7499 57.1227L113.518 78.1267L113.875 78.5905C114.095 79.5827 114.538 80.5053 115.169 81.2811C116.72 83.2456 118.945 83.9992 120.138 82.9651C121.331 81.9311 121.041 79.5009 119.489 77.5373Z" fill="#FFB6B6"/>
<path d="M123.699 81.7408C123.209 84.5947 121.406 86.643 119.672 86.3159C117.938 85.9887 116.931 83.4103 117.421 80.5554C117.603 79.4122 118.042 78.3311 118.704 77.4024L120.927 65.3379L125.48 66.271L123.547 78.3161C123.858 79.4286 123.91 80.6029 123.699 81.7408Z" fill="#FFB6B6"/>
<path d="M119.544 73.6564L118.648 76.3057L124.238 78.0844L123.782 75.1619L119.544 73.6564Z" fill="#EDF2F4"/>
<path d="M129.131 38.6891L128.866 43.6124L128.378 48.8985L128.375 48.9133L126.996 63.8053L125.954 75.0956L125.756 77.2093L124.039 76.8058L123.798 76.7503L122.049 76.3394L119.031 75.6249L118.89 75.5953L118.286 75.4509L119.823 49.0095L120.063 37.6416L120.275 27.6691L120.335 24.8854C122.289 23.7638 123.862 23.0049 123.862 23.0049L125.431 26.0329L125.551 26.2662C127.905 29.272 128.869 33.4549 129.092 37.7563C129.11 38.0673 129.12 38.3782 129.131 38.6891Z" fill="#2F2E41"/>
</g>
<defs>
<clipPath id="clip0_7_13">
<rect width="185.408" height="168.65" fill="white" transform="translate(0 0.695465)"/>
</clipPath>
</defs>
</svg>
