<svg width="277" height="154" viewBox="0 0 277 154" fill="none" xmlns="http://www.w3.org/2000/svg">
<g clip-path="url(#clip0_125_1039)">
<path d="M269.501 153.66L269.911 153.653C269.753 149.776 269.265 145.914 268.453 142.096C266.677 133.923 263.723 128.555 259.674 126.142L259.438 126.427C268.897 132.065 269.496 153.444 269.501 153.66Z" fill="#F1F1F1"/>
<path d="M264.366 153.576L264.777 153.57C264.768 153.183 264.511 144.083 260.29 141.568L260.055 141.853C264.105 144.267 264.364 153.484 264.366 153.576Z" fill="#F1F1F1"/>
<path d="M257.102 126.459C258.236 126.459 259.155 125.678 259.155 124.716C259.155 123.753 258.236 122.972 257.102 122.972C255.967 122.972 255.048 123.753 255.048 124.716C255.048 125.678 255.967 126.459 257.102 126.459Z" fill="#F1F1F1"/>
<path d="M258.119 141.452C259.253 141.452 260.173 140.672 260.173 139.709C260.173 138.746 259.253 137.966 258.119 137.966C256.984 137.966 256.065 138.746 256.065 139.709C256.065 140.672 256.984 141.452 258.119 141.452Z" fill="#F1F1F1"/>
<path d="M265.323 127.504C265.117 128.849 265.331 130.216 265.943 131.469C267.012 130.455 267.713 129.199 267.961 127.855C268.209 126.51 267.994 125.133 267.341 123.89C266.307 124.924 265.612 126.17 265.323 127.504Z" fill="#F1F1F1"/>
<path d="M258.61 132.587C260.134 132.993 261.757 133.053 263.317 132.759C262.327 131.689 260.993 130.885 259.476 130.443C257.959 130.001 256.325 129.942 254.769 130.271C255.788 131.315 257.113 132.114 258.61 132.587Z" fill="#F1F1F1"/>
<path d="M258.534 145.865C259.602 146.15 260.74 146.192 261.833 145.986C261.139 145.236 260.204 144.672 259.141 144.362C258.078 144.053 256.932 144.011 255.842 144.241C256.556 144.973 257.484 145.533 258.534 145.865Z" fill="#F1F1F1"/>
<path d="M94.5777 153.66L93.9814 153.65C94.212 148.023 94.9194 142.417 96.0979 136.876C98.6762 125.013 102.963 117.221 108.84 113.719L109.183 114.133C95.454 122.315 94.5847 153.347 94.5777 153.66Z" fill="#F1F1F1"/>
<path d="M102.031 153.539L101.434 153.529C101.447 152.968 101.82 139.759 107.946 136.108L108.288 136.523C102.409 140.026 102.033 153.404 102.031 153.539Z" fill="#F1F1F1"/>
<path d="M112.575 114.179C114.221 114.179 115.556 113.046 115.556 111.648C115.556 110.251 114.221 109.118 112.575 109.118C110.928 109.118 109.594 110.251 109.594 111.648C109.594 113.046 110.928 114.179 112.575 114.179Z" fill="#F1F1F1"/>
<path d="M111.098 135.941C112.745 135.941 114.08 134.808 114.08 133.411C114.08 132.013 112.745 130.88 111.098 130.88C109.452 130.88 108.117 132.013 108.117 133.411C108.117 134.808 109.452 135.941 111.098 135.941Z" fill="#F1F1F1"/>
<path d="M100.641 115.696C100.94 117.648 100.629 119.632 99.741 121.45C98.1892 119.978 97.1721 118.156 96.8121 116.205C96.4521 114.253 96.7647 112.255 97.7121 110.45C99.2126 111.951 100.223 113.76 100.641 115.696Z" fill="#F1F1F1"/>
<path d="M110.386 123.073C108.173 123.663 105.817 123.75 103.553 123.324C104.991 121.77 106.927 120.603 109.128 119.962C111.33 119.321 113.702 119.234 115.961 119.711C114.481 121.227 112.559 122.386 110.386 123.073Z" fill="#F1F1F1"/>
<path d="M110.496 142.346C108.945 142.759 107.294 142.82 105.707 142.521C106.714 141.432 108.071 140.614 109.614 140.165C111.157 139.716 112.82 139.655 114.403 139.989C113.366 141.052 112.019 141.864 110.496 142.346Z" fill="#F1F1F1"/>
<path d="M48.5182 45.8966L47.0837 38.4476L43.0336 37.5881C43.0336 37.5881 39.8191 36.7476 39.0677 42.2437C38.3164 47.7398 38.8988 58.0013 38.8988 58.0013L30.0064 81.9042C29.3236 82.1796 28.7488 82.6163 28.3508 83.1618C27.9527 83.7074 27.7484 84.3388 27.7621 84.9804C27.7759 85.622 28.0072 86.2467 28.4284 86.7796C28.8495 87.3125 29.4427 87.7311 30.1369 87.9852C30.8311 88.2394 31.5968 88.3184 32.3425 88.2127C33.0882 88.107 33.7822 87.8211 34.3414 87.3893C34.9006 86.9574 35.3014 86.398 35.4957 85.7778C35.69 85.1576 35.6697 84.5031 35.4371 83.8925L46.9994 61.4393L48.5182 45.8966Z" fill="#FFB7B7"/>
<path d="M73.1475 40.0346L71.0212 32.7058L74.3485 30.5654C74.3485 30.5654 76.9161 28.7211 80.1494 33.5254C83.3827 38.3297 87.5935 47.9612 87.5935 47.9612L106.828 66.9809C107.584 67.0066 108.314 67.2166 108.933 67.5857C109.551 67.9548 110.031 68.4674 110.315 69.0621C110.6 69.6567 110.676 70.3083 110.535 70.9388C110.394 71.5693 110.042 72.152 109.521 72.6171C109 73.0822 108.333 73.41 107.598 73.5613C106.863 73.7126 106.093 73.681 105.379 73.4703C104.665 73.2595 104.037 72.8785 103.572 72.3729C103.106 71.8673 102.822 71.2586 102.754 70.6195L81.7338 53.823L73.1475 40.0346Z" fill="#FFB7B7"/>
<path d="M89.7698 149.757L94.5932 149.756L96.888 133.964L89.7688 133.964L89.7698 149.757Z" fill="#FFB7B7"/>
<path d="M88.5394 148.42L98.0385 148.419H98.0388C99.6443 148.42 101.184 148.961 102.319 149.925C103.454 150.888 104.092 152.195 104.092 153.558V153.725L88.5397 153.725L88.5394 148.42Z" fill="#2F2E41"/>
<path d="M29.1809 149.757L34.0043 149.756L36.2991 133.964L29.1799 133.964L29.1809 149.757Z" fill="#FFB7B7"/>
<path d="M27.9505 148.42L37.4496 148.419H37.45C39.0554 148.42 40.5951 148.961 41.7304 149.925C42.8656 150.888 43.5034 152.195 43.5035 153.558V153.725L27.9508 153.725L27.9505 148.42Z" fill="#2F2E41"/>
<path d="M58.7636 25.9987C65.9685 25.9987 71.8093 21.0409 71.8093 14.925C71.8093 8.80918 65.9685 3.85132 58.7636 3.85132C51.5586 3.85132 45.7178 8.80918 45.7178 14.925C45.7178 21.0409 51.5586 25.9987 58.7636 25.9987Z" fill="#2F2E41"/>
<path d="M48.5807 8.95429C50.6888 7.16482 51.1161 4.62618 49.535 3.28408C47.9538 1.94198 44.9631 2.30464 42.855 4.09411C40.7468 5.88358 40.3196 8.42221 41.9007 9.76432C43.4818 11.1064 46.4725 10.7438 48.5807 8.95429Z" fill="#2F2E41"/>
<path d="M72.3607 5.43767C73.2391 3.69223 71.7286 1.47138 68.9869 0.477255C66.2452 -0.516866 63.3105 0.0922015 62.4322 1.83764C61.5538 3.58308 63.0643 5.80394 65.806 6.79806C68.5477 7.79218 71.4824 7.18311 72.3607 5.43767Z" fill="#2F2E41"/>
<path d="M68.8923 22.0765C71.8254 17.5221 69.8535 11.8118 64.488 9.32217C59.1226 6.83252 52.3954 8.50632 49.4624 13.0607C46.5293 17.6151 48.5012 23.3254 53.8667 25.815C59.2321 28.3047 65.9593 26.6309 68.8923 22.0765Z" fill="#FFB7B7"/>
<path d="M47.5435 11.6572C50.0735 13.1374 53.0765 13.9251 56.1493 13.9147C55.0532 14.5598 53.8054 14.9956 52.4918 15.192C56.5773 15.9359 60.7996 15.956 64.8947 15.2511C65.805 15.1272 66.6833 14.8712 67.4911 14.4942C67.8937 14.3033 68.2444 14.0427 68.5206 13.7293C68.7967 13.4158 68.992 13.0565 69.0938 12.6748C69.3659 11.3553 68.1546 10.1564 66.8957 9.34846C64.9684 8.1303 62.7461 7.29102 60.3898 6.89133C58.0334 6.49164 55.6018 6.54154 53.271 7.03741C51.749 7.37135 50.2243 7.93558 49.2357 8.97309C48.2472 10.0106 47.9543 11.6101 48.8962 12.6784L47.5435 11.6572Z" fill="#2F2E41"/>
<path d="M53.6285 29.7899L42.67 37.3866L52.245 56.7658L52.4276 59.8665C52.4276 59.8665 42.4879 67.6456 36.3378 89.3765C30.1877 111.107 17.7662 139.982 17.7662 139.982L42.6159 145.143L59.8934 95.9851L81.9182 134.551L85.0514 145.957L104.26 141.431L96.8468 110.82L78.6641 63.304L80.1572 50.1772C80.1572 50.1772 83.4845 43.6251 77.7042 36.6883L75.8911 30.1702L66.5058 28.8123L53.6285 29.7899Z" fill="#2F2E41"/>
<path d="M237.903 98.7563H161.821C161.214 98.7557 160.631 98.5506 160.202 98.1859C159.772 97.8212 159.53 97.3268 159.53 96.8111V75.0248C159.53 74.5091 159.772 74.0147 160.202 73.65C160.631 73.2853 161.214 73.0802 161.821 73.0796H237.903C238.51 73.0802 239.093 73.2853 239.523 73.65C239.952 74.0147 240.194 74.5091 240.195 75.0248V96.8111C240.194 97.3268 239.952 97.8212 239.523 98.1859C239.093 98.5506 238.51 98.7557 237.903 98.7563Z" fill="#E5E5E5"/>
<path d="M191.612 78.915H171.446V80.8602H191.612V78.915Z" fill="#EDF2F4"/>
<path d="M218.195 81.2493C218.954 81.2493 219.57 80.7267 219.57 80.0822C219.57 79.4376 218.954 78.915 218.195 78.915C217.436 78.915 216.82 79.4376 216.82 80.0822C216.82 80.7267 217.436 81.2493 218.195 81.2493Z" fill="#EDF2F4"/>
<path d="M222.778 81.2493C223.538 81.2493 224.153 80.7267 224.153 80.0822C224.153 79.4376 223.538 78.915 222.778 78.915C222.019 78.915 221.403 79.4376 221.403 80.0822C221.403 80.7267 222.019 81.2493 222.778 81.2493Z" fill="#EDF2F4"/>
<path d="M227.362 81.2493C228.121 81.2493 228.737 80.7267 228.737 80.0822C228.737 79.4376 228.121 78.915 227.362 78.915C226.602 78.915 225.987 79.4376 225.987 80.0822C225.987 80.7267 226.602 81.2493 227.362 81.2493Z" fill="#EDF2F4"/>
<path d="M237.903 126.378H161.821C161.214 126.378 160.631 126.172 160.202 125.808C159.772 125.443 159.53 124.949 159.53 124.433V102.647C159.53 102.131 159.772 101.636 160.202 101.272C160.631 100.907 161.214 100.702 161.821 100.701H237.903C238.51 100.702 239.093 100.907 239.523 101.272C239.952 101.636 240.194 102.131 240.195 102.647V124.433C240.194 124.949 239.952 125.443 239.523 125.808C239.093 126.172 238.51 126.378 237.903 126.378Z" fill="#E5E5E5"/>
<path d="M191.612 106.537H171.446V108.482H191.612V106.537Z" fill="#EDF2F4"/>
<path d="M218.195 108.871C218.954 108.871 219.57 108.349 219.57 107.704C219.57 107.06 218.954 106.537 218.195 106.537C217.436 106.537 216.82 107.06 216.82 107.704C216.82 108.349 217.436 108.871 218.195 108.871Z" fill="#EDF2F4"/>
<path d="M222.778 108.871C223.538 108.871 224.153 108.349 224.153 107.704C224.153 107.06 223.538 106.537 222.778 106.537C222.019 106.537 221.403 107.06 221.403 107.704C221.403 108.349 222.019 108.871 222.778 108.871Z" fill="#EDF2F4"/>
<path d="M227.362 108.871C228.121 108.871 228.737 108.349 228.737 107.704C228.737 107.06 228.121 106.537 227.362 106.537C226.602 106.537 225.987 107.06 225.987 107.704C225.987 108.349 226.602 108.871 227.362 108.871Z" fill="#EDF2F4"/>
<path d="M237.903 154H161.821C161.214 153.999 160.631 153.794 160.202 153.43C159.772 153.065 159.53 152.57 159.53 152.055V130.268C159.53 129.753 159.772 129.258 160.202 128.894C160.631 128.529 161.214 128.324 161.821 128.323H237.903C238.51 128.324 239.093 128.529 239.523 128.894C239.952 129.258 240.194 129.753 240.195 130.268V152.055C240.194 152.57 239.952 153.065 239.523 153.43C239.093 153.794 238.51 153.999 237.903 154Z" fill="#E5E5E5"/>
<path d="M191.612 134.159H171.446V136.104H191.612V134.159Z" fill="#EDF2F4"/>
<path d="M218.195 136.493C218.954 136.493 219.57 135.971 219.57 135.326C219.57 134.681 218.954 134.159 218.195 134.159C217.436 134.159 216.82 134.681 216.82 135.326C216.82 135.971 217.436 136.493 218.195 136.493Z" fill="#EDF2F4"/>
<path d="M222.778 136.493C223.538 136.493 224.153 135.971 224.153 135.326C224.153 134.681 223.538 134.159 222.778 134.159C222.019 134.159 221.403 134.681 221.403 135.326C221.403 135.971 222.019 136.493 222.778 136.493Z" fill="#EDF2F4"/>
<path d="M227.362 136.493C228.121 136.493 228.737 135.971 228.737 135.326C228.737 134.681 228.121 134.159 227.362 134.159C226.602 134.159 225.987 134.681 225.987 135.326C225.987 135.971 226.602 136.493 227.362 136.493Z" fill="#EDF2F4"/>
<path d="M146.605 107.024C145.156 107.02 143.714 106.862 142.311 106.553L142.034 106.488L141.778 106.379C132.506 102.433 124.684 97.2209 118.529 90.8876C113.434 85.6141 109.462 79.6267 106.791 73.1945C103.597 65.4935 102.06 57.3678 102.254 49.2052C102.258 49.0338 102.261 48.9015 102.261 48.8104C102.261 44.8425 104.856 41.3609 108.872 39.9407C111.945 38.8537 139.85 29.1247 141.866 28.4218C145.663 26.8068 149.714 28.1548 150.362 28.3904C151.816 28.8951 177.612 37.8511 183.187 40.1042C188.932 42.4265 190.465 46.5982 190.465 48.6971C190.465 58.1994 188.526 67.0801 184.702 75.0925C181.614 81.5779 177.237 87.5652 171.762 92.7935C161.2 102.884 150.634 106.461 150.532 106.492C149.269 106.861 147.941 107.041 146.605 107.024ZM144.121 101.8C145.037 101.974 147.146 102.236 148.52 101.81C150.266 101.27 159.11 97.377 167.374 89.4831C178.791 78.5764 184.585 64.8659 184.593 48.7322C184.573 48.4053 184.299 46.0741 180.662 44.604C175.196 42.3944 148.383 33.088 148.113 32.9942L148.039 32.9675C147.477 32.7676 145.689 32.3466 144.456 32.8949L144.209 32.9926C143.91 33.0968 114.289 43.4238 111.13 44.5411C108.92 45.3226 108.133 47.2589 108.133 48.8104C108.133 48.9238 108.129 49.0887 108.124 49.3018C107.872 60.3411 110.881 87.5054 144.121 101.8Z" fill="#3F3D56"/>
<path d="M143.094 30.6875C143.094 30.6875 113.203 41.1082 110.001 42.2408C106.798 43.3735 105.197 46.092 105.197 48.8104C105.197 51.5288 102.795 87.0006 143.094 104.151C143.094 104.151 146.751 105.01 149.526 104.151C152.301 103.292 187.529 88.7939 187.529 48.6971C187.529 48.6971 187.529 44.6195 181.924 42.3541C176.32 40.0888 149.224 30.6875 149.224 30.6875C149.224 30.6875 145.896 29.4416 143.094 30.6875Z" fill="#EDF2F4"/>
<path opacity="0.2" d="M146.296 38.8428V94.4331C146.296 94.4331 176.453 82.111 176.187 49.7165L146.296 38.8428Z" fill="black"/>
<path d="M276.665 154H0.335351C0.24641 154 0.161112 153.97 0.0982218 153.917C0.0353313 153.863 0 153.791 0 153.715C0 153.64 0.0353313 153.567 0.0982218 153.514C0.161112 153.461 0.24641 153.431 0.335351 153.431H276.665C276.754 153.431 276.839 153.461 276.902 153.514C276.965 153.567 277 153.64 277 153.715C277 153.791 276.965 153.863 276.902 153.917C276.839 153.97 276.754 154 276.665 154Z" fill="#CBCBCB"/>
</g>
<defs>
<clipPath id="clip0_125_1039">
<rect width="277" height="154" fill="white"/>
</clipPath>
</defs>
</svg>
