<svg width="239" height="121" viewBox="0 0 239 121" fill="none" xmlns="http://www.w3.org/2000/svg">
<g clip-path="url(#clip0_125_973)">
<path d="M186.693 18.1791H128.088V16.9004H101.514V18.1791H42.6663C41.6149 18.1791 40.6065 18.6213 39.863 19.4084C39.1195 20.1955 38.7018 21.263 38.7018 22.3762V107.332C38.7018 108.445 39.1195 109.513 39.863 110.3C40.6065 111.087 41.6149 111.529 42.6663 111.529H186.693C187.745 111.529 188.753 111.087 189.497 110.3C190.24 109.513 190.658 108.445 190.658 107.332V22.3757C190.658 21.2627 190.24 20.1952 189.496 19.4082C188.753 18.6212 187.745 18.1791 186.693 18.1791Z" fill="#3F3D56"/>
<path d="M185.343 25.5957H44.017V109.994H185.343V25.5957Z" fill="#E6E6E6"/>
<path d="M179.397 30.0591H50.0105V103.011H179.397V30.0591Z" fill="#EDF2F4"/>
<path d="M114.559 23.2942C115.359 23.2942 116.008 22.6072 116.008 21.7597C116.008 20.9121 115.359 20.2251 114.559 20.2251C113.758 20.2251 113.109 20.9121 113.109 21.7597C113.109 22.6072 113.758 23.2942 114.559 23.2942Z" fill="#EDF2F4"/>
<path d="M194.626 108.46H180.833V107.407C180.833 107.352 180.812 107.299 180.775 107.26C180.738 107.221 180.688 107.199 180.636 107.199H175.907C175.855 107.199 175.805 107.221 175.768 107.26C175.731 107.299 175.71 107.352 175.71 107.407V108.46H172.755V107.407C172.755 107.352 172.734 107.299 172.697 107.26C172.66 107.221 172.61 107.199 172.558 107.199H167.829C167.776 107.199 167.726 107.221 167.689 107.26C167.652 107.299 167.632 107.352 167.632 107.407V108.46H164.676V107.407C164.676 107.352 164.655 107.299 164.618 107.26C164.582 107.221 164.531 107.199 164.479 107.199H159.75C159.698 107.199 159.648 107.221 159.611 107.26C159.574 107.299 159.553 107.352 159.553 107.407V108.46H156.598V107.407C156.598 107.352 156.577 107.299 156.54 107.26C156.503 107.221 156.453 107.199 156.401 107.199H151.672C151.62 107.199 151.57 107.221 151.533 107.26C151.496 107.299 151.475 107.352 151.475 107.407V108.46H148.519V107.407C148.519 107.352 148.498 107.299 148.462 107.26C148.425 107.221 148.374 107.199 148.322 107.199H143.594C143.541 107.199 143.491 107.221 143.454 107.26C143.417 107.299 143.396 107.352 143.396 107.407V108.46H140.441V107.407C140.441 107.352 140.42 107.299 140.383 107.26C140.346 107.221 140.296 107.199 140.244 107.199H135.516C135.464 107.199 135.414 107.221 135.377 107.26C135.34 107.299 135.319 107.352 135.319 107.407V108.46H132.362V107.407C132.362 107.352 132.342 107.299 132.305 107.26C132.268 107.221 132.217 107.199 132.165 107.199H95.1227C95.0704 107.199 95.0203 107.221 94.9833 107.26C94.9464 107.299 94.9256 107.352 94.9256 107.407V108.46H91.9702V107.407C91.9702 107.352 91.9494 107.299 91.9125 107.26C91.8755 107.221 91.8254 107.199 91.7731 107.199H87.0442C86.992 107.199 86.9418 107.221 86.9049 107.26C86.8679 107.299 86.8471 107.352 86.8471 107.407V108.46H83.8917V107.407C83.8917 107.352 83.871 107.299 83.834 107.26C83.797 107.221 83.7469 107.199 83.6946 107.199H78.966C78.9137 107.199 78.8636 107.221 78.8266 107.26C78.7896 107.299 78.7689 107.352 78.7689 107.407V108.46H75.8133V107.407C75.8133 107.352 75.7925 107.299 75.7555 107.26C75.7186 107.221 75.6684 107.199 75.6161 107.199H70.8875C70.8352 107.199 70.7851 107.221 70.7481 107.26C70.7112 107.299 70.6904 107.352 70.6904 107.407V108.46H67.7355V107.407C67.7355 107.352 67.7147 107.299 67.6777 107.26C67.6408 107.221 67.5906 107.199 67.5384 107.199H62.809C62.7568 107.199 62.7066 107.221 62.6697 107.26C62.6327 107.299 62.6119 107.352 62.6119 107.407V108.46H59.6565V107.407C59.6565 107.352 59.6358 107.299 59.5988 107.26C59.5618 107.221 59.5117 107.199 59.4594 107.199H54.7306C54.6783 107.199 54.6282 107.221 54.5912 107.26C54.5542 107.299 54.5335 107.352 54.5335 107.407V108.46H51.5781V107.407C51.5781 107.352 51.5573 107.299 51.5203 107.26C51.4834 107.221 51.4332 107.199 51.381 107.199H46.6512C46.5989 107.199 46.5488 107.221 46.5118 107.26C46.4749 107.299 46.4541 107.352 46.4541 107.407V108.46H37.3915C36.1373 108.46 34.9345 108.987 34.0477 109.926C33.1608 110.865 32.6626 112.138 32.6626 113.466V115.729C32.6626 117.057 33.1608 118.33 34.0477 119.269C34.9345 120.208 36.1373 120.736 37.3915 120.736H194.626C195.88 120.736 197.082 120.208 197.969 119.269C198.856 118.331 199.354 117.057 199.354 115.73V113.466C199.354 112.138 198.856 110.865 197.969 109.926C197.083 108.987 195.88 108.46 194.626 108.46V108.46Z" fill="#3F3D56"/>
<path d="M143.312 35.1755H86.0961V98.8476H143.312V35.1755Z" fill="#E6E6E6"/>
<path d="M239 120.523H0V121H239V120.523Z" fill="#E6E6E6"/>
<path d="M215.789 103.862C219.027 107.541 219.194 112.948 219.194 112.948C219.194 112.948 214.111 112.39 210.873 108.712C207.635 105.033 207.467 99.626 207.467 99.626C207.467 99.626 212.55 100.184 215.789 103.862Z" fill="#EDF2F4"/>
<path d="M225.983 109.604C222.508 113.033 217.401 113.21 217.401 113.21C217.401 113.21 217.927 107.829 221.402 104.4C224.877 100.972 229.985 100.795 229.985 100.795C229.985 100.795 229.458 106.176 225.983 109.604Z" fill="#EDF2F4"/>
<path d="M225.119 120.523H212.338C212.093 120.523 211.853 120.45 211.645 120.312C211.437 120.175 211.27 119.978 211.163 119.744L208.38 113.689C208.283 113.478 208.238 113.244 208.25 113.01C208.262 112.775 208.329 112.548 208.447 112.349C208.565 112.15 208.728 111.986 208.922 111.872C209.116 111.759 209.334 111.699 209.556 111.699H227.902C228.124 111.699 228.342 111.759 228.536 111.872C228.73 111.986 228.894 112.15 229.011 112.349C229.129 112.548 229.197 112.775 229.208 113.01C229.22 113.244 229.175 113.478 229.078 113.689L226.295 119.745C226.188 119.978 226.021 120.175 225.813 120.313C225.605 120.45 225.365 120.523 225.12 120.523L225.119 120.523Z" fill="#E5E5E5"/>
<path d="M13.7311 103.862C16.9694 107.541 17.1368 112.948 17.1368 112.948C17.1368 112.948 12.0538 112.39 8.81548 108.712C5.57716 105.033 5.40979 99.626 5.40979 99.626C5.40979 99.626 10.4928 100.184 13.7311 103.862Z" fill="#E5E5E5"/>
<path d="M21.0347 120.523H8.25375C8.00852 120.523 7.76821 120.45 7.5603 120.312C7.3524 120.175 7.1853 119.978 7.07812 119.744L4.2955 113.689C4.19833 113.478 4.15347 113.244 4.16514 113.01C4.17682 112.775 4.24464 112.548 4.36223 112.349C4.47982 112.15 4.64331 111.986 4.8373 111.872C5.0313 111.759 5.24942 111.699 5.47112 111.699H23.8176C24.0393 111.699 24.2574 111.759 24.4514 111.872C24.6454 111.986 24.8089 112.15 24.9265 112.349C25.0441 112.548 25.1119 112.775 25.1236 113.01C25.1352 113.244 25.0904 113.478 24.9932 113.689L22.2106 119.745C22.1034 119.978 21.9363 120.175 21.7284 120.313C21.5205 120.45 21.2802 120.523 21.035 120.523L21.0347 120.523Z" fill="#E5E5E5"/>
<path d="M121.607 53.2001C125.807 53.2001 129.212 49.5959 129.212 45.15C129.212 40.704 125.807 37.0999 121.607 37.0999C117.408 37.0999 114.003 40.704 114.003 45.15C114.003 49.5959 117.408 53.2001 121.607 53.2001Z" fill="#A0616A"/>
<path d="M104.112 98.9787L109.022 66.2515C109.283 64.5115 109.891 62.8503 110.806 61.3784C111.721 59.9065 112.921 58.6577 114.327 57.7151C115.733 56.7726 117.313 56.1578 118.961 55.9117C120.609 55.6656 122.287 55.7938 123.885 56.2879C126.678 57.1431 129.069 59.0699 130.592 61.692C132.115 64.314 132.66 67.4429 132.12 70.4675L126.984 99.6944L104.112 98.9787Z" fill="#EDF2F4"/>
<path d="M123.707 104.834C124.087 104.569 124.407 104.218 124.645 103.808C124.883 103.397 125.033 102.936 125.085 102.457C125.136 101.979 125.088 101.494 124.943 101.037C124.799 100.58 124.561 100.162 124.248 99.8132L129.324 89.4065L123.607 90.0523L119.663 99.8358C119.146 100.433 118.853 101.21 118.841 102.02C118.828 102.83 119.095 103.617 119.593 104.232C120.091 104.847 120.784 105.248 121.542 105.359C122.3 105.47 123.07 105.284 123.707 104.835L123.707 104.834Z" fill="#A0616A"/>
<path d="M124.794 97.9776C124.513 97.9356 124.251 97.804 124.043 97.6003L122.101 95.7004C121.891 95.4942 121.746 95.2247 121.686 94.9285C121.625 94.6322 121.652 94.3235 121.763 94.044L125.644 84.3036L125.094 65.0577C125.255 63.8091 125.877 62.6793 126.825 61.9169C127.773 61.1544 128.968 60.8218 130.147 60.9921C131.327 61.1624 132.394 61.8218 133.114 62.8251C133.834 63.8284 134.148 65.0935 133.988 66.3421L134.929 78.4405C135.215 82.1124 134.232 85.7693 132.162 88.7311L126.109 97.3945C125.992 97.561 125.844 97.6997 125.674 97.8015C125.503 97.9034 125.314 97.9661 125.12 97.9857C125.011 97.9966 124.902 97.9939 124.794 97.9776Z" fill="#EDF2F4"/>
<path d="M77.8178 40.7639C77.9006 41.2377 78.0806 41.6865 78.345 42.0786C78.6094 42.4708 78.9518 42.7968 79.3481 43.0338C79.7444 43.2707 80.185 43.4128 80.6387 43.45C81.0925 43.4871 81.5484 43.4186 81.9745 43.249L89.0476 52.2552L90.7145 46.4303L83.7423 38.7708C83.4242 38.0344 82.8625 37.4467 82.1632 37.1187C81.4639 36.7906 80.6754 36.7449 79.9465 36.9902C79.2175 37.2354 78.5986 37.7546 78.2065 38.4499C77.8143 39.1451 77.6759 39.9682 77.8178 40.7639Z" fill="#A0616A"/>
<path d="M83.3585 44.4969C83.5045 44.2396 83.7212 44.0354 83.9795 43.9117L86.3898 42.7592C86.651 42.635 86.942 42.5988 87.2232 42.6554C87.5045 42.712 87.7626 42.8587 87.9626 43.0756L94.9217 50.6574L111.877 57.6243C112.385 57.9428 112.827 58.364 113.181 58.8637C113.534 59.3635 113.791 59.932 113.937 60.5369C114.082 61.1418 114.114 61.7711 114.03 62.389C113.946 63.0068 113.747 63.601 113.446 64.1377C113.145 64.6743 112.747 65.1429 112.274 65.5166C111.802 65.8903 111.265 66.1618 110.693 66.3156C110.122 66.4694 109.527 66.5025 108.944 66.413C108.36 66.3235 107.799 66.1131 107.293 65.7939L96.4019 61.9946C93.0963 60.842 90.2988 58.4575 88.5296 55.2847L83.354 46.0057C83.2546 45.8273 83.1918 45.6287 83.1696 45.4229C83.1475 45.217 83.1665 45.0085 83.2254 44.811C83.2581 44.7012 83.3031 44.5958 83.3592 44.4972L83.3585 44.4969Z" fill="#EDF2F4"/>
<path opacity="0.1" d="M127.775 73.0637L127.466 83.552L121.762 94.0447L126.525 82.3524L127.775 73.0637Z" fill="black"/>
<path d="M116.458 41.1151C117.242 42.0978 118.569 42.3749 119.794 42.4887C122.281 42.7195 125.896 42.3456 128.327 41.7511C128.5 43.5308 128.027 45.4496 129.017 46.9135C129.481 45.1412 129.751 43.3181 129.822 41.4804C129.852 40.6935 129.84 39.8769 129.537 39.1534C129.235 38.4299 128.575 37.8158 127.815 37.8094C128.38 37.356 129.041 37.0568 129.74 36.938L127.335 35.6581L127.953 34.9866L123.597 34.7045L124.858 33.856C122.96 33.5801 121.039 33.5161 119.128 33.6652C118.24 33.7344 117.312 33.8667 116.593 34.4112C115.874 34.9556 115.458 36.0375 115.905 36.8369C115.346 36.9341 114.82 37.1807 114.376 37.5534C113.932 37.9261 113.586 38.4126 113.369 38.9667C113.049 39.8271 113.078 40.7829 113.177 41.6998C113.341 43.1663 113.663 44.6081 114.137 45.9971" fill="#2F2E41"/>
<path d="M148.965 20.9483L79.6757 37.8833C79.3355 37.966 78.9781 37.9024 78.682 37.7066C78.3859 37.5107 78.1753 37.1985 78.0964 36.8385L74.1283 18.6426C74.0502 18.2824 74.1102 17.9041 74.2952 17.5906C74.4802 17.2772 74.7751 17.0542 75.1152 16.9706L144.404 0.0356484C144.745 -0.0470646 145.102 0.0164799 145.398 0.212341C145.694 0.408202 145.905 0.720386 145.984 1.08042L149.952 19.2763C150.03 19.6365 149.97 20.0149 149.785 20.3283C149.6 20.6417 149.305 20.8647 148.965 20.9483Z" fill="#EDF2F4"/>
<path d="M148.965 20.9483L79.6757 37.8833C79.3355 37.966 78.9781 37.9024 78.682 37.7066C78.3859 37.5107 78.1753 37.1985 78.0964 36.8385L74.1283 18.6426C74.0502 18.2824 74.1102 17.9041 74.2952 17.5906C74.4802 17.2772 74.7751 17.0542 75.1152 16.9706L144.404 0.0356484C144.745 -0.0470646 145.102 0.0164799 145.398 0.212341C145.694 0.408202 145.905 0.720386 145.984 1.08042L149.952 19.2763C150.03 19.6365 149.97 20.0149 149.785 20.3283C149.6 20.6417 149.305 20.8647 148.965 20.9483ZM75.2337 17.5141C75.0296 17.5642 74.8527 17.698 74.7416 17.8861C74.6306 18.0742 74.5946 18.3012 74.6415 18.5174L78.6096 36.7133C78.6569 36.9294 78.7833 37.1168 78.9609 37.2343C79.1386 37.3518 79.3531 37.3899 79.5573 37.3402L148.847 20.4052C149.051 20.3552 149.228 20.2214 149.339 20.0333C149.45 19.8452 149.486 19.6181 149.439 19.4019L145.471 1.20583C145.423 0.989744 145.297 0.80236 145.119 0.684816C144.942 0.567272 144.727 0.529176 144.523 0.578887L75.2337 17.5141Z" fill="#E6E6E6"/>
<path d="M99.2764 17.458C99.1619 17.4857 99.0537 17.537 98.958 17.609C98.8623 17.681 98.7808 17.7723 98.7184 17.8776C98.656 17.9829 98.6138 18.1002 98.5942 18.2227C98.5746 18.3453 98.578 18.4708 98.6042 18.592C98.6305 18.7132 98.679 18.8277 98.747 18.929C98.815 19.0303 98.9013 19.1165 99.0008 19.1825C99.1002 19.2486 99.2111 19.2932 99.3269 19.3139C99.4426 19.3346 99.5612 19.331 99.6756 19.3032L99.6786 19.3025L140.746 9.26513C140.977 9.20834 141.177 9.05693 141.302 8.84417C141.428 8.6314 141.468 8.37465 141.415 8.13031C141.362 7.88597 141.219 7.674 141.018 7.54095C140.817 7.40789 140.575 7.36463 140.344 7.42066L99.2764 17.458Z" fill="#E6E6E6"/>
<path d="M100.483 22.9916C100.369 23.0193 100.261 23.0706 100.165 23.1426C100.069 23.2146 99.9876 23.3059 99.9252 23.4112C99.8628 23.5165 99.8206 23.6338 99.801 23.7563C99.7814 23.8789 99.7848 24.0044 99.811 24.1256C99.8372 24.2468 99.8857 24.3613 99.9538 24.4626C100.022 24.564 100.108 24.6501 100.208 24.7162C100.307 24.7822 100.418 24.8268 100.534 24.8475C100.649 24.8682 100.768 24.8646 100.882 24.8368L100.885 24.8361L118.557 20.517C118.788 20.4609 118.989 20.3099 119.114 20.0973C119.24 19.8846 119.281 19.6278 119.228 19.3831C119.176 19.1385 119.033 18.9261 118.832 18.7927C118.631 18.6593 118.389 18.6158 118.158 18.6718L118.155 18.6725L100.483 22.9916Z" fill="#E6E6E6"/>
<path d="M88.0495 29.7224C91.0121 29.7224 93.4138 27.1799 93.4138 24.0435C93.4138 20.9071 91.0121 18.3645 88.0495 18.3645C85.0869 18.3645 82.6852 20.9071 82.6852 24.0435C82.6852 27.1799 85.0869 29.7224 88.0495 29.7224Z" fill="#EDF2F4"/>
<path d="M87.8987 27.3195C87.7231 27.3627 87.5391 27.3443 87.3742 27.267L87.3639 27.2622L85.2055 26.2249C85.1053 26.1768 85.015 26.1083 84.9398 26.0232C84.8646 25.9382 84.806 25.8383 84.7673 25.7292C84.7286 25.6202 84.7106 25.5041 84.7143 25.3877C84.7181 25.2713 84.7434 25.1568 84.789 25.0508C84.8345 24.9447 84.8994 24.8492 84.9798 24.7698C85.0603 24.6903 85.1547 24.6284 85.2578 24.5876C85.3608 24.5468 85.4705 24.5279 85.5804 24.532C85.6904 24.5361 85.7985 24.5631 85.8986 24.6115L87.2972 25.2856L89.2594 20.7212C89.3513 20.5075 89.5196 20.3412 89.7273 20.2589C89.935 20.1765 90.1651 20.1849 90.367 20.2821L90.3552 20.3119L90.3676 20.282C90.5693 20.3795 90.7263 20.5577 90.804 20.7776C90.8817 20.9975 90.8739 21.241 90.7822 21.4548L88.4745 26.8241C88.421 26.9478 88.3413 27.0568 88.2416 27.1426C88.1419 27.2285 88.0248 27.2888 87.8995 27.319L87.8987 27.3195Z" fill="#EDF2F4"/>
</g>
<defs>
<clipPath id="clip0_125_973">
<rect width="239" height="121" fill="white"/>
</clipPath>
</defs>
</svg>
