<svg width="258" height="181" viewBox="0 0 258 181" fill="none" xmlns="http://www.w3.org/2000/svg">
<g clip-path="url(#clip0_283_857)">
<path d="M194.623 104.178C195.44 113.395 195.245 122.006 193.292 129.563L222.05 129.546L235.063 121.807C231.508 111.606 229.09 109.866 231.762 102.768L194.623 104.178Z" fill="#FFB6B6"/>
<path d="M194.978 103.689C195.796 109.709 192.751 112.903 190.799 117.839C196.491 114.726 206.241 114.885 212.843 116.117L233.467 119.965C229.912 113.303 229.446 107.404 232.117 102.768L194.978 103.689Z" fill="#3F3D56"/>
<path d="M234.41 118.939L243.915 139.012C246.997 145.519 248.262 152.549 247.612 159.546L245.618 181H217.058C217.058 181 215.607 175.747 216.695 176.039C217.783 176.331 215.257 174.914 216.52 173.648C217.783 172.382 216.08 167.642 216.08 167.642C216.08 167.642 214.26 173.071 211.614 181H180.231C182.877 166.369 185.7 148.782 184.217 147.576C181.653 145.492 184.306 146.136 186.966 144.109C189.625 142.086 188.847 140.494 187.446 139.312C186.048 138.134 188.018 137.672 189.259 136.615C190.497 135.557 193.587 122.773 193.587 122.773C193.608 122.786 194.649 122.853 194.671 122.863C195.382 123.47 199.75 124.685 209.96 124.685C218.85 124.685 232.394 119.814 234.076 119.088C234.296 118.991 234.41 118.939 234.41 118.939Z" fill="#2F2E41"/>
<path d="M30.196 0.323242C28.6244 0.323242 27.3457 1.41577 27.3457 2.75854C27.3457 4.10132 28.6244 5.19385 30.196 5.19385H94.2908C95.8624 5.19385 97.1411 4.10132 97.1411 2.75854C97.1411 1.41577 95.8624 0.323242 94.2908 0.323242H30.196Z" fill="#F2F2F2"/>
<path d="M30.196 48.6182C28.6244 48.6182 27.3457 49.7107 27.3457 51.0535C27.3457 52.3962 28.6244 53.4888 30.196 53.4888H94.2908C95.8624 53.4888 97.1411 52.3962 97.1411 51.0535C97.1411 49.7107 95.8624 48.6182 94.2908 48.6182H30.196Z" fill="#F2F2F2"/>
<path d="M42.3086 16.4219C40.737 16.4219 39.4583 17.5144 39.4583 18.8572C39.4583 20.2 40.737 21.2925 42.3086 21.2925H149.554C151.125 21.2925 152.404 20.2 152.404 18.8572C152.404 17.5144 151.125 16.4219 149.554 16.4219H42.3086Z" fill="#F2F2F2"/>
<path d="M42.3086 32.5195C40.737 32.5195 39.4583 33.6121 39.4583 34.9548C39.4583 36.2976 40.737 37.3901 42.3086 37.3901H149.554C151.125 37.3901 152.404 36.2976 152.404 34.9548C152.404 33.6121 151.125 32.5195 149.554 32.5195H42.3086Z" fill="#F2F2F2"/>
<path d="M13.5529 4.58116C14.7311 4.58116 15.6863 3.76506 15.6863 2.75835C15.6863 1.75164 14.7311 0.935547 13.5529 0.935547C12.3746 0.935547 11.4194 1.75164 11.4194 2.75835C11.4194 3.76506 12.3746 4.58116 13.5529 4.58116Z" fill="#F2F2F2"/>
<path d="M13.5529 52.8761C14.7311 52.8761 15.6863 52.06 15.6863 51.0533C15.6863 50.0466 14.7311 49.2305 13.5529 49.2305C12.3746 49.2305 11.4194 50.0466 11.4194 51.0533C11.4194 52.06 12.3746 52.8761 13.5529 52.8761Z" fill="#F2F2F2"/>
<path d="M26.7091 20.6798C27.8874 20.6798 28.8426 19.8637 28.8426 18.857C28.8426 17.8503 27.8874 17.0342 26.7091 17.0342C25.5309 17.0342 24.5757 17.8503 24.5757 18.857C24.5757 19.8637 25.5309 20.6798 26.7091 20.6798Z" fill="#F2F2F2"/>
<path d="M26.7091 36.7784C27.8874 36.7784 28.8426 35.9623 28.8426 34.9556C28.8426 33.9489 27.8874 33.1328 26.7091 33.1328C25.5309 33.1328 24.5757 33.9489 24.5757 34.9556C24.5757 35.9623 25.5309 36.7784 26.7091 36.7784Z" fill="#F2F2F2"/>
<path d="M4.51104 4.60422L3.64898 4.52417C3.73351 4.2795 3.77507 4.01876 3.82062 3.78125C4.032 2.6788 4.0893 1.563 3.97684 0.449804C3.93697 0.0550693 3.42388 -0.149474 3.06633 0.127571L1.20292 1.57148C0.693297 1.96636 1.44948 2.60934 1.95721 2.21592C2.29251 1.95611 2.62781 1.69627 2.96314 1.43645C2.97051 1.9419 2.94805 2.44748 2.88516 2.95088C2.83544 3.34869 2.76423 3.74795 2.6595 4.13804C2.63506 4.22909 2.61184 4.33565 2.55843 4.42291C2.40751 4.40889 2.25659 4.39489 2.10567 4.38087C1.59972 4.33391 1.46547 4.89115 1.72853 5.15881C2.00599 5.44114 2.46882 5.48645 2.85341 5.3617L4.51104 5.51562C4.79786 5.54225 5.0444 5.2871 5.0444 5.05992C5.0444 4.79141 4.79868 4.63092 4.51104 4.60422ZM2.44223 4.52206C2.43023 4.52579 2.4196 4.52875 2.41914 4.52627C2.41699 4.51466 2.42739 4.51581 2.44223 4.52206Z" fill="#F2F2F2"/>
<path d="M4.79042 20.8934C4.29879 20.8596 3.80721 20.8259 3.31558 20.7921C4.23794 20.0655 4.91069 19.0804 5.02975 18.0244C5.11645 17.2555 4.73269 16.392 3.87303 16.0513C3.00782 15.7084 1.95951 15.9874 1.62614 16.7848C1.27538 17.6239 2.23289 18.5236 3.24492 18.2502C3.89714 18.074 3.61853 17.1939 2.96135 17.3714C2.8031 17.4141 2.62252 17.3294 2.61223 17.1701C2.60131 17.0009 2.80284 16.8499 2.98098 16.8152C3.71139 16.6728 4.00806 17.4723 3.97143 17.937C3.87705 19.1346 2.73782 20.2172 1.54864 20.7516C1.0456 20.9776 1.32755 21.5671 1.81783 21.6008C2.8087 21.6688 3.79955 21.7368 4.79042 21.8048C5.07791 21.8245 5.32378 21.5812 5.32378 21.3491C5.32378 21.0861 5.07873 20.9131 4.79042 20.8934Z" fill="#F2F2F2"/>
<path d="M4.99798 34.6297C5.41887 34.2379 5.53064 33.6355 5.32677 33.1376C5.09622 32.5746 4.5011 32.1589 3.82615 32.0265C3.09693 31.8835 2.34741 32.0473 1.72129 32.3795C1.13928 32.6883 1.67426 33.477 2.25969 33.1664C2.85097 32.8527 3.79807 32.6975 4.24158 33.2934C4.39438 33.4988 4.42414 33.8202 4.22272 34.0117C4.16889 34.0629 4.10459 34.0964 4.03701 34.1214C3.80071 34.0572 3.5494 34.0216 3.286 34.0281C2.75175 34.0414 2.56747 34.6346 3.01682 34.8773C3.29457 35.0273 3.61431 35.0852 3.92871 35.0657C4.46151 35.3034 4.76174 35.8426 4.51077 36.379C4.18218 37.0815 3.11689 37.2344 2.49561 36.7158C2.00425 36.3056 1.24926 36.9495 1.74132 37.3602C2.30928 37.8343 3.11717 38.029 3.89399 37.8938C4.64893 37.7624 5.23166 37.2841 5.51097 36.6835C5.85899 35.9351 5.59345 35.1508 4.99798 34.6297Z" fill="#F2F2F2"/>
<path d="M5.23867 50.8558C5.34126 50.004 5.44383 49.1522 5.54641 48.3004C5.57595 48.0552 5.28014 47.8447 5.01305 47.8447C4.7001 47.8447 4.50932 48.0546 4.47969 48.3004L4.17538 50.8274C3.18469 50.8359 2.19395 50.8453 1.20321 50.8506C1.1975 50.8507 1.19394 50.8501 1.18839 50.8501L1.1916 50.8444L1.32073 50.6487C1.39245 50.54 1.4642 50.4313 1.53593 50.3225L2.48285 48.8873C2.82039 48.3757 1.89925 47.9158 1.56176 48.4273C1.19592 48.9818 0.830058 49.5363 0.46422 50.0909C0.286412 50.3603 0.0200812 50.6591 0.00111135 50.9779C-0.0195261 51.325 0.249387 51.6103 0.630589 51.7102C0.939742 51.7911 1.28462 51.7614 1.60286 51.7589L2.71296 51.7502C3.16381 51.7467 3.61466 51.7432 4.0655 51.7397C3.98253 52.4287 3.89954 53.1178 3.81657 53.8068C3.78706 54.052 4.08286 54.2625 4.34993 54.2625C4.66291 54.2625 4.85369 54.0527 4.88329 53.8068C4.967 53.1118 5.05068 52.4168 5.13439 51.7218C5.63283 51.6358 5.66842 51.0104 5.23867 50.8558ZM0.962616 50.8447C0.913287 50.8492 0.922226 50.8201 0.962616 50.8447V50.8447Z" fill="#F2F2F2"/>
<path d="M253.609 106.381L243.676 74.9689C242.791 72.2022 239.471 70.5539 236.219 71.2664C232.807 72.0141 230.826 75.0545 231.881 77.9264L243.37 110.286L249.381 130.2C247.727 131.283 246.898 133.141 247.448 134.974C248.183 137.423 251.103 138.9 253.971 138.272C256.838 137.644 258.566 135.148 257.831 132.699C257.562 131.804 257 131.042 256.259 130.462L253.609 106.381Z" fill="#FFB6B6"/>
<path d="M170.024 99.6161L200.205 79.7711C202.859 78.0151 203.373 74.7643 201.36 72.469C199.248 70.0602 195.203 69.6583 192.499 71.5885L161.889 93.0237L142.646 105.379C140.843 104.487 138.516 104.542 136.744 105.676C134.375 107.193 133.894 110.063 135.669 112.087C137.444 114.111 140.803 114.522 143.172 113.005C144.037 112.452 144.647 111.717 144.99 110.909L170.024 99.6161Z" fill="#FFB6B6"/>
<path d="M220.306 57.6396H206.388L200.411 66.3785L197.563 66.2441C194.623 66.1054 191.916 67.0359 189.945 68.6299C188.959 69.427 189.948 71.5054 187.601 71.468C184.806 71.4235 181.364 76.1784 182.265 78.6486V92.0158C186.734 91.8749 190.522 85.7354 190.443 80.7752C190.443 80.7752 183.97 88.9895 193.01 93.5868C193.01 93.5868 191.398 108.932 193.01 108.839C194.622 108.746 195.421 109.636 193.248 110.407C189.324 111.798 194.386 113.48 194.866 113.89C195.187 114.164 195.347 114.301 195.347 114.301C200.327 105.66 219.16 118.06 234.719 121.388C236.487 120.246 237.2 117.711 233.998 115.557C230.988 113.531 235.153 109.097 236.273 109.799C237.366 110.485 231.762 104.53 232.587 101.71C233.412 98.8893 234.65 99.947 233.412 98.8893C232.174 97.8316 238.655 92.4006 234.85 87.3177L237.894 97.7234C235.841 98.0435 235.683 98.6567 236.312 99.9147C236.529 100.35 237.685 100.502 237.71 102.335C237.734 104.168 239.059 101.673 238.397 102.768C237.734 103.864 239.1 103.107 239.512 103.256C244.523 104.65 248.635 103.38 252.313 100.826C252.554 100.252 254.848 98.192 253.225 98.7495C251.601 99.3071 251.639 98.1673 253.398 97.9777C255.157 97.788 253.177 97.0214 253.064 96.4957C252.856 95.5232 252.309 94.5421 250.535 95.0538C249.584 89.9489 248.965 82.531 245.873 80.0264C245.873 78.7254 244.193 70.611 242.011 70.9136C239.828 71.2162 240.846 69.8352 240.139 69.3492C236.952 67.1569 232.281 65.7334 228.857 65.7334H228.126L220.306 57.6396Z" fill="white"/>
<path d="M224.416 52.5123C214.325 54.7725 203.857 55.706 199.579 60.6184C199.579 60.6184 204.735 52.3443 199.444 52.3804C190.553 52.441 200.37 38.4252 203.676 36.7374C209.186 33.9244 222.219 35.8426 222.219 35.8426L228.739 42.8052L224.416 52.5123Z" fill="#2F2E41"/>
<path d="M213.628 54.7565C221.547 54.7565 227.967 49.2712 227.967 42.5047C227.967 35.7382 221.547 30.2529 213.628 30.2529C205.708 30.2529 199.288 35.7382 199.288 42.5047C199.288 49.2712 205.708 54.7565 213.628 54.7565Z" fill="#FFB6B6"/>
<path d="M220.502 39.8704L220.081 41.9635L210.331 40.5326C210.68 39.752 210.675 38.8505 210.23 38.1001C210.061 38.9157 209.653 39.6918 209.062 40.3464C203.138 40.9435 203.017 41.8574 199.421 39.8913C198.222 39.7153 197.417 38.7423 197.623 37.7179C198.913 31.3006 201.315 25.1264 208.851 26.0961C212.766 26.6 216.04 28.4465 218.151 30.9923C220.203 33.4784 221.153 36.6345 220.502 39.8704Z" fill="#2F2E41"/>
<path d="M214.612 46.7251C215.953 40.0563 210.712 33.7216 202.907 32.5762C201.951 32.4358 201 32.381 200.066 32.4032C201.42 31.0896 203.296 30.1903 205.412 29.9347L217.247 29.7764C222.661 30.5708 231.818 30.6209 234.118 34.5041C236.24 38.0747 232.351 42.2073 234.101 45.9167C236.018 49.9818 234.64 53.494 232.744 55.122C230.55 57.0054 226.863 59.3287 223.816 59.033C224.05 58.1862 223.966 57.2821 223.503 56.5007C223.33 57.3293 222.96 58.1291 222.426 58.8344L200.496 64.2083C202.591 63.6114 205.334 61.1316 207.851 58.1347C209.34 56.3608 212.863 56.8038 211.899 52.5529C210.935 48.3021 214.322 48.1673 214.612 46.7251Z" fill="#2F2E41"/>
<path d="M174.272 110.147H84.312C79.8025 110.147 76.1338 107.013 76.1338 103.16V48.172C76.1338 44.3191 79.8025 41.1846 84.312 41.1846H174.272C178.781 41.1846 182.45 44.3191 182.45 48.172V103.16C182.45 107.013 178.781 110.147 174.272 110.147Z" fill="white"/>
<path d="M174.272 110.147H84.312C79.8025 110.147 76.1338 107.013 76.1338 103.16V48.172C76.1338 44.3191 79.8025 41.1846 84.312 41.1846H174.272C178.781 41.1846 182.45 44.3191 182.45 48.172V103.16C182.45 107.013 178.781 110.147 174.272 110.147ZM124.8 41.7922C98.3151 41.7922 76.8449 60.1363 76.8449 82.7649V103.16C76.8449 106.683 80.188 109.54 84.312 109.54H174.272C178.396 109.54 181.739 106.683 181.739 103.16V48.172C181.739 44.6485 178.396 41.7922 174.272 41.7922H124.8Z" fill="#3F3D56"/>
<path d="M107.029 90.0115H92.8058C92.0216 90.0115 91.3835 89.4663 91.3835 88.7963C91.3835 88.1262 92.0216 87.5811 92.8058 87.5811H107.029C107.813 87.5811 108.451 88.1262 108.451 88.7963C108.451 89.4663 107.813 90.0115 107.029 90.0115Z" fill="#CCCCCC"/>
<path d="M137.964 98.9079H92.8058C92.0216 98.9079 91.3835 98.3628 91.3835 97.6927C91.3835 97.0227 92.0216 96.4775 92.8058 96.4775H137.964C138.748 96.4775 139.386 97.0227 139.386 97.6927C139.386 98.3628 138.748 98.9079 137.964 98.9079Z" fill="#CCCCCC"/>
<path d="M144.799 90.7047C157.171 90.7047 167.2 82.1357 167.2 71.5652C167.2 60.9948 157.171 52.4258 144.799 52.4258C132.428 52.4258 122.398 60.9948 122.398 71.5652C122.398 82.1357 132.428 90.7047 144.799 90.7047Z" fill="white"/>
<path d="M140.191 64.2549C139.894 64.2549 139.598 64.3246 139.333 64.463C138.839 64.7208 138.544 65.1699 138.544 65.6642V77.4669C138.544 77.9613 138.839 78.4103 139.333 78.6681C139.826 78.9258 140.428 78.9451 140.943 78.7199L154.425 72.8186C154.986 72.5729 155.321 72.1045 155.321 71.5656C155.321 71.0266 154.986 70.5582 154.425 70.3125L140.943 64.4112C140.705 64.3068 140.447 64.2549 140.191 64.2549Z" fill="white"/>
</g>
<defs>
<clipPath id="clip0_283_857">
<rect width="258" height="181" fill="white"/>
</clipPath>
</defs>
</svg>
