<svg width="28" height="31" viewBox="0 0 28 31" fill="none" xmlns="http://www.w3.org/2000/svg">
<path d="M24.5 10.5005H1.16666C0.857246 10.5005 0.5605 10.3775 0.341708 10.1587C0.122916 9.93995 0 9.64321 0 9.33379V3.50047C0 3.19105 0.122916 2.8943 0.341708 2.67551C0.5605 2.45672 0.857246 2.3338 1.16666 2.3338H24.5C24.8094 2.3338 25.1061 2.45672 25.3249 2.67551C25.5437 2.8943 25.6666 3.19105 25.6666 3.50047V9.33379C25.6666 9.64321 25.5437 9.93995 25.3249 10.1587C25.1061 10.3775 24.8094 10.5005 24.5 10.5005ZM2.33333 8.16712H23.3333V4.66713H2.33333V8.16712Z" fill="#EDF2F4"/>
<path d="M19.8334 6.99999C19.524 6.99999 19.2272 6.87707 19.0084 6.65828C18.7896 6.43949 18.6667 6.14274 18.6667 5.83332V1.16666C18.6667 0.857246 18.7896 0.5605 19.0084 0.341708C19.2272 0.122916 19.524 0 19.8334 0C20.1428 0 20.4396 0.122916 20.6583 0.341708C20.8771 0.5605 21.0001 0.857246 21.0001 1.16666V5.83332C21.0001 6.14274 20.8771 6.43949 20.6583 6.65828C20.4396 6.87707 20.1428 6.99999 19.8334 6.99999ZM5.83341 6.99999C5.52399 6.99999 5.22725 6.87707 5.00846 6.65828C4.78966 6.43949 4.66675 6.14274 4.66675 5.83332V1.16666C4.66675 0.857246 4.78966 0.5605 5.00846 0.341708C5.22725 0.122916 5.52399 0 5.83341 0C6.14283 0 6.43958 0.122916 6.65837 0.341708C6.87716 0.5605 7.00008 0.857246 7.00008 1.16666V5.83332C7.00008 6.14274 6.87716 6.43949 6.65837 6.65828C6.43958 6.87707 6.14283 6.99999 5.83341 6.99999Z" fill="#EDF2F4"/>
<path d="M14 28.0004H3.49999C2.57174 28.0004 1.6815 27.6317 1.02512 26.9753C0.368748 26.3189 0 25.4287 0 24.5004V3.50047C0 3.19105 0.122916 2.8943 0.341708 2.67551C0.5605 2.45672 0.857246 2.3338 1.16666 2.3338H24.5C24.8094 2.3338 25.1061 2.45672 25.3249 2.67551C25.5437 2.8943 25.6666 3.19105 25.6666 3.50047V16.3338C25.6666 16.6432 25.5437 16.9399 25.3249 17.1587C25.1061 17.3775 24.8094 17.5004 24.5 17.5004C24.1905 17.5004 23.8938 17.3775 23.675 17.1587C23.4562 16.9399 23.3333 16.6432 23.3333 16.3338V4.66713H2.33333V24.5004C2.33333 24.8098 2.45625 25.1066 2.67504 25.3254C2.89383 25.5442 3.19058 25.6671 3.49999 25.6671H14C14.3094 25.6671 14.6061 25.79 14.8249 26.0088C15.0437 26.2276 15.1666 26.5243 15.1666 26.8338C15.1666 27.1432 15.0437 27.4399 14.8249 27.6587C14.6061 27.8775 14.3094 28.0004 14 28.0004Z" fill="#EDF2F4"/>
<path d="M19.8334 30.3331C18.2182 30.3331 16.6393 29.8541 15.2963 28.9567C13.9533 28.0594 12.9065 26.7839 12.2884 25.2917C11.6703 23.7994 11.5086 22.1574 11.8237 20.5732C12.1388 18.989 12.9166 17.5338 14.0587 16.3917C15.2008 15.2496 16.656 14.4718 18.2402 14.1567C19.8243 13.8416 21.4664 14.0033 22.9586 14.6214C24.4509 15.2395 25.7264 16.2863 26.6237 17.6293C27.5211 18.9723 28.0001 20.5512 28.0001 22.1664C28.0001 24.3323 27.1396 26.4096 25.6081 27.9411C24.0766 29.4727 21.9993 30.3331 19.8334 30.3331ZM19.8334 16.3331C18.6797 16.3331 17.5519 16.6752 16.5926 17.3162C15.6333 17.9572 14.8856 18.8682 14.4441 19.9341C14.0026 21 13.8871 22.1729 14.1122 23.3044C14.3372 24.436 14.8928 25.4754 15.7086 26.2912C16.5244 27.107 17.5638 27.6626 18.6954 27.8876C19.8269 28.1127 20.9998 27.9972 22.0657 27.5557C23.1316 27.1142 24.0427 26.3665 24.6836 25.4072C25.3246 24.4479 25.6667 23.3201 25.6667 22.1664C25.6667 20.6193 25.0521 19.1356 23.9582 18.0416C22.8642 16.9477 21.3805 16.3331 19.8334 16.3331Z" fill="#EDF2F4"/>
<path d="M23.3332 23.3338H19.8332C19.5237 23.3338 19.227 23.2109 19.0082 22.9921C18.7894 22.7733 18.6665 22.4766 18.6665 22.1671V17.5005H20.9998V21.0005H23.3332V23.3338Z" fill="#EDF2F4"/>
</svg>
