<svg width="20" height="20" viewBox="0 0 20 20" fill="none" xmlns="http://www.w3.org/2000/svg">
<path d="M20 10.2221C20 9.39983 19.9319 8.79983 19.7845 8.17761H10.204V11.8887H15.8276C15.7142 12.811 15.1019 14.1999 13.7414 15.1331L13.7223 15.2574L16.7515 17.5572L16.9614 17.5777C18.8888 15.8332 20 13.2665 20 10.2221Z" fill="#4285F4"/>
<path d="M10.2034 20.0001C12.9585 20.0001 15.2714 19.1112 16.9608 17.5779L13.7408 15.1333C12.8792 15.7222 11.7227 16.1333 10.2034 16.1333C7.50508 16.1333 5.21482 14.3889 4.39841 11.9778L4.27875 11.9877L1.12896 14.3767L1.08777 14.4889C2.76576 17.7556 6.2125 20.0001 10.2034 20.0001Z" fill="#34A853"/>
<path d="M4.39907 11.9778C4.18365 11.3556 4.05898 10.6889 4.05898 10C4.05898 9.31108 4.18366 8.64444 4.38774 8.02222L4.38203 7.88965L1.19276 5.4624L1.08842 5.51105C0.396838 6.86664 0 8.38887 0 10C0 11.6111 0.396838 13.1333 1.08842 14.4889L4.39907 11.9778Z" fill="#FBBC05"/>
<path d="M10.2035 3.86666C12.1196 3.86666 13.4121 4.67777 14.1491 5.3556L17.0289 2.60001C15.2603 0.988897 12.9586 0 10.2035 0C6.2125 0 2.76577 2.24444 1.08777 5.51109L4.3871 8.02225C5.21484 5.61113 7.50508 3.86666 10.2035 3.86666Z" fill="#EB4335"/>
</svg>
