<svg width="26" height="26" viewBox="0 0 26 26" fill="none" xmlns="http://www.w3.org/2000/svg">
<path d="M8.723 7.41837L11.7 4.42762V16.8977C11.7 17.2426 11.837 17.5733 12.0808 17.8172C12.3246 18.0611 12.6552 18.1981 13 18.1981C13.3448 18.1981 13.6754 18.0611 13.9192 17.8172C14.163 17.5733 14.3 17.2426 14.3 16.8977V4.42762L17.277 7.41837C17.3979 7.54024 17.5416 7.63698 17.7001 7.703C17.8585 7.76901 18.0284 7.803 18.2 7.803C18.3716 7.803 18.5415 7.76901 18.6999 7.703C18.8584 7.63698 19.0021 7.54024 19.123 7.41837C19.2448 7.29749 19.3416 7.15367 19.4076 6.99521C19.4736 6.83676 19.5075 6.6668 19.5075 6.49514C19.5075 6.32348 19.4736 6.15352 19.4076 5.99506C19.3416 5.83661 19.2448 5.69279 19.123 5.57191L13.923 0.37061C13.7994 0.252228 13.6536 0.15943 13.494 0.0975419C13.1775 -0.032514 12.8225 -0.032514 12.506 0.0975419C12.3464 0.15943 12.2006 0.252228 12.077 0.37061L6.877 5.57191C6.75579 5.69315 6.65964 5.83708 6.59404 5.99549C6.52844 6.1539 6.49468 6.32368 6.49468 6.49514C6.49468 6.6666 6.52844 6.83638 6.59404 6.99479C6.65964 7.15319 6.75579 7.29713 6.877 7.41837C6.99821 7.53961 7.14211 7.63578 7.30048 7.7014C7.45884 7.76701 7.62858 7.80078 7.8 7.80078C7.97142 7.80078 8.14116 7.76701 8.29952 7.7014C8.45789 7.63578 8.60179 7.53961 8.723 7.41837ZM24.7 12.9968C24.3552 12.9968 24.0246 13.1338 23.7808 13.3776C23.537 13.6215 23.4 13.9522 23.4 14.2971V22.099C23.4 22.4439 23.263 22.7746 23.0192 23.0185C22.7754 23.2624 22.4448 23.3994 22.1 23.3994H3.9C3.55522 23.3994 3.22456 23.2624 2.98076 23.0185C2.73696 22.7746 2.6 22.4439 2.6 22.099V14.2971C2.6 13.9522 2.46304 13.6215 2.21924 13.3776C1.97544 13.1338 1.64478 12.9968 1.3 12.9968C0.955218 12.9968 0.624558 13.1338 0.380761 13.3776C0.136964 13.6215 0 13.9522 0 14.2971V22.099C0 23.1336 0.410892 24.1259 1.14228 24.8574C1.87368 25.589 2.86566 26 3.9 26H22.1C23.1343 26 24.1263 25.589 24.8577 24.8574C25.5891 24.1259 26 23.1336 26 22.099V14.2971C26 13.9522 25.863 13.6215 25.6192 13.3776C25.3754 13.1338 25.0448 12.9968 24.7 12.9968Z" fill="#EDF2F4"/>
</svg>
