<svg width="64" height="52" viewBox="0 0 64 52" fill="none" xmlns="http://www.w3.org/2000/svg">
<path d="M13.8001 20.8C12.2401 20.8 11.2001 19.76 11.2001 18.2C11.2001 8.06 19.2601 0 29.4001 0C37.2001 0 44.2201 5.2 46.8201 12.74C47.0801 14.04 46.5601 15.6 45.0001 15.86C43.7001 16.38 42.1401 15.6 41.6201 14.3C40.0601 8.84 35.1201 5.2 29.4001 5.2C22.1201 5.2 16.4001 10.92 16.4001 18.2C16.4001 19.76 15.3601 20.8 13.8001 20.8Z" fill="#EDF2F4"/>
<path d="M47.6001 41.5999C46.0401 41.5999 45.0001 40.5599 45.0001 38.9999C45.0001 37.4399 46.0401 36.3999 47.6001 36.3999C53.3201 36.3999 58.0001 31.7199 58.0001 25.9999C58.0001 20.2799 53.3201 15.5999 47.6001 15.5999C46.8201 15.5999 45.7801 15.5999 45.0001 15.8599C43.7001 16.1199 42.1401 15.3399 41.8801 14.0399C41.6201 12.7399 42.4001 11.1799 43.7001 10.9199C45.0001 10.6599 46.3001 10.3999 47.6001 10.3999C56.1801 10.3999 63.2001 17.4199 63.2001 25.9999C63.2001 34.5799 56.1801 41.5999 47.6001 41.5999ZM21.6001 41.5999H13.8001C12.2401 41.5999 11.2001 40.5599 11.2001 38.9999C11.2001 37.4399 12.2401 36.3999 13.8001 36.3999H21.6001C23.1601 36.3999 24.2001 37.4399 24.2001 38.9999C24.2001 40.5599 23.1601 41.5999 21.6001 41.5999Z" fill="#EDF2F4"/>
<path d="M47.6001 41.6001H42.4001C40.84 41.6001 39.8001 40.5601 39.8001 39.0001C39.8001 37.4401 40.84 36.4001 42.4001 36.4001H47.6001C49.1601 36.4001 50.2001 37.4401 50.2001 39.0001C50.2001 40.5601 49.1601 41.6001 47.6001 41.6001ZM13.8 41.6001C6.52005 41.6001 0.800049 35.8801 0.800049 28.6001C0.800049 21.3201 6.52005 15.6001 13.8 15.6001C15.36 15.6001 16.4 16.6401 16.4 18.2001C16.4 19.7601 15.36 20.8001 13.8 20.8001C9.38005 20.8001 6.00005 24.1801 6.00005 28.6001C6.00005 33.0201 9.38005 36.4001 13.8 36.4001C15.36 36.4001 16.4 37.4401 16.4 39.0001C16.4 40.5601 15.36 41.6001 13.8 41.6001ZM32 52.0001C30.4401 52.0001 29.4001 50.9601 29.4001 49.4001V23.4001C29.4001 21.8401 30.4401 20.8001 32 20.8001C33.5601 20.8001 34.6001 21.8401 34.6001 23.4001V49.4001C34.6001 50.9601 33.5601 52.0001 32 52.0001Z" fill="#EDF2F4"/>
<path d="M24.2001 33.8C23.4201 33.8 22.9001 33.54 22.3801 33.02C21.3401 31.98 21.3401 30.42 22.3801 29.38L30.1801 21.58C31.2201 20.54 32.7801 20.54 33.8201 21.58C34.8601 22.62 34.8601 24.18 33.8201 25.22L26.0201 33.02C25.5001 33.54 24.9801 33.8 24.2001 33.8Z" fill="#EDF2F4"/>
<path d="M39.8 33.8C39.02 33.8 38.5 33.54 37.98 33.02L30.18 25.22C29.14 24.18 29.14 22.62 30.18 21.58C31.22 20.54 32.78 20.54 33.82 21.58L41.62 29.38C42.66 30.42 42.66 31.98 41.62 33.02C41.1 33.54 40.58 33.8 39.8 33.8Z" fill="#EDF2F4"/>
</svg>
